<mxfile host="Electron" modified="2024-01-27T09:51:12.043Z" agent="Mozilla/5.0 (X11; Linux x86_64) AppleWebKit/537.36 (KHTML, like Gecko) draw.io/23.0.2 Chrome/120.0.6099.109 Electron/28.1.0 Safari/537.36" etag="rEaXu_YRFWGDWXTadTzS" version="23.0.2" type="device">
  <diagram name="Page-1" id="SHbZR7riI4DMQ_hshxAQ">
    <mxGraphModel dx="1434" dy="773" grid="1" gridSize="10" guides="1" tooltips="1" connect="1" arrows="1" fold="1" page="1" pageScale="1" pageWidth="1654" pageHeight="1169" math="0" shadow="0">
      <root>
        <mxCell id="0" />
        <mxCell id="1" parent="0" />
        <mxCell id="KrMKus8RkKXgKPneI6wB-18" value="" style="shape=image;verticalLabelPosition=bottom;labelBackgroundColor=default;verticalAlign=top;aspect=fixed;imageAspect=0;image=https://razorops.com/images/blog/gitlab-container-registry.png;" vertex="1" parent="1">
          <mxGeometry x="1156.47" y="760" width="125.07" height="125.07" as="geometry" />
        </mxCell>
        <mxCell id="cv7s6CQmIdz1Lz2LSrHj-9" value="" style="rounded=1;whiteSpace=wrap;html=1;fillColor=#dae8fc;strokeColor=#6c8ebf;" parent="1" vertex="1">
          <mxGeometry x="1410" y="170" width="490" height="185" as="geometry" />
        </mxCell>
        <mxCell id="fUXLhJCDhWvFZy5FGVjE-1" value="" style="rounded=1;whiteSpace=wrap;html=1;imageHeight=24;arcSize=6;fillColor=#dae8fc;strokeColor=#6c8ebf;" parent="1" vertex="1">
          <mxGeometry x="300" y="210" width="460" height="410" as="geometry" />
        </mxCell>
        <mxCell id="fUXLhJCDhWvFZy5FGVjE-2" value="Kubernetes" style="text;html=1;align=center;verticalAlign=middle;resizable=0;points=[];autosize=1;strokeColor=none;fillColor=none;" parent="1" vertex="1">
          <mxGeometry x="300" y="180" width="80" height="30" as="geometry" />
        </mxCell>
        <mxCell id="fUXLhJCDhWvFZy5FGVjE-3" value="" style="rounded=1;whiteSpace=wrap;html=1;dashed=1;fillColor=#d5e8d4;strokeColor=#82b366;" parent="1" vertex="1">
          <mxGeometry x="340" y="250" width="150" height="160" as="geometry" />
        </mxCell>
        <mxCell id="fUXLhJCDhWvFZy5FGVjE-4" value="ns: urunner" style="text;html=1;strokeColor=none;fillColor=none;align=center;verticalAlign=middle;whiteSpace=wrap;rounded=0;" parent="1" vertex="1">
          <mxGeometry x="340" y="220" width="70" height="30" as="geometry" />
        </mxCell>
        <mxCell id="fUXLhJCDhWvFZy5FGVjE-5" value="" style="rounded=1;whiteSpace=wrap;html=1;dashed=1;fillColor=#fff2cc;strokeColor=#d6b656;" parent="1" vertex="1">
          <mxGeometry x="560" y="250" width="160" height="160" as="geometry" />
        </mxCell>
        <mxCell id="fUXLhJCDhWvFZy5FGVjE-6" value="ns: my-app-01" style="text;html=1;strokeColor=none;fillColor=none;align=center;verticalAlign=middle;whiteSpace=wrap;rounded=0;" parent="1" vertex="1">
          <mxGeometry x="560" y="220" width="80" height="30" as="geometry" />
        </mxCell>
        <mxCell id="fUXLhJCDhWvFZy5FGVjE-7" value="" style="rounded=1;whiteSpace=wrap;html=1;dashed=1;fillColor=#fff2cc;strokeColor=#d6b656;" parent="1" vertex="1">
          <mxGeometry x="560" y="450" width="160" height="160" as="geometry" />
        </mxCell>
        <mxCell id="fUXLhJCDhWvFZy5FGVjE-8" value="ns: my-app-02" style="text;html=1;strokeColor=none;fillColor=none;align=center;verticalAlign=middle;whiteSpace=wrap;rounded=0;" parent="1" vertex="1">
          <mxGeometry x="560" y="420" width="90" height="30" as="geometry" />
        </mxCell>
        <mxCell id="fUXLhJCDhWvFZy5FGVjE-11" style="edgeStyle=orthogonalEdgeStyle;rounded=0;orthogonalLoop=1;jettySize=auto;html=1;" parent="1" source="fUXLhJCDhWvFZy5FGVjE-9" target="fUXLhJCDhWvFZy5FGVjE-10" edge="1">
          <mxGeometry relative="1" as="geometry" />
        </mxCell>
        <mxCell id="fUXLhJCDhWvFZy5FGVjE-12" value="&lt;b&gt;HTTP REST&lt;br&gt;docker standard api&lt;br&gt;&lt;/b&gt;get image digest" style="edgeLabel;html=1;align=center;verticalAlign=middle;resizable=0;points=[];" parent="fUXLhJCDhWvFZy5FGVjE-11" vertex="1" connectable="0">
          <mxGeometry x="0.32" y="1" relative="1" as="geometry">
            <mxPoint as="offset" />
          </mxGeometry>
        </mxCell>
        <mxCell id="fUXLhJCDhWvFZy5FGVjE-14" style="edgeStyle=orthogonalEdgeStyle;rounded=0;orthogonalLoop=1;jettySize=auto;html=1;exitX=1;exitY=0.5;exitDx=0;exitDy=0;entryX=0;entryY=0.5;entryDx=0;entryDy=0;" parent="1" source="fUXLhJCDhWvFZy5FGVjE-9" target="fUXLhJCDhWvFZy5FGVjE-13" edge="1">
          <mxGeometry relative="1" as="geometry" />
        </mxCell>
        <mxCell id="fUXLhJCDhWvFZy5FGVjE-15" value="&lt;font style=&quot;font-size: 10px;&quot;&gt;restart&lt;br&gt;on digest change&lt;/font&gt;" style="edgeLabel;html=1;align=center;verticalAlign=middle;resizable=0;points=[];" parent="fUXLhJCDhWvFZy5FGVjE-14" vertex="1" connectable="0">
          <mxGeometry x="-0.1833" relative="1" as="geometry">
            <mxPoint x="10" as="offset" />
          </mxGeometry>
        </mxCell>
        <mxCell id="fUXLhJCDhWvFZy5FGVjE-18" style="edgeStyle=orthogonalEdgeStyle;rounded=0;orthogonalLoop=1;jettySize=auto;html=1;entryX=0;entryY=0.5;entryDx=0;entryDy=0;exitX=0.992;exitY=0.668;exitDx=0;exitDy=0;exitPerimeter=0;" parent="1" source="fUXLhJCDhWvFZy5FGVjE-9" target="fUXLhJCDhWvFZy5FGVjE-17" edge="1">
          <mxGeometry relative="1" as="geometry">
            <Array as="points">
              <mxPoint x="459" y="340" />
              <mxPoint x="480" y="340" />
              <mxPoint x="480" y="510" />
            </Array>
          </mxGeometry>
        </mxCell>
        <mxCell id="fUXLhJCDhWvFZy5FGVjE-19" value="&lt;font style=&quot;font-size: 10px;&quot;&gt;restart&lt;br style=&quot;border-color: var(--border-color);&quot;&gt;on digest change&lt;/font&gt;" style="edgeLabel;html=1;align=center;verticalAlign=middle;resizable=0;points=[];" parent="fUXLhJCDhWvFZy5FGVjE-18" vertex="1" connectable="0">
          <mxGeometry x="0.525" relative="1" as="geometry">
            <mxPoint as="offset" />
          </mxGeometry>
        </mxCell>
        <mxCell id="fUXLhJCDhWvFZy5FGVjE-9" value="urunner" style="rounded=1;whiteSpace=wrap;html=1;fillColor=#60a917;fontColor=#ffffff;strokeColor=#2D7600;" parent="1" vertex="1">
          <mxGeometry x="370" y="280" width="90" height="80" as="geometry" />
        </mxCell>
        <mxCell id="fUXLhJCDhWvFZy5FGVjE-10" value="Container Registry" style="rounded=1;whiteSpace=wrap;html=1;fillColor=#e1d5e7;strokeColor=#9673a6;" parent="1" vertex="1">
          <mxGeometry x="355" y="20" width="120" height="60" as="geometry" />
        </mxCell>
        <mxCell id="fUXLhJCDhWvFZy5FGVjE-13" value="app-01:latest" style="rounded=1;whiteSpace=wrap;html=1;fillColor=#e3c800;fontColor=#000000;strokeColor=#B09500;" parent="1" vertex="1">
          <mxGeometry x="595" y="280" width="90" height="60" as="geometry" />
        </mxCell>
        <mxCell id="fUXLhJCDhWvFZy5FGVjE-16" value="" style="html=1;verticalLabelPosition=bottom;align=center;labelBackgroundColor=#ffffff;verticalAlign=top;strokeWidth=2;strokeColor=#0080F0;shadow=0;dashed=0;shape=mxgraph.ios7.icons.clock;" parent="1" vertex="1">
          <mxGeometry x="400" y="264" width="30" height="30" as="geometry" />
        </mxCell>
        <mxCell id="fUXLhJCDhWvFZy5FGVjE-17" value="app-02:latest" style="rounded=1;whiteSpace=wrap;html=1;fillColor=#e3c800;fontColor=#000000;strokeColor=#B09500;" parent="1" vertex="1">
          <mxGeometry x="595" y="480" width="90" height="60" as="geometry" />
        </mxCell>
        <mxCell id="cv7s6CQmIdz1Lz2LSrHj-2" value="AWS ECR" style="sketch=0;points=[[0,0,0],[0.25,0,0],[0.5,0,0],[0.75,0,0],[1,0,0],[0,1,0],[0.25,1,0],[0.5,1,0],[0.75,1,0],[1,1,0],[0,0.25,0],[0,0.5,0],[0,0.75,0],[1,0.25,0],[1,0.5,0],[1,0.75,0]];outlineConnect=0;fontColor=#232F3E;gradientColor=#F78E04;gradientDirection=north;fillColor=#D05C17;strokeColor=#ffffff;dashed=0;verticalLabelPosition=bottom;verticalAlign=top;align=center;html=1;fontSize=12;fontStyle=0;aspect=fixed;shape=mxgraph.aws4.resourceIcon;resIcon=mxgraph.aws4.ecr;" parent="1" vertex="1">
          <mxGeometry x="1180" y="210" width="78" height="78" as="geometry" />
        </mxCell>
        <mxCell id="cv7s6CQmIdz1Lz2LSrHj-6" style="edgeStyle=orthogonalEdgeStyle;rounded=0;orthogonalLoop=1;jettySize=auto;html=1;" parent="1" source="cv7s6CQmIdz1Lz2LSrHj-5" target="cv7s6CQmIdz1Lz2LSrHj-2" edge="1">
          <mxGeometry relative="1" as="geometry" />
        </mxCell>
        <mxCell id="cv7s6CQmIdz1Lz2LSrHj-7" value="push image:latest" style="edgeLabel;html=1;align=center;verticalAlign=middle;resizable=0;points=[];" parent="cv7s6CQmIdz1Lz2LSrHj-6" vertex="1" connectable="0">
          <mxGeometry x="-0.2571" y="-2" relative="1" as="geometry">
            <mxPoint x="8" y="-2" as="offset" />
          </mxGeometry>
        </mxCell>
        <mxCell id="cv7s6CQmIdz1Lz2LSrHj-5" value="" style="sketch=0;pointerEvents=1;shadow=0;dashed=0;html=1;strokeColor=none;fillColor=#505050;labelPosition=center;verticalLabelPosition=bottom;verticalAlign=top;outlineConnect=0;align=center;shape=mxgraph.office.concepts.settings_office_365;" parent="1" vertex="1">
          <mxGeometry x="950" y="209" width="90" height="80" as="geometry" />
        </mxCell>
        <mxCell id="cv7s6CQmIdz1Lz2LSrHj-8" value="AWS EKS" style="sketch=0;points=[[0,0,0],[0.25,0,0],[0.5,0,0],[0.75,0,0],[1,0,0],[0,1,0],[0.25,1,0],[0.5,1,0],[0.75,1,0],[1,1,0],[0,0.25,0],[0,0.5,0],[0,0.75,0],[1,0.25,0],[1,0.5,0],[1,0.75,0]];outlineConnect=0;fontColor=#232F3E;gradientColor=#F78E04;gradientDirection=north;fillColor=#D05C17;strokeColor=#ffffff;dashed=0;verticalLabelPosition=bottom;verticalAlign=top;align=center;html=1;fontSize=12;fontStyle=0;aspect=fixed;shape=mxgraph.aws4.resourceIcon;resIcon=mxgraph.aws4.eks;" parent="1" vertex="1">
          <mxGeometry x="1830" y="186" width="49" height="49" as="geometry" />
        </mxCell>
        <mxCell id="cv7s6CQmIdz1Lz2LSrHj-11" style="edgeStyle=orthogonalEdgeStyle;rounded=0;orthogonalLoop=1;jettySize=auto;html=1;entryX=1;entryY=0.5;entryDx=0;entryDy=0;entryPerimeter=0;startArrow=classic;startFill=1;endArrow=none;endFill=0;" parent="1" source="cv7s6CQmIdz1Lz2LSrHj-10" target="cv7s6CQmIdz1Lz2LSrHj-2" edge="1">
          <mxGeometry relative="1" as="geometry" />
        </mxCell>
        <mxCell id="cv7s6CQmIdz1Lz2LSrHj-18" value="Check image:latest&lt;br&gt;digest" style="edgeLabel;html=1;align=center;verticalAlign=middle;resizable=0;points=[];" parent="cv7s6CQmIdz1Lz2LSrHj-11" vertex="1" connectable="0">
          <mxGeometry x="0.2092" y="-3" relative="1" as="geometry">
            <mxPoint y="3" as="offset" />
          </mxGeometry>
        </mxCell>
        <mxCell id="cv7s6CQmIdz1Lz2LSrHj-14" style="edgeStyle=orthogonalEdgeStyle;rounded=0;orthogonalLoop=1;jettySize=auto;html=1;" parent="1" source="cv7s6CQmIdz1Lz2LSrHj-10" target="cv7s6CQmIdz1Lz2LSrHj-13" edge="1">
          <mxGeometry relative="1" as="geometry" />
        </mxCell>
        <mxCell id="cv7s6CQmIdz1Lz2LSrHj-15" value="Restart on&lt;br&gt;digest change" style="edgeLabel;html=1;align=center;verticalAlign=middle;resizable=0;points=[];" parent="cv7s6CQmIdz1Lz2LSrHj-14" vertex="1" connectable="0">
          <mxGeometry x="-0.302" relative="1" as="geometry">
            <mxPoint x="8" y="1" as="offset" />
          </mxGeometry>
        </mxCell>
        <mxCell id="cv7s6CQmIdz1Lz2LSrHj-10" value="Urunner" style="ellipse;whiteSpace=wrap;html=1;fillColor=#d5e8d4;strokeColor=#82b366;" parent="1" vertex="1">
          <mxGeometry x="1430" y="209" width="120" height="80" as="geometry" />
        </mxCell>
        <mxCell id="cv7s6CQmIdz1Lz2LSrHj-12" value="" style="html=1;verticalLabelPosition=bottom;align=center;labelBackgroundColor=#ffffff;verticalAlign=top;strokeWidth=2;strokeColor=#0080F0;shadow=0;dashed=0;shape=mxgraph.ios7.icons.clock;" parent="1" vertex="1">
          <mxGeometry x="1430" y="239" width="20" height="20" as="geometry" />
        </mxCell>
        <mxCell id="cv7s6CQmIdz1Lz2LSrHj-16" style="edgeStyle=orthogonalEdgeStyle;rounded=0;orthogonalLoop=1;jettySize=auto;html=1;entryX=0.5;entryY=0;entryDx=0;entryDy=0;entryPerimeter=0;endArrow=none;endFill=0;startArrow=classic;startFill=1;exitX=0.5;exitY=0;exitDx=0;exitDy=0;" parent="1" source="cv7s6CQmIdz1Lz2LSrHj-13" target="cv7s6CQmIdz1Lz2LSrHj-2" edge="1">
          <mxGeometry relative="1" as="geometry">
            <Array as="points">
              <mxPoint x="1730" y="120" />
              <mxPoint x="1219" y="120" />
            </Array>
          </mxGeometry>
        </mxCell>
        <mxCell id="cv7s6CQmIdz1Lz2LSrHj-17" value="Pull" style="edgeLabel;html=1;align=center;verticalAlign=middle;resizable=0;points=[];" parent="cv7s6CQmIdz1Lz2LSrHj-16" vertex="1" connectable="0">
          <mxGeometry x="-0.7512" relative="1" as="geometry">
            <mxPoint as="offset" />
          </mxGeometry>
        </mxCell>
        <mxCell id="cv7s6CQmIdz1Lz2LSrHj-13" value="Pods" style="ellipse;whiteSpace=wrap;html=1;fillColor=#d5e8d4;strokeColor=#82b366;" parent="1" vertex="1">
          <mxGeometry x="1670" y="208" width="120" height="80" as="geometry" />
        </mxCell>
        <mxCell id="m4bIN1iiOiE3AjWDViHn-1" value="" style="shape=image;verticalLabelPosition=bottom;labelBackgroundColor=default;verticalAlign=top;aspect=fixed;imageAspect=0;image=https://upload.wikimedia.org/wikipedia/commons/thumb/3/38/SQLite370.svg/2560px-SQLite370.svg.png;" parent="1" vertex="1">
          <mxGeometry x="383.3" y="329" width="63.41" height="30" as="geometry" />
        </mxCell>
        <mxCell id="m4bIN1iiOiE3AjWDViHn-2" value="" style="shape=image;verticalLabelPosition=bottom;labelBackgroundColor=default;verticalAlign=top;aspect=fixed;imageAspect=0;image=https://upload.wikimedia.org/wikipedia/commons/thumb/3/38/SQLite370.svg/2560px-SQLite370.svg.png;" parent="1" vertex="1">
          <mxGeometry x="1457.3" y="256" width="63.41" height="30" as="geometry" />
        </mxCell>
        <mxCell id="23rFBHKMvT71HNuFYbmp-2" value="" style="shape=image;verticalLabelPosition=bottom;labelBackgroundColor=default;verticalAlign=top;aspect=fixed;imageAspect=0;image=https://www.vectorlogo.zone/logos/digitalocean/digitalocean-ar21.png;" parent="1" vertex="1">
          <mxGeometry x="1170" y="445" width="100" height="50" as="geometry" />
        </mxCell>
        <mxCell id="23rFBHKMvT71HNuFYbmp-1" value="DigitalOcean Container Registry&#xa;DOCR" style="shape=image;verticalLabelPosition=bottom;labelBackgroundColor=default;verticalAlign=top;aspect=fixed;imageAspect=0;image=data:image/png,iVBORw0KGgoAAAANSUhEUgAAATsAAADsCAYAAAALkAHkAAAABHNCSVQICAgIfAhkiAAAIABJREFUeF7svVdwnFeW53nSZ8KDFnSipyhKoihDyntTXdXVVTVdPT3Ts21mZje2I/Zp3ydiX/dtI/ZpO2I7ZmZ7Z2s6pnuqusupVLKkJEo0oidF70CABAlv0+f+/vfLD0gkEpYgCYh5pSTSfOZ+5977v8efQIFm1ValQJUCVQp8xykQ/I4/X/XxqhSoUqBKAUeBKthVJ0KVAlUKPBQUqILdQzHM1YesUqBKgSrYVedAlQJVCjwUFKiC3UMxzNWHrFKgSoEq2FXnQJUCVQo8FBSogt1DMczVh6xSoEqBKthV50CVAlUKPBQUqILdQzHM1YesUqBKgSrYVedAlQJVCjwUFKiC3UMxzNWHrFKgSoEq2FXnQJUCVQo8FBSogt1DMczVh6xSoEqBKthV50CVAlUKPBQUqILdQzHM1YesUqBKgSrYVedAlQJVCjwUFKiC3UMxzNWHrFKgSoEq2FXnQJUCVQo8FBSogt1DMczVh6xSoEqBKthV50CVAlUKPBQUqILdQzHM1YecVwpUS1TNKznv18WqYHe/KF29z6KjQMH0X4UWqPBd9asFT4Hwgu9htYNVCjwICuTzFsgXeQHAzQe9QCl7UAW9BzEyc75nFezmTLrqid9pCgSD1tOXsyvXcjYwUrCNG6O2ZnnAQgBcLmsWqq6cRTf81SFbdENW7fA9oYBYN73g3HI5s2+uZOzAkZx9dThpff1Be313v72xp8m2b41YXXSsB4VcwQIBELCqELonwzKfFw0UaPN5weq1qhRY+BRgyueLMqhAKs+Lj3n+6x4I2qkLZn//G4DuVNJudBUsH4pZJD1k61cM2tuvLLEfvVdjj68zq6sF4/LDFgjC6llD8bEzXCjirude3KpQvFVV6n2wM6MKdg+W/tW7PxAKaH8HevQHoCsAeJ1ps/M3zX71gdkv3x+y9r6kRWINFgoFLZXJWzyWsmwmYoVs1uoTI/aDt5fZu6+aPbHZbE2TWUzPwbWQfmmwhgLQYOiBPF31ppUpUAW7ynSpfvtdpICADYCT1CmxM5Mya+1O2+X2qP1mv9lvP7ttHT0BC0eaAbhBi4ajTkTNgYqhPBwb2JXFaFFIp6xQG7V6AHNTS8HefDlk771Ra9tWw+0F01YTEurFPTAVplY5uwUxm6pgtyCGodqJe0cByZFCuKJSDRwaQeq83gEndzlpv/uiz744GrBrffWWQxwNc1hQrJ5j+XKAXchynB/kcy6LSGthQDAG6AUsEofTS6ctWhixZcuCtn1b1H7yStTefBqhNpG0cDhssUgYsPPQrirG3rtRnsmVq2A3EypVj1lkFCiKqRInxY7xp1DIWxrI6hoxO3nZ7L/8vMcOnxqxth70a+EaB26hABycAyaADXbMg0dp8tSKYFlKiaDHImazug+XCeZtWV3QNq7I2XNPROy91+vsyU1mSzBopNDtxaO6D60A2gKio3pDfVfh8t7B1X/niwJVsJsvSlavs4Ao4BkgCqBcAI4uA3D1o5O71G72398v2D/+uscGAzU2NDIMQIXQyxV1awEP1vQgY+9m91j5XNCBZr4wYLVIsq/urLE//xdN9tI2s1phHVxiLFrk8XSTIhPp7qKvq+zf7Ag+i6OrYDcLYlUPXSQU8Bk7utsHyB2/iD7u87z9du+QXWyDY4tkLMJ/0WgQgwICKqCTy6OZQ2z122zBLghHmAfI8lwsFkP0BS5HhgA2DByNdTl74+mUvbW70V58OmFrl5lxa0C2hJ7qs1oV7EqIMr9vq2A3v/SsXu1+U6AcJKSiA7NG8mm70pqzDz8P2C/3hex4WwT4GQbQMk4Plxoestq6hIXg7DJZfRfgtzGkmS3Y6bHlxRXIF/3u+BwMZTFthAHSrMUKCVtWm7KNq7P24lP19vJzEdu83mxZc8ESVQ/l+zJrqmB3X8hcvcl8UwBMcc2pzUpaEqC73ZW3n3+Stl+8320XWuPo6uosF4HFG23lUOZ/vjvFmQO7ojGitE+j1lj6HARoE6gJV9eFMGhE7HuvhOylZ8yW4rsSi2Z4id0r9kPdkmjtrlll+UppOpf3VbCbC9Wq5zxgCgjp8nBNnsIrjwg6lIvardtme4/n7f39aTtxOmxD6bClk0mMDejuIgKLyUDu/j9OGK4vBIBF4epWNRZs986gvfdanT37mFlzwixObJPnsyeH5Wqg03yMUBXs5oOK1Ws8GAqAXX39Zmfbc7bvSN4+Beiu34nZQH/e+gZSFoVbymQyFg5FETGziJPlYHf/uy3dXiAo/SDmE7jQEO7IwQIuLKFh9Hsp27o6b3/y/RZ7/kmclZflrbk+YIkwQD0/zOf9f+AFdMcq2C2gwah2Bb1XGREmE956h/J2+GzWPj6Utt9+OWA9A0scBzeSSRMRgTMwfnCKW5U7SCo1YqEIsuOC8O/IO1E2aALgEC/6S78TsYgNjwyiQwTcogWArmDPPBazN16os6cfDdqGlWaRu5OyH/rpVQW7h34KLCwClILdOKADFNKkG+lN19iNTrN/+nXOPvi0x67eJBNJTY0N59DJoe4q15mFkAVlIFgYQFdKayFXFuDDOgz44eFX/JEIDXwCC/Q7FozYkkTeHl2ds7/6waA9tzNuK5fV4KwMZUqJ43R7xdfCGs4F1Zsq2C2o4ah2ppQCLnUmYVpy6UhmY3aO2NV/3p+1f/rolt1sa2R91+FGUrAs1tQCZghFOvjNiYvOwiqft3J+ceHSWf32gDlo2VyGSI08ERthWwvgbVpqWHJr7Y1dBWtZGbHVS3BhkTpPYB7kjQ96erzJWOKF++j3vGd3B3aaQ0Wi5mQe41VIFyyTzqIrwfM8SwJEEoA11uNNqUhpGcR8aULnTbqN3/Pnrt5gIVLAnw/FOaWPg/iqXbxu6OMChHbl7NurQ5YsaIXn3BxTC+OwVg5qjmPi+zyKscUEdt6weIYXibc5ONYQIm8ebi8CsNdE4taAPLtjSxiDRpRIDXLtrcpYQyzqWabLaLgQh/lB9WnewE67cPJOxgbPRyyNaDE8gHIYPwBZnSJLI7YGa1OUncnwKnfAV2JdL3cfeFDEqN73AVKgdOPj/cCQ2dUbWFcP5+2Dr0fsxJU8kRAh9ksF5qP34phMVvourJpYNOU7V9oWK2fnPYNEWc/BWWJ4qMCCIV5X3Gshl2TtYNzI1qHfG7GnHovbH38/bjs3mW3CWbmZTFM1fr69SsD3EHN8dwV22WSaDBFRy94sWM+JjF3+OG/JdilgoTb+QbyzTC7lQgAbV92xlseX2PqX6s22MwqE8eRw/AxKmfwA11j11g+AAlqEGnQxZiVK99wgqZbYJI/Cyf3jx0k7dDpvd3oAuBxzyVlS+Ts6WcZbVst1dQ/gqeb1ln6aSf+5ym0To8ZZib0A4/rlCXthZ8Fe2x2xLatGbOuKOiQquuTEXF4le4FP/nnt8CK42JzAzm0YElEhdP523i7/bsA6mJjJa1EY7lr0KOy9gawOcRayxLKA1aJXSMfCVruSQOlXwlazh1GQSMtYZdKE70T1odq+6xRw2g7GvHTxBsieJB+5r84S1vV11r46PmR3+uQ2EkQNwotYU5/TGQO78ZT6roFd+TyYDOz84wIRnPPYEOLBAdu6JmPvvbrKntyYtrXLs7ayMWpL68jWwhLD5jGmz/M5v9GLlN/1u/V5zmCXw8QfTkWs7bOknflVvyV7oxYnuWEkErM0ucA0+cIBxAv0JvUbgrZqbdiF5ty8nDGEXXvqL5stuh1iuqyH1fadp0ApIyburMih9QFqp84P29/tq7HPDw1Z260Uqo8apDYQsOhcFkDPUQAlJwM60e5hArvxPK3C1FhroGEgF7EUHEa4JmmBbNiaa3P22GazN3fXkVk5ZI89ErQWGTVK1EgTfH3KJ+J3SOyas2u2E1/bM3b7NFqUwTixf7hHkt8rQ0ZEBVfLM1z7d5jthHyGNtKIjDKIyJoKWGooZicI53luHeJuFezKp9d377MvNxVFV6mdevnuGtzcb77M29//rtt6emssncbBNhawLE63hOijq/LiTb97BJn9E5UDXOkVPM5XUtQwQBYio7I2hox1DBas80TBPj/aZZvXxuy1Z+rslScj9tg6s0eUaFT68+8QmE1H1Tlxdu6i6E879qbs5M96mLmw0IEIu6vnIxTEAqs0NwW24jDJC7GcW3BDxuoS+EO1Zy3Z12HZSJ1t+YtGW/sa13pYlQjTjc5i/r10TIvv08yZQYCuHZD79KDZJ0dzdvx80nr6vZhSLVrXSlIt+SR42Dm72U4F+e6Vt9xIr61CpfT2S6vttV29tmNVwlauitnyZqA0CeoFGCC3WItnCmHLwbBcni6/yQL+PHewg1H79me9du53g5bIN1GURHsxelD9g74u4LK96jPe4tA9XBuxnpFuC5A8sS5WC+udtqVvmG3983qL1c6ZwVzApH04uyYjonMVo+UyOQvBaai19RLWhZ/cXoHc3m5r6wwDfMr/q3lS5FvKQK6Um5muLtR3XYz1KDrzf8vBDu06J5OFhQGSe1isYbnt3DZs33/V7GUMhisbw0RtxLy0U4yhHJsDko1LB2ERA50oN2eUKaBrGbwp0z/WMggjooTZmEmF6Ga7XFHkDiCiMect2TNiwRxcHmJKGj+8KN6QA7dIXT1M2mp0C/CCMx/J6pELlgKjRaTFKJDBo4uaqxdvmP3DBwH75ECPnW9N4zNWyyaIzpedUZx/kJOyKsZa0krX2IJ92EXWsWzeUy2FYkEbHu62A2fCdv5q1P5rS8he3xm2Z9Chb1+TtzWNOauriVhcYyhdwgT2bpE9eLG7cwM7nj8g5+HBCBM2hhGInF2gvhyL5aweZvI6T3CJtfgEOeGE4iUh3EyCUjwz0VND5BEbIFxG2FgFusUze0bnfskiAJlceiNVkHZZegM2RDEbZQb+9b6A/fbTYfv2Ck6+4VqLJ+KWLaQc5x9iM5RLSUHnTMNC+NEQi4dQC6unOXHbrEXnwaOYXD6nMkM20JtjLdbY353vtveXROzR9Wa7t6UpCl7vUspvWBEzhuw7gXdzAzs4tcxI2hUP7uobIkC5wSIJ3E4Ius6J/RUlQTHpYAIEYyvOL1R0ksQUK7OFZQHC/uwAqr5VHqu8yFnkhTW171Fv3K7lt6Ksqo8aO60mfhfQXb9j9uFBZQYesGPncjYwErNCnHmB4UFN3L8SNI2Gd7lwruknQFVU9Wk//d+8v96Kh/pDF3GxwuxEpMWKBeIwKVEnmQWCMbtJZbWrWMO/Pp2wtx+PWMMfBW3FMkpKwnWHQ3WLHvDmBnaiHG4mqSF857D8xCgrl80CbqEcWgH51xHEzOTFrsaBiCksgICUn9LQyH8AoMuTXyxWS5XhcQto+kGsHvGAKeBhGsYnhlFDKcxjDPsH83azs2CHzqTtd19liHgI260uZQfGcMVYB1hgOeZFtT0YCvi2H0mkLiqDWNoArmFqsn5rqYbRTT0CJ/fCrlp7cWvWmhrIItOTsTTuLC0bFj3WzUFn59hgODbEkBy7eQYRNg2A5YmGyEuM5T/t29qFBXcy26pikz/PVVLTLRLStdYvqXNY5yu0H8w0qN51xhQobkxFDYUbu55hXEgwPBw+NmBfkk/u+IWw3ehmI2RuBBnsIJuc9LYz4dxm3I/qgXOmgOKE/bwI+TymcVoEC2x9NGVPrFH924i9vgfXlOV9bGCE6R3P2PUbUfsLPCdq5Sa2iIdybpwdz5yNUHqOdKp52OChEULCiJCoq0e4D8rSigaG7wtMeOX8VyZ+2d28dDvS1aCl49yalojh+2guiWy1LXwKFBmzFKqIHmJXj10wO3Da7MQl9HPi5Lrh5WWEIgUReYLd82gOeM7AlVOWL/yH/m700MumIs2oKq6hRMiHXDbkxkSO8LKcvfM09W5319iO7WFcgQZs775OO3g8ZQeP3EFdFbWf/nSNB3aLmByzBjvtCuLa0iijV7WE7fq1gCWHkyRHjFnX4JDFYw1kXKW0CemwnWMBJ0h/EKsBGOH0PI+UEB7fQ7YBR8e8TLjfEWvPIp4HXtcrqRT0HSDnj9IdYle/OiWdXL8dPhnGZy5sScK6VOBGtVBDMkgRy+q3gCL2nRqjuqM9qPnhgM5JX6TDQv+WCIdwNQnZjo1Re4rEoC/sCtvux1itxLF/802PfX203T79asBOfdtHXHLA1q0M2whlJ61ZtSBpi5S7mzXYKbZRvnQhVUVajz/dIYL9mexZZYTNaGcnrxisWooDE+gGVJdTSyXEjl9Q2A/AFyJAb9maiK3aQgCFerBIifegJu99ua+PTfrL+HSj01aqpV/jSP7PnwzZ7b4axpiMI+h7xCmE0M3l5T7C3PCgbkw/V8W5+zJi425Sqh3VEGaUHYaBWNVUa49vCtr3X0vYs9sG7bENYTIk99rX36TtyNGkHTzYasdOtaODZ03LjyiUQDLDoLgAUtrfLRVnDXZBp+mkUAgZFRq2Fay2MW+9XQAYIJYrxEmySJ4x8o0J5DDEYsnJodNLe/m22FGUlieGYafQgDUOUBx1WbjbJ6mef/cU0KpgzFywPm/Jz2CdOAMfQ0w9dq4Pw0PBziGuDidRQdRIya3Dk4hEWlqIrsof5yuE7r431SvcJQXkDZGDq5YOvRlr+Ja1EXv12bB97+WY86nr647Zx5+12eFTGdv/TYedO9cNw5K1WlyEovUxy6aGLZdKWXLoFqD3tNcbDfUY436XPby/p88a7HxxJILHYc2mgC2Bu7vVgbhK3roM/jpGgsECcUFRMp/kwhGrYV9IKkMKXF8QGTbNX6n21j/FICjKTL5Z1bZwKMBwyDh3u7tgX5/M2m++ytr+0zkbRkrtpLiNFlA8gUpCO73zIOYEZ2lHDCpGzSych/lu9mR8ycZSHo5RcLwIujlUCeLkmmsCtmltHjE1YO++GLLHt7Ip5Uds7yeDtu9An31xuNO+vXCbyIkaHP0pHA4XN5glB2V+yK3NCAzJyDBFi3BNcSZ4jfH4Wy4aIs8a7EofdAWB/E++s8zarl638ywIC/cRKRZBNFXmExJ3klZ6hJUjpegwqyWRoDgxnF7Lyh6r39Rs9fVSlKK4dqJutd1bCmgV0Pz8SmK7lTWVPwWAS6FB4uhu38nZ0TM50p8P2efH09bepygY/LHyERfv7MWvCuj87d2xd7RFugLuLdHvwdVFZyXvBMyQlNSyZGyOx3H/Uh0OxrQOn9cc+rcdcHJPb83YO680kesuY8mBjF29kLQvj9y0jz7rsBMn2uH8aiweVbbPEURXL7MMxdhceraoDIkgxNBA3gb7ifNclvBcjhbpUM8e7EaHjxkO8m/cZfbC26vtTluPDeVjxDvm8cshh52K/RJqEtUKYiFkpc+LECZWl7Etzyy1phUaMuy0SgN1D6ZE9ZLlFIDKPj5pg+ZnB1x8nQT4+ihic/BUyj78agQLa8HuDDeiy9GByg0sLkG6OX+k/Av591iks7+cRIvis9y6WFEO57xxQIBybj61xCGvoPTitjU527Ot0Z7e0WkvPNdkFFezoyf67MixPvtw72W7em0A0VRFfvCGDSttvUCSC6KKciOpfVDzQy5mzJECG51Lgc+NHTOv2y7CIb8LsPMmfhDQ2vkaMXZn6uzEMZYFJe4Mwg8QTgb3a7XEmkRYKMnsCOxzzl5/eqW1UAg4iMSbZCdKhKpJO+/bGvMnqDAODgCbg7XjCHzkXNo+3T9iXx3L240O6VVxEI+SE83JRHp5C6zIwt237lZvVJkC0psH4cQlzoobk7i6aXWNPb6Rgjw7zJ7ZWrBNLX0kxa23YwdSduDoDXv/45t27UaXW5OZHG4nlGsMA47S6Yml95Ojlt9xdHsT04KRYzTjbvmBi+DzXYAd7sJipVlAEaw7e36QsD4CIpMnscpCzFSSJJ1hBNgUBgk4vDxs9prHl9mGV8xWbhO3nUJxWpLMzrEai4Bii62LoqvfijR2+jdcSI5fJAPJAXMFpm93xa0vqVyEaCPiUmxzUIkOTu4LVePDgx98z19O7l4p1EWqMFZjj26O2E9eBeS25a0hOmxdt/vs4y/67czFEfvmSK+dvTAAl05cOr6xBLWjh8O/lbfKO5mDAZEu3RVRGE0L5XGMAlO9wujqIpSrdDKtwLF0Tj14ksy4B3cFdo7w0vsQ9bX5ZTaIgZjFYXlPnmZXAdyM+NkAltlAbdA2P1tv214s2PKnchBORVOw5jmurki5KtDNeNCmPLDSpqFNGZVqko25TeIq6c9/T/rzg6czhHhlADal4WJcSNagYZAeNehqiIy1KtBNSfV7+qMYcsURO06OsLsoOrY1S5pwG8lRSDtpP3iduhMUszpz+rr9/ptOO34mZWcvd9mtO2mOx1OCCIkAjIcM5XLv1xs3ns51iLHXpsYcULys1rMrXqS1LVciDqurieMoLrmZdSvDh1I/LcJ2V2A3zpLaZLblHcixJG+xvXk7f7HWerq7LFobsjWbW+yNn1DlfHvQli2Xc7GaSwZFq6LcvZo3Dvf4J4Po0t5ttv8U1tUv005c7e4jZpWdOsQi0NSV47cXPM6n6pDcqyGZ03W1XpwVHMf9BhiLJzbH7Zn1GYrrmO16tNb6u2/b+58O2fuftNrho302ANOBdMsSi+Psr1tKDaHqZDQnigrTNMg+aCkRgA4TGgrsxjY66WnjpGMLuUSV4B8AGGJTXIztrsCu9IELKLkDZEHd8nrYlj4atddxU+jrXWVxknYuVwpodHs+be92X9DgL27twT2cKiVAJaf3a7hIHTk3bB8eSNrXpwI4AzNxZTwiFtLlG7yHXaleeu4UkLSoJo4ujM57eV2MAjox2/2E2at74raDNTXSP2SnjrXZIYwPv97XD4PRa+mRLD6QiJxiykqSoXrV2Sb2p0C6rSyFyJVVXHV2Q2RCGYU6zo+EKbkAyPKTejPxAovom3kDO5/Ly0fRG6yJWxNJAFcj0uK441pBLLJUBnfhZiJSJ9NJO9ndSloaCgXXLrVl9bCUDzEn4ri3sgk3TCaaa7cDdvjbvH34xaDtPzICyHEQEzdCskwNhbLRuMLmRT7bbfTVtmAogIcWuu6ALasJ2XZcvL73esJ2Y3x4bEvCRsgwc661n4iHAfv881bq6yat/U6/S60Wx+iQwRjoUqwVx3aqLM85wC6d6vB0c+FGHMMznBp34q4MIeLsEokY0oGssp6eb8EQaZYdmTew8++rrLOu1FFZuxuQ8y+Vyqasc7jHmthpWuqWEZXBDvZQsiZjEOcwqvgRX1Dn+PvNuYD98tOMHTiZtlbE1yTZFoJxctBwnGr1+i4kAjhVpvIAb+KYlY9h9fP8UsBJjoBKQFwV75xeDp1ZDENCLU77T23O2nt7QvbGs1Fnae0bzNhx3EcOE9Z19Dic3IUu6+8bpqJYxkmgmgieKkIx6X48cum4jmlhNRfUAnB1+cKADSVbraEGPzJqyUj8NXTt8i6XW2ZKCVbpm+bNYo5xnnewm9/pMP5qNTgrr29Y5YKZw656mUbrXt5xoV67+NDSvyDiZLMBu9UZtZOXzD47TjUp0vKcu5a0kWSBerzszDEpblhMciQe1dMUyedYuoeSiA9kcGXx9Iw9zv7p9inlTVAK9AhZv5c2BMgQHIaDG7Z3X0nYYxuJYBgctE8+wf/xaK8dPtJtF6/1OX/W0ca5XrZv+UMSgy7jA837O7XoKUfkrKqT5wc4nszhRYusy3UnPS6dC8qIITO9XF4W8VRZVGDnRtAxjouv22Mzcx7fMSG7usN29HzOPiYTyX7K5l1uI+FiipT5cNhRl05bIFckXMVblyyair9Xv5wvCijFmZfbT5wc+MKmnccKKk3PhjVR20xyjJd2BO2N53DPWlpnw8Smfk1I1+ETvfbZ3na71o5rFyb1LJFJsRjZnx3H5SXXmH0fPb5SOe3S2U44Nh8U9b33kg+fMC6n2peuibOb/Z0WyhlV1FgoIzFdP8YkV8cNdKGDO3nF7KNDKfv00LDd6Wu0/uEs3gJKlklsI8co9bkn5nsTe7pbVH+/dxSQmOosnYiHSnumz7FozpZS3ObpzaRZerrOXnwS0KNKwSD55A5SMPz0mWE7dLTTTp67iShZC9BgQUdxJl/vDD6RBbgwOYdrkJ0fJDnqgs4RXOY7jfnUTUcE8KfM486i1Fyy2AYC5KHUuQQG5JAY5IbkwtC+A+2BgJ30C4uZHb4/415ENzFezL2R1BCAFrY2OLnLRDmcOJixU60Fu9SVse4RJmVy2MM1ODmp4XIQuIARJ0SqngAWCdUB8Y0R96f/1buUUiBPRaoMGUUSVNdrbohaU32UfHIFe2EHUUV7ora8kfLLXUmSZvbZgSM9dvDoVbtxYxhVhFKjMXZBTOvFKRFUfJhriMICP8duZdG7ncIthGD+0DrUPMXcc5MMg5sjLETp5ORKUiAbEdk6uAdxtfK75NpORyfHY1mEHwhSTNL5OX59Xx/BAzm8890uB0EXMUs8R3pPcZpmsprQTRwZE5zJJn1OF2mWDrPLf308YIe+zdjFtqwNDpFBhgmdKkRInEkuOdXqdYkyWRe8QoggLBOnZwkps8xoNMT0O/4Unaz+NEsKyGFXurNQNGMJfOQ2tATt6ccRVZ8eIZ9c0JY3xa2nM2hffHoN/8deO3Kq2260D2F4IPktCFPA2dsDM//GGr+xjWvst6ANpY+TlytrS2rWy411yia9oa4yZnBQTQqJrfqrHzQPBXjML6I1ZPwabcUNeMobLMAf7yvYiYi3s0myKQStyaumvQBJ8gC65HBOM0xvPJDLa6ceCtiFq2nbezhmv/umkfCfYURV9nDSUgSljyPmp4bdeBkbfRziwjvwpXZ7xb2GbISFNsjkTfE5JtBz96m2+0EBV4xaCn629poEEUQr47aL/I9vPZe2Zx+nZi47f9sV/B/PDpJmqY3g/KR13JZIScIMdHGhmDLNKGSP3k5QlE2nM0KkAAAgAElEQVTUs6pyG/lOOJhrEw7mtam5eb+PKp0g66tEWBW4l1uSNkf51kklksQYkhrGnSWvnGz3g3r35h73Dew0ZinM3FqMWdWogCMZv2PdmwdcNFd1k8ibSZIornSF7ctjZh8cyOJPRVhXP7s8m0QI62ocfUocX6plpOV5NJ6yjYTjvZu9Ou5R/9vgJmsrxOx8PmrtvEIBJmq13UMKeOoDt1kBFPBEVl9bsI2r4vbidtxIHovbK09krDGetXMXeuyT/e129HTSjp8csK7OJDkCPZATN6caHjIYyKAxsZWyWGO/ZzEiFJShRu4ihSHWloCv0vneFbX2CiqGBLg6Kyz56nS+1qcTW0tQLQVblyKJZyYbxclYoWQTe7UYvrkvYOcYCtweRtjpOrL95MCP2xKXBGDywVgMxJtTH0UMXvIOcBu2kyXYCEYyZKTI4wwMyJFP7p9+P2TnrpJLLKmJT0ZoXG2SFDMaiA3bI7EB+9eBm/bHoSv2VPQOjsLsugmcq7NYLWRVY5G8s6TNrg8vsV93r7C/71tlF2pilhwVZUsFoTk9RfWkUgrADQXlBgR3FME9qqkhZs31Q/bsY3X2GoVsHt9SsJbavF25nrFfHbxtn33ZZmfO9uE3h0pHfnUcL/Dx/O89MJvKEbgi8QsJF+CvTOB+evyKxxW/VHVAty4DnqVV4qx3T5yJAbyQ9Hk8T57vw6SBOnGs03ZubZjqkgv+t/sCdo4KUpyrMC+krHGOrA9ZK6riHMop2Fo6Fb4bIjtMZ28S36mEHfk2TTnCYTt5lfxyFJbWDqvNXdQaQVxNwtFtplDRnwZb7X+MXLANUWoYutJsLJMMkxZrHDIMn7lHLA8o3rT/pWbI1hJq9F9xSP00t9qG0OVJjeC1h3CzuQfTTvnecAcmnVnY1i7PEa+atuefCNrLZONuacrZ7Y5++09/32NfHbpjly/3W98AWb3ZkwJk81aCTBkJPORR5zQmE8XUsW5XHjMHVuLSeLlA/mmaE2Epg1pA7HWJANz69M7Tt7pLVs7OTgFMDRIUx0MU1opGpzZ8THPbB/rzfQM7cScJmOOlcCcJt4swoA8T5o3OUR66OJev3TY7dTVkX53OE9I1bBdbs9Y7qDAdMWcEXDM1RqMd0OMsYRd+zdrtzwKXbUMIoOMYUA2A4wSlNZGrlNCxBvCTD0MasaRv0H4UPEeCizq7kaqx01lvd/a6oH8rL54HOisX/M1FM16iNxxQhAp5m9YvtT2Ec72y0+y57XlbsSxlvRTV/XBvL3UebtgXX4mTk4gJgEh/6sjuLQDnLTLaipND4zkKWjp4KgD0ThZn5kXETD+mXjSEHJxxYeE8r2C2fx/PqOLdE3dl+otggIWXeTX9pUsfZkG9v6dgNzaGktm8MntN6JGUVsYbZx3xMCEeuyVqy7bunLXhPrL3q6TtO5Eir1wSIwIVjJhJ4TAiqVtFcAtYwkQhLYYcupwt8dv2Zm2r7QiDkmHpPxk+fKFIGujeOo2y9KJ16GuWAWpR9HStHNt/1d6MddjRQot1p5vs1rjFtaDm4wLqjL+qBTI+0Og7/OTYrNGwueS+tWQGfuyRgv3ZO2Z7njJb0liw7u4h2/clvnIUDj9MacILF3soUsRMV7wqg+n8H/lXV6kkroozQzvLLPCOmwnQ6RivAPbsBrdQkBgLuDn2UlIBE4mcd+qd+x8pQFEU27Y8QhkFflvE++M9BTuRT8tW8r84DlUcU+zsdx7iyuabpHbRYoC60ScvU3f1dMh+83m/XWonYWYfWSawgkVwMdAk82pBadLhH8e/apqHITjhzRH0QOjqnM+V1p3iF0VbcQAKBRO7IF8VkqjazS5MtIgc8j5Oh60xkrE9mS77gB26jZ9lmRWICiurrRIFfP81EcgjUh4OJ0c4ivzcautz9vi6hL1OOOkfvxuzlewr166N2K+/6LbDx7rs+Ok7dqtrhCB77zoBJbCV1ZPhcWDJa3zTgBJRgUU9nboIJx4ltdI67hV3YulkmYQr9XzG35FA1wNbIZissZ4Y66Yvk9aVPeWZYzUJ27iRtEU+46efeZU/wYzv+4AOnB+wK258JIpxjxEpcaAbSyLkBRLr98VGpBmNTRnAeRW35FMYtls9hluBkWLJcCMhDfqZjHUNoxcJpUypwXSqFy85fjh8fkL3b+KolbweKQB0sqwq6ywOw46YejkxVmfwGgDNrnBDLy8Pk5TvWFxL0BE1ZDk/VctR7NjfyYGY0WjN6CA/YWmAUpFZQE6lIpc2ZIlXLdgbO+rsB2+G7dGN5ApsG7L/9n4rhgdADsNDJ87BSpipCAfFlAokYZ0cyPltIkensROHZWQVvuxCwkKhOjbBFpV6uUdN4WqSJDBIIKI6MdU1mSgUTeGJxc3NDW6euuZ1s/hhcf2ZF7DLo9xUweQ0I+V0AbDDYsS9MeJfgZ/TC9yzUVsYVB99PMFXyJBmyBhr9ikAd4aanAcvNhMJofq6Iof8sDxlsreodE7J1ln2RHXhtG0PdFOzg9kmVtFlZ3QX8s4TbfVeyuYUHITSEvuuCwr34fy10du2nILI2P84x5+9C4N0C60XXswpLhjoRSM4BK+rT9j6dXHb/XjAXsDwsLOFbRw/uM8+7bWf/eKqHTxxw9o7RrxwLiQYRTCMpVia+dNJxRMG4HL5W4wujsUCypk05wSs+aOm91O3IC4qCgWTj51efjqn0rPk+pKX5KCN1EcKTTMOWowreV7ATjtWH34+WQY/HGSHQFSt0UIrpcpMgW6ysb0L6k52SQ3snC/rQIazixfwRVXNjX6cgc9fExeXoVrXsJ26wkYg5irSyy4tf6Y8RlNCdNw1NDH9Hk4+SesjaVsf7Ed3x46vw3LFe+v+YgeUpE6ptaU4kDJJ14Q7kJjr+sZvMYak2XqpKbDcRU8+zM3nsiqlm1fKpRCbRn1NAetq1DaujtoLu+pIgU75AaS5VHIEVWje3v/ssv3q91esrZ1C8Dh4h3E7iaBKEEiMuXLMhsqqCaHjWZaoNHK5EYZPoqQGeZqZSn+9Z9JEm3we+b1xmalhUPT8edxmFGOr6IlS1s0ZLsTl0SllaFebai35116of+cF7PRwN0n6F8CMjbeX1cM1UNFguoiVcTTpZWG2ob2/BeEvEpiszKrK7bWCzKmbMxHbHk9gzaXR414Wre7jNh1ewlXSuNFk8ZW/kgdE2QwTxnFPSiutwZx2yowH6HE9LPvgOCk4phz1Ovkj3VfPQI5QrgAlCUmzdDhrxy/w3Qie8CjHQnBWcoEjVL94odlNG9aX3YwtRSJt5nyq5SBaefPfhy1tLtL70REZKfRX64PFJ2VzCMfQrLPeVlupzszLHKICQ6gVXJ2FIGqYtD2xIWTPPdlozz1u+Mph4Gbe9fXm7fT5NDq5Xtt/sM0uUOehj40tAI0VwVLaxsRUAY/PcU1He+/YaHgp8/oazHsbY7mBcVS/Jgc7MX9ulPW3+HJ+dFOA3qjlVokJWBhemJjuo+sIOL38hwL+uroEn2XIQL/M9dWTyXsz3TM+uN/nDezIqmZx504iUVYWJ+koPIJVpIzWPHNgBGC6DVd4aKTPjqcH7BSWxS5onmI3kT/YmkCNrQY4fxhdZc8AWk3QPFJ09XGqwSLViaMuGQLvS3FPqnih3kisnHaAhD+8fC5t0mHRcVwshcNvd3/WbtxKkTk2ZKevBOz0hbSdvZK0zkGMDCiy5UsVKiqmXWLEObbVdKw+eIeJSO4xFMuaeF6jI64//iwsPoBmpQARjs7Z9Yoibi2TW5yCk4If4uaDkYMXwCpcqLUolsk1ywr21Nag/eCVOnuJLCQybF+/OmBHj/XbN8e77eTZLrvTM0T6JSQZZQXRJAaM3N6nzWZCmw3QaZZG2BwlAsstZJhNH/1fkE5MAVzeLXUf716KiJi2ybhF0H8QZsLTLca4BZMC/W7BzRmPx5NeV+s5gKFErUQdP+0tFtoB8wB23qpZjgd3mAUoktRooNyTFlGh9KlLFplEu6PpfjuY6bfP4c0GGKsBAA2IoEyciB20Xogt/d8/DnTYFbSkzyWbLXaFIs4o2ptwtI0AKI4Vx3s8Eow4EToCFxeJUxsTVtDp6BV6w5soWBPR5wpN08PltqTB3bsdUsc7gPT77KMlf9MwT9duReyLY0O291javiakq3c4Am8Lf0soXIE+RMXRsQpQ/1a44+y+6g8vZxJCXRUrFnFcXzQTtcCKwyhAcwpBCOmeWzDviUbiclk2rsylSw2kTChF69vserI4jy41DugJJMY5eIAeNcyrjatS9uS6oL21J2GvvQDIJbJ24UK3/fKXnbbvYLtdupK2nl74cgAhR+RxgY3E6aD539O/zg9ddM1QQOmcpOYY4H5DrAdk5+KKmuwuo/rwaUHRu4Isr/4rKIOXwM+dOx4SPL89Si+Sll3N+QlO1okF/v08gJ08jvK2MphgcMjRJWRgIgR9E5JTsPooMUaNNIuxFbH1cG7IfoNLhEFMtB5WC2BJ9MJP01kLE9KFZEasHxD8uoY6mNc7rP9XSbv+jayKXaRmjzrDyNIVsHsaL/RVysy7pKnGHmlpsiXLatidUfqK0cLaJCtZ+cTXRJGaS2ExYVkuaY0NcWuui1gd+FLLxlqOd93DN+1Gd7PtQ1z96HDE+jNcAGWaMtIn0H3ktesLeNgKw2SgFW28wPC5zYgeUtLfgI6ZAp1BTI3gDCrxNCNcE+BpV6bJM18LI0F4WYYJTPYnnBlYpJmA3WAX7yaDQJ4+STzRqHhPO7c+LaazxnRzkjjYjHPEoLLzrVoWJP15wN59IWh/8GbcWnB3vHx9yH7964v2wafX8ZXrI8qljkSoTCA2CL9weEgTFPpq6Ss/3Uwo6adM10SdMAdFTG1SNMWp6picU0doG57tKE1/vO6fl3qnyJiEsfx6gOdt9B6Iq+5EwYZGkliIUZ3AxqhfnuFl8UHePIAdj88giaMqRDzx1VOmQZeJGOcGU7r1XsKkPgn02lfZQVIUKV+WBlgTR2OLt5GTC7gEomgtfj4rWKxX0t3WWpuxwbVZu7nvlqWuq54CAdDRWotcH3TBymLFJZaEAM2aeJs1NdZaE2l0cogDSlLo6SoKDJ5M7gAZlZhiNbVW38hAEkCtIicSeOvq0rZy+VrbuC5g67bSNyZ2erDB1q7M2KPbcUFoXGVbtmXsR9+rtyd2Bu2XX/bZuas56+0DbKneFSGMS8HZaQAdqPW4gLvYE3vIh3Y59Yj1xs5YQ6jL8qkmjBXEQsJFuupQynrL9R0EQrcw/l2DPHMKDiHNbhyqWWFdnHMn2cDxin+ETgBwnnH7Ljc9nbPdSNGPcUcGtBA0qW9iHNfmqe9QsLcpSbh9E9JCR5/97a/a7ZO9nSTPHMQvchhAjFE3lVRbUkWMMuiyxIpqmqyVRNeJFM1lKVSduuDExkRsA9cq6mL8Q4tAJ62uarSGgk3saZ3MoW7W1UqOKju+7Ba+WO5mr1KqT9MEvOLsxFBoXQQDcmrXGvSajBKargL3FHMpy2arAtFOUtJjT7K2Ry+wAN9MT5WZdpqHF6/gpH0RwhHD4zZKLyF9mMh2PkOgO+DSR1FTxebpP7/5LLmUxmkGZZDFvFLe54jKoRVRS+zG0RFftbabF2xFeIljrQUqAUZCRgglNMwzwwdGALVkn9283e8mu6qfu15xXScuyMk5CACikM4FuuiBeEuPTY+w66fTh+3ZXQn7SfMu+/zTLrt+6Zw9s6PB/s1f7bCjR88BdvWk0F5mPyQ866ktjfarj6gBgcd8e1cKTkpZXeAeRAfAW5jiKYznBi6DkUG7kauztvwKa86PQBN2fPzskk4kFRdJ73FcDaJvyWExaYWfy/N8EZ47A9fdT5qeU8m4tacRax1nAb+3CCds6Vya+H4ibYNwuG7zA0Cam0K2ksCSdcvzjFfM3txjtnV9ilRaQ7Z/f9j+4ecn7MDhdruDoBFO1FiY4tBqSrvEhCnebnquaWK/GKp8tyUzZwHaRgrqtNCnycHLAZEkJWJVleZJriGjt6908dHvZt+3UT0jKhIHflxL81SboGaK1nA/CQu6uxGpmX8h+uU40EU4d+YH7HjwEdJEDyo3Prqzhqi/Q0ykiIiJP61dhpCXGUiqwrHbju0oGjdNWYGRxNNBFeXlMnfYdbpRlPXW8WFp2qK7l1rgU8ydKtfImMjL2+faQjiAukGTLo976Xzn+ye9RLGNAipApEI0Sq1jcIM53RcAjiDypihEMgIb2gc63+ohK3DroC1fErKj3163//C//dye3LXJ3nh5JSm1t1PmbpVtoCr77scabP+xYTvbSo3W3oT1UsdTVdGygNNEaox2Z9o3I/TzOqB+JdJk2wsdNgTXpr0EWHU+w3npkIpXkTZKVl/n7c9/A6EmO5mN26/Sm6wTI0kkK5kdTuU70SYCnPdYyrDLxoWP4fIGyhGuj7gA/Z3klNu6MWirl6MCIPvzmTMjOAPfsQ8/7rcLV7qYM3FATtoHLfQieJTMm7mSLK85yRgqfVM4TBZPN8snASdt/oCKM/Shs3P+mNPe2LuWp4eb/mjvcjpHL+kfleFEc7RoRJP+zvEqSFmpLEV/soCvW0iLts0P2PH4d1ID1suijuKKUYg2WaNPNJ80EE5cnaZQG8edtmHrAwDi2k2c8+JEGgqsILED0XNKTIkuTNJEBI6ldmPU6hrhvjpQu8frbGRksMiteZPfqQq5of5knD5Lu2PJSPGV4+5QsknPl0M3mC466ubSGtRBsC9snX09OARfI1vFEEkMh62maQkiEGL1mmXWl6y3f3z/tL3/8UV7980N9spzO+zNZ1vsxWdqCQUzO3E5aEfPRe3MpbzduA0A8YyawGOtwkNPJIP7JkgA/6nAbbtCFrts5qqNZFKWwjEUzwcSQSpwW30OcQ+4At4rc0UIDiHKd7dIAHAK/75BRKggmS7kw/Xdad5i9Z9HgOJEMDbKGqJM1q6M2itPRuyPXi7Yru3MGYBMcao3rg/jPkJeuX3tdvJMpytTWMOGmSZ5gqeD0zj54+PfY+bjNZ6+8gjA4Zix8PRx2mjkSFUK1KXXhhPFCyEYkopi0KlDwsH6CXo+/x4aernQqLkNnreKHJxp0zrwslwXObZiEIAMFm7N8KqpjzmRfjJ8num9HuRx8wB23uKNoftanoMYECiL/1kODmJUxVFc34Ia6XU3oLAfaxoVAEeLtAhGmrASO3SsWgbuDqGQRcwERkclY0YtIBVvrLc8xaCdnq9YccxZz7mOExmLwKL7yneoUsuxMDRRNBHDThnMRIkpYQ8cXz5m16/z+lmfM2woT1iiJmKJeL3tfK7BNhAydLt1je39+Kb97//HV/bYtjZ7640n7J031xM3GbC3dy2zTqIovrkYt/3Hs3YSRvT8NWrf9ovrkigp9wIvo618tfT8Bc+rVA9U7K43ieWSkM/V2EfJpba1Zqc9Y4fYXDJYr7EaQ7uY9HCIsOIBAuJQeYIIlsYOaNATSdmp4Z3WSbIBwZzznh8bnUpkWRTf+Ur+gFhbzQvEPo2hjAlrlgfhtrP22i4K2jyJv2Yzacvx2jlFssxz5wbtMNmBT568TfFwOcPLsERG55Snx9WKVmGcLMazdLbVqURq46QzcX4XGpfZgZ4L0IfmQay+gWAjHBRro2Tj9fVtpUQXZxfG5SSd7WKuDOIZ0EyflByifGi8/hTgzBRHm8/1MfY49084rvw8AaPmnrfx5WEo5GtXcP1SSUWuy3rT2qolemTV2ibLUKBe/ZoNkE6864P7Zh7ATsQpkLoJZTkLSCATUhUk90xFtCrhfTU0kXG4ow9wdvgGeRMAUBGRlVur6Asi+suPLwpXkpbeTXVjYanjBLqn0T3lXQbku2vlPlKyVDkQpYl713qqrcFdGvH25o2b9vEH121LO4YB0syn8KEp4LN06vwdu3D9Yzi9uL20e7298sxme3LHSnsJt/vv7w7bpTaSABwlOSelAg6cLditPnGTmpiUPnTPqhhFbgZiy3pbuqSikCkEQLYP19lh9JSbDOVTocdFU2TR19ERp17OQv+Ec7/B1QbLq7KpXAmstBuZeow+ElHkcuKPy93R7P6d7U2YUgumU6zznxs3ceTQL804tKBKePOpqL37UsheeJLqXU0clYzYiQO3yPw8ZCfO9OIM3GM9Pf1Oz6t47iBzNyQuZnRD1P1Y+ABBOneT+ZXCPLCd+YBVfQYgUokuOTg0l2tOujrn5jF21MThYP6j2gmSDo2oaqaDV9NV9SAma9o49buz+Ev8mUlzorqazFWe6mfc0iz+VlsrXzz6xJJ0v8+RBsWbPbA/8wB23tOH5eMmfNLkcct08gXlCOYmVnES885zcvU+y9yteFt3GIs+J/DTMUQB5FnEBcoFJpOlnCD3mjAA5cM2u93YBzrXCVoGnUvDkiarrW0iqP+GXb08jF9dGxN4iB3P08MIxOVoehUrcXv7Zfvow0v26NZl9uIL623Pni22fetS++kfJOwF6oJ+RfGcgyQGONcWsbauuLXd7kI81aID1JzbzpgOTvd3jp14MV7FZ+cr7rHFNthORG2p0AMo4ZXqPsX9nQMzE17FkodRhl/JrLR9wc3WjSVN4p3jghZpk8GqIMPMaNO8kFGpDj1bmjxyBXt3d7394Vth27SKqJqegH2xP0tx6W+JerhlV0n3khoexpVCJjJFDsg3U/oxb/KMDx3z51+maMlHrYFEImCaLeCpjwWl4WJcInBrEdV6KFkelUZEwCVR1q0Rp3aodNQYJfyMJZ6iSN9r/k99jo7yrLL+WnE9La5K/xrcXv5UMB8KdRy97IT1NtaXhfpunsCOx+PhRVonRpWQa/TBKxLHK9MmcVcLseAQRiIegysRz9dDaNfRHBe34w6ROVzcj/eStc19fw+bul+HqF5XV4vRIm3NzTX0SVwoRhmqUbvJBtcpy7L6OogxZSQVto6Dt3A4bretv79kzzyzzl54gdeza+wPnyvYj3Y32rkbRhp2s2Pfhkj/RDRGZxYXBTlBy/Il3Y28miilA/jnkOuTcAVn03X2GbnptuBa04jukyVr3cRRRgGyIJuB3F7SuONcG1hmX+XX296RFVYHgcaArnwjuIeEm8dLawxy0q/CkGjsw9CnCY+JFzYl7aWd9fbeWyF7bC3GpK5hp4v78mDejpBO/Hp7u/VRw0P+iY6LkzgJaoXZVKQPU0YTg2sLelWMmHuayUmOUVa5hPN3y+cISAwTqsf4zgXwfFE1iOuLB2BjoO3r28brlHGul+hKeq4MbisFkhFM3NDvlrg8p551dO14K3j8VZkrbAZZykBKenAJJHSKdIMMSMjp9/i64vq+2/7N7/nzB3beEBZ7V/bkxY+OJvwj+jwK0c7kh20QLkW6iHAKY0ExLTTeIE5nJ0Wxsi5IrC04cZUFD2ULTIC+yx020D2ICCjA8axV5Y6a80UqYbDuEI/HicyIUMQYt5bBLqvF104uBBKnnNFezroAk1JZK1DNcSIsmCF0jKcudtq3lzrs/U9P2M4da+zV3Y/ZtnVhW7+21v7qnbX2zgvNtv+k2cf7BxF18a/icmk2APgKnjEKkAGi5KRLpHE7QQ/4Sc2jsJtLSNH+pW3BX3FJqN4SuWGrxT2nl4X51fBa+4jXoexyaySVdtIw4MwXQe7TdXwOKgiIC/Rd2nFUGDmMYKjv7YXtiKwvJ+yHr5htWYfR4WbafvF+t319qMs++fwSLiQqRak5w/ihM5PvpbPjMGf0fSo5AI2vsXDRxYa2An51jOKY8cYVpXb+bSRgYK5KRJTpZ+bN21RyjMtcWtDdP8a8V1ClGACBUeWNKss9stkeJ/pGQsjyjvWYTRt/vLhcVwYSmmfkncCGbhhMnGqJTUL/OQFEbZFMrNmM3GwoN/mxEEbDtSYatcZshFoLuMHCFGVJS+SLERlqX8pwoOYqkgN2ytoRYqZmIXYeri7bjtPFsEQYD0DvNcGdZZjdLQhnsWQp4qyKgDKhnFFhHFepfntf+DpocWg5XFjkCHKLNMFdt9vt2JE22/xI1Lasb7Ztm9bY93+40/703WW2a2ud/bIlaV8Ti3mzu46aEQkbRq83AmAWMDhEIg0WIVysE2PQZ7J5BzfY85E+e635JiBXY19319jx8A47kF5r19H7ZABgqQRkbfMswYtjZgqUtNFJl5SVgYo5Ih/OJXVR274qbW8+V2PvvRpjsyCf3I1++9v/eMMOH79jR0/22LV2rOZ1REsX0TJUzObhD5PHZckKr0SZrW6exUJrmH8CFA0fM9SBImAjjp1xzrnkFBSoLHOTcidP22QtF+TK2X28m9Xkp8KlEzYmwAOWnb+dy1PgVs9kQDbZ95PdRcf75/DXgenE+ZFFx5RUim2tNj/nHcTEjRUvjGFrCSUwoEw8b7K7Pqjv7z/YFZ90IxETLeywN+FUkhAtm2YxMjk1EdPi7EY3MHYWcdASc6WrQ+TIjeD6i+tAYFAEllghpfu9Jnbe+vt7eXXZpm3NiLHN1j3I4hDX57Pyk4yiE0/gHqREdml02C1DCRIdENJ2E8C++lWbXWlP2h+887g9/vhK++ufxu11LIinrsbtyAUyqeDf1965hCLI0Ad6pa2TZCtL7RqT7xeFzXYch+ORrS30I2G/ovTioZ6lNoQeTwHd9c6tB4Jy7xyWysVSO9blUaNF2VwaEnE2hYjjhHduDNjT2zNsECFX4+Ef/qHVPvjwhp36ts/6B/AC4AEjcTkSs2GKE3PgIkPGeI5IUoAXHcvPJFYIq0Jb0Ro/NoxEBikvnVOpyLnXV+hPMtAVv/bBBPOddHWuFb8b16eJQOWBLcYBx1Uq75wmW8WbuN8qpauqfPTYtzrPuyQSiVOZCOQ1X4tuJ+otX8bdukzjI5u3XhiTg4M37XJ6yBp5hn/Z8ii1iz0H7Onu9yB/fyBgJ+KuZBE2SieCvJYVkAz21k8AACAASURBVCGa5qXv4rcscab+EIg4cpiVBVaplDJEDWSGc9Y4TNwnY++pU6VLcNvePWsubIbdbRgFt0CkoaEBsAN0nNuCVyFKXOhkLeRcS3heefMzmRoaA/bci49YY3OdnTh+y375wbd28caAvbB7g736ImFqm2ps19Nxe7sjYxeuJoi/jdu5q+ijOqLW2yvngiiJEPLWHV1hZ0eG7WZkuS3dusZuXcTfsU9Al4e+aedWAf/iFqzu6/gCJq6b5Pd8g5iMGlN/L3VFEMXnEmKTt8oZeFvI3nw+ZE9uDlhTfAQrdhJ1wJD9/n1qr5KJpLVjAF0q2XSp7hUD5MTvy2/Sa3hqjme93dfegsYnNF8PIEIvp4Aq6Zd0c7LIKygfnagss76bxtS9n/irc/Fwfp7iFLmP46Bm0jyA9nV6k3N0upZ3rK7vxe9Oc336oPmqeVGQgzreDpNxjWI2ruPH2oba6By5xs719drXI3fs+mCPPVO7zH66Bn1CSVNMeGBUxp2mH/fx5wcCdhqWRmTXl1Gin60jEeKdfqtLJxwHpxCmDIr/rAbCEUK7MrswHF1EHBHe3Ilj3TbSKY90+ZXNbOL4+p+50lYLRpN2eGAY7qzRJRVwtitnlPD0c1NeuygaZdF/aFoN97fYV3sJBmnpxykah+V0zI6c7LAzF7ts34Hr9sSOFbbn6bX2xLaV9tZLzfY2eqnDp4ax4AbsyLmVdul8wTp6UtaQwQeLELKb7Vlr2ZC1VYh5R3FFWYNbygjuMAr698jIghMoT47HU3b/3v1YXNBscJGElN4pkmbm7LH1NfYyTsBvPJNFtI9gkMrZWfzjjp+5aYe+6bLTZztJoNlpUYwGNZS+kvtRACfwrAM5f05IfKz0wN49JRaHsTDm4ZyyGJ1CiLVj7h2eNVxFjxhwF10wl+ZzW/obZqPzuUOPc/X65m06xXGqdBMBk+O0QOPRx3HblnvJmqzY3YCScDIXnZ3PXc4/Ru91rD4X6V3kUmWCyRIu6fwdmKPBol5QmYt1Ga2bnqE++/vr52wEqaaV87rhcgf4GyQJRzsb6aWeO7Zi5Vp3zxHp93gTRrJYaO3+98gfU8STDXhk72SiXosOQFB/dwkBdgyMgE0+dcVdUFlVpbcK30xZ+lrWkgodcG1mYHe3hFe4j1oYS576MjAg3ycA2QeTGdzA5/x0TkdnJzG7HW5iBnGW85xrQoBewY6S4vs0IWl7957EXWUl8bnr7KUX1trzT621lwlav9FpWBkDtv9wyL45QdjdTbMLt6O2Cz+8R5tDdpgsMn3EPIWKejr5kMmIU9oWClfnRCepL5gPBbLYPLk1YT9+q8FFPWxZw2/oi06e7KYc4S07dKIPX8VOxFepD7BBEwYnTtlDADY/xkjPVRngKgwQdHE1IhjatDaNsCywZb5sbv7purK4a7l48216i6wHKt7xcgcqfpZvm3s/A5EYCSJYFH0dd6j5VuEx9JUv5nop96df1i4szMXceo7oTh0ELUr3BkdL/gsDtAdvt9oIle8K+LYGkLJU71ZgKMnsxBCJKQZw+0e8bYQJ2FqnBLMLr01PlXnsswbK33SIR7dNmPr3kB3xcG2/dXWii5LowAYa1u4EKyzblyfYot9i4HuHUxZvJUNDO/oD9HVu+jiPTI/w89jVCZfSRJMwUkNwuCSRzq5OjFOy7k02/SZcYtwXLuWTM74wgcW5asVxBynTs9Ahi7h+5kIf8ZrddgBjxt79q2wPoWiP71xmj2xI2DtvrSfvWsS+PRW2T74cwjqsKNm4DVF57M5QLz6BKxxp/Gy1zpo5urtP3bf7+auU36JFS9NtEmY22k/earI9SEUj/X124mS/fXmoh5qrPc5he0RFihIsKkpEinvwLLNFkZQNRGPkrIgzGBIHiNBZBgNUwVzEt3aOf/oIVm4BncAkh1U0HBpbyG7qTdM0f9N53FYEmtxvnLisyT5F3K2AKEIcbRJdrXSGU2/sniOxE2MdKE/d/BRP7lgHvh6oj52lz55xJoZaYYD+h4l5j+E6E9BawFoySMjiAE71v++47PJLPtG0whpJIrkQuTo91/RUmZpmc/5VbhlCjW1YNXc1N9o1ssH2kO4pnaWurGR+rJfaVcjs5ABP3uuB1j4bucSES0nprMG9P1ydHtKbRGRbwfUkwCRN40cXh42Xzs7fw2dKDBe7SXPuNXA0GRWzpsmA4f66fzXV4CJZD93debi9ITtw6CARAYbrClmbn71hL+C3t3vXGnvlxTo7eRE/QDbrENECq2vQX0G7ITYIeBX663HIs+1nsRt3/cfn3sTFSh8nPaKSYCqobVl9liD9sP3bH8XJKdfsUqIfRw/32f422/91u529mIXrh19RMtYa6IP7iBKWOnckoZpjReQm4XXTcz+aHoXGKfNxa5LOaoLezl1S6bmwiObJ51aUMmZDEK8eq0d5T2dXNFLM4Fqac3IlUTRFnizK0hkG5NhboXm58ir84L7y18nYDPBTPLlfnfFF+jtxdjKEjB2nPshlJxtLk6cR0JXOWe4obM4jTM56OM8a0rDtalxhzzWttiUYHheK1FBOjbAmjZo3SWawJZZfYZaf3QYHYeMoMOVHFqBi/VMsylPRgJ0lDVF3khAdPkdZDCH0KFFE3UKIlNmn0M9cGrDMbdw9UZaGuYb+G2Os/J1olh2a8eEKx8EqBwsvUErgcye9i4QALS1/b5zp5eQI7bhFXU+imGjhWAW4EweGQRISs9BYxVrUQ8N9LMaQtbYpOqOd2M4OO/58rz3z9B3buCFmr299wprWB62OtZAvrLAjFwftxFXCy7rQEaLvyitBA75mEknkviPCObCg3evJ6bgtjZVEaTItK9HymqVxe2JrkjRLIXsPjm7ViqAdO9Fj+75ohZPrBORuW3fvIBsCKZHi+BkyDxSj6ocGqueu9xU5ax9cxkBvvGirSaiNxRNZXZUtRwvOG13o3rpQxmBl8s0V8LXDfzEfGnJGixm30ZAsnSHeQn0bA5OpryMdmrIW07dpoij8jXLq6038VT6G4qy9jNeT9UsAPYRmCaCDpMPM01QmaVui9fb2knX2ztJH7K2VGzyOWiS/9zAy8UFm8A25eb0FO4Nj5+UQcUIi7lD/kLX2dFoP4kqK796kgn2sIWUnOtnBSIs0GGq0OEVqIlhib7cPWZjiJrk23AnI3e4yALumCVlKWW+CzktHyy6iPmtDEPjIcKeMKH6Eh3/oTAGvErhM/E4TULTi6k69w9W5d1glwmidAxnbj8vKcaIzmhqD9v7Wa/bjnzxuL7+42f7tH5v9uKfOTp3N2NEzeTt2pc6OkNAgOSifNfy15ATP80zNDZQRYJYfvc2TkwToiKoZiBbEELCEWNVnHovYH7yasO9heFmHVHid4tL/+f/L2fsfncfwcAWRXGMKQIbI0gLnq3xyOeU9dMBWaYwrL1Ivpbjf8dJzRVttlMx9fMScRdIt+jFwHHtcuZ/UoUcmRtUlfxWXPFNieH31jRISGUfHuQxUJ7+iRGiJsdPdW9bjGXds/O1GxVh9rT6X0ZPfa5Urks2mh/mzhCOerlthry7faC8tXWvLY7h4e0M2C9pM/sT36pew4k4jxYwh9+om5dfVpDp9FQ93fMaU/245PjrPbtxgK7Ij9khDj93pJy1ROs6uTrQCPmbf7rtkjXjHJ3pRjioX2xwtY+X9mM3nAFxWLOb5bKXTUymXZwp5M7l76aSD82MeuiQJrEnt5MP4PXXjW3apPY1O67pFayOI1s3W13fFVi5bY68/02JvPY9e7xIFur81+/xE2o6eHyEWF0sa3IpSW/n+jJ5YVwlIZtLP8cc4jpUFqqSiQSzDTYkA4nfWtsF5vvFcxN7cHbdNj4Ts6rVO+9v3e+yjvbftm6PdNjg8RBwmqcJdpgj1RfGhSi6hnDcKI0Smd+LfGF2cNb5E7FJP5OahqAUp6yUCOitmKUhqs9JnVqjiatXfTE657HywGxtDhDiuoXRM3uYwe187gSiiofMu8I0fM6ezEsAKxPQ8lcG4lPZevwXc3jOX/ua/rwBmTtwqNcyMHaN7a1Mc4b/sUMa2L11ju5uW2Tsr1tuOuuVE7sTwbSyC7ByxtlIv78V3YUd2DfJcd4U59EoEbKhvQDdbTzRAzJpJi74a2WZ9bbM93dhsh8mKGkDcSREhcPxKHs948nlFMVooioCB0URVVIDCWe5Hc5wcU9XVr3AWKy0KcV3iDsZGWHpI9xGRA5PKqB5ptn3U/XR9Tw/lP6P/V2YGpeTESdiJYkACur8QSvQbdzpJLNpqBw6ctc47B0lAsM1ef3kjmVea7X9+stleAmj2H0f/dzZMFTScmTvyNoy6SqK4J8bMtqfjj1dKfHG74rwjyDtN5BvcvjFhzz8RsnVkFn/5yZSr3tVPtpdff9Bhv/+ozb48fMtu3Saul3kQJS+huB/llHPRChLjoWkBdxQfhxxpnKhUBLkircZ6ovEhYWrmOmNVg9WQ8pNUy5U+qhTwxNX5hbAdrSflGseujPA27hrjn778kw9oEuA9oPJEzcpzttw1SvNKZ3rzDY7cGSiEzzJmSQ87dj/nxkIol7+W9debGeV9mvyzFxc8HggF7M4MCP2bsbI+2bzCfvjIU7ZnxSpbC4MS9R+xpC+T3+HB/xJWthLX3AS69x1S6JQm2WNbtlQckPV0YX0z0d30hcQmtoLMwH8zhKURq1QOvV7Amc7U5Pt0/zBaky5KubEwCzBDAaDBwQEAGO4T1sjlARP5mBzK6trYFLTlq+LWtCRoHTcziOHUEyjcGUfccgdkcY0jeKRrYsVR+CbJbuLNJX9GFU/XIiguTMVMKiGFpnYOJ8Vh6tZGa3DWxlH5/fcvUxEriQ7sir32ynp747Wt9uxTTbbrXzTZhdac7TuSt/2n0uTaI/UUOfaU0zMEtyerrSv04gBA3IjfyvpR/FoLQrq0KOF/cqmJc0JjbRBH4CaykJjteYL6DhvJBxcjjT5hXb/61ZAd/GbA9n3dZh3dSQCbbYHnVZN1Vela3TP581I9AekcIPvNcXfFVmHDk151KHWWTQARNPgSoCnBq3L/xS0qejZUmMRdwqkSPB870VubQjkwjXWm9J1CHD0dnedTp3k7Eeimu5bmnZvrRbCrfC+tA+mUBY96Tv9Z/b/+fUu/13fqk5yKNackLosj9DYBNw+Y1DnFJTdF7c/WbbC3tz8KM9LkRsKBqS6hiX+fsEO3vJumolteuw9A526kjYL/ptt5RL8YBy1fQWUn9AXO6VMprVlQIbfbe5PA7/6ojsj/Yp7/KptICEdJAV6G0o8ZeUBL4V+szaidWEAeTsRs46bl9id/0Wwtq5bbB789a7/7ZQdGlck7JNBWHVL5lAVIGKqMLgH53glIRYiyJq+80ca5okQoUo9F+w4pjHpty6bNJFy8bD246nSeGbDzVzudn9rzu1vs9TcfsScebbQ//6MWexcR9yQi7idHU/btubRdvBmwrn7PcKR7KCeei7rgpegWv0n0lU+WSzUuqzlrJszfJSTI3LGlxl58KmyvPIXVeCPLjhVzEkfgk2cwPhzotzNnB+xWZwodGEKd6kPwgErKWuExR+/nxtY/oAK4ldMnh5VQIqMHMv488QCr/Fhx586tJNBT/pP3mfuJ2xTgBoqJLisfOMm3Tjx0I+Su44mFUz3t+OsIwJxOUY5PPntb4Vae2Kr7TH1c+ameZCK5Rf0cm1fOS4CQpbxANJa1P8AAsYP0ZqPuGzr0fmFGeafn+NlLaLrQkLlIREdPFlyC2MgRagQWqNqlnSeYwbLIBBqreH5/KO/CmJgE4mK046oKlCaL08egt/CqmsVs2bJl9ta7mwBn6t52b7Kj+Ipdu+yJIZOOE9xhHW44a1YAMqSPuoQrTlbxcNJTzaDJvWSQtMU3b/bb1q2PEI4Wtyx1TvMBMnmgNzt/tduOnDhrR09vsb/8yzfgmM9aTTRnzz6xyV5+ocFacV355kLKDpxE/3cxaFdv5qG5uCp0ZYyHE6uc7kuG45wlcDEYoepUgRogtfX19jIc3Cs7Q2QGhpNbCzZxzMEDrQBchx05NWTnL/ZSkwNup7hcVPJjbLFokXKtiotHsKvoAMYY4JBoOrYoK9NGEQXiuB3X6cCsqF4opaO4LvebZzATnvqeCeXkDrm0TDqc6/F3uo26/Hyvv+wIRLTMtikRgNdKNrhJLqJNQZFHc2ml6hjvfKlKvHGPUZp0FU8d1aX18okwt1vNpXvzco4H1BUn2bxcf24XgYiapAodq2+qtaee2mGHj5xyCuosugMMoWKqPCNlKZczt7vN6CxxMTmSh6oJ7CIYVsTpuQmmxcTUUFWvFL6CQ4NJQE6+YQUsjbfIitvHWVJyV26aO2GU4Bu2NNsP/+RRRIdW+9n/nSWMrttixHvOpCVTvUh+63BLKdiWLVjMmsNYukecKGIqYI4LQwjrZpr6H5dbic74gipaJFN46rFOe+6ZJfY4aae+91I9vnv1dvay2d4DSUAqadduUgMEZ8c8nKYneosLCGAxRa/Kwlr3SKO992LI/s1bBVu7GgeFgUH7cF+HnTiF1/03dwDtEYwobBJYPcWRs1ewSZRyIP4i9gCv9Fm1AAWs2VwvtO0B8FaQO1Dc4FQ00YakZ+afUU6oDCgcdyiOSbHKOIm7FKiTrVw97xhIKXpmdmine3lNYr6nOyx9ysnfe9ZyRHiIlnXctYwklfvp+fPpWtODYvkd3TWdaqD0XOXwgz64/KQLlJVEfbSyiBNFVfFiY+wenFNxOcHLPwfZ5sOIOI1Lh+xf/qsWChdftTud+JpRw5MZw3xT/QamKIPk/LjuMWCLO1CImKc8z1vzkkZL4r8mbkOTWHU104jaShV/4dIN+7/+z6gtX7bO9n8xYl13SJM+xfp0S5+JlcHTfrhA6M0QHJmqXU/yUOWGEQeWAuBYBw7IWCCjffbULkAL1IrEljndovKx1VBLoPUGxoFfUJ2MXG493X125Nuj9v5edKgbN9vOJ1psz3M4LG9psWe3ZOzspXrbexT3FSy4h68SItcj0xAPQq3eDcub4eKUGRhu7nk2AMbr6wNdOANftYOkWrpKHd9hIh7kkCrRXwtWrJzS72tNed5DUsCXj/zYZ7kbyq8uk8WZPHke/7yQxVS9fkKxmvFASUIit3g9kKrkkuGBne6k/ilqJVeYzNopzk8qCqyOhRH6Lz3XTFrJgwlI1J8iZzyTs3WMOGmlBnNctdN1e7rUcsAUF1vch2d66QrHeX2U0U/ZYFS4qcAGPzw4aC8vXWaJ2hrnSKxiV0I5t9zu8Zqr0Mm7+mqKJXhX173rk132WHbeSKzOGmrr7GniQj/5FNEOK602dgFhUJ743Ole6+v0MLIMZphRg1RtaSavXHNz1NZurIWzWU4Blzt2+uQtyyB2Sszu6xuw3//uKOL3eSyPKRfy4+2alXdd6eW0DtraB+y3f3eMkMUgCUJVHhJXl6IYK4DzRTIvKFyhTmMLWRXuU+gRr7d2k/UkYE88ucW+3Ndm7R1MWrgyVy6SRTGCe0crz+DmLOtRl7/WOoQx46R9euCcPfrpUnvx+XX29BON9uKLj2HJJeNxe96+OpawTw72UgMjhcGh1t59MmovI7K2NOa455D97Oc37eCRO3aNzC39w8RQyq0D8UeGBS+4XNy6jBkKy9LYylm3kkBYBlxOFIVDJaNwkCLscpnxdGCTTDHHoRARINXClIvRGws/qiGAa8VUTZELBepIyIDkjeUUKD3uQmzGSrEFwkuEd4BXmTmbeHtEbS+iQRJF8dyJR0EbPct4ulU4bOqv1C1Ha8BVTAS9daIt321fvQodtUcvx1hq0VUauqnv8MB/XbBgF0E/p7oUXVjsTh6/bS++vNqOHrtJTCoWS/UaOVYJPd3AlFrn7hFJw+gOVYFpmCrxtbUt9oMfP2K7nltvGzauskOHLgNqGUCD4iyAdJrko5p8GRLzuQSULuBai14LsPIKpGKEjfRwjS7VFmWSA0wSjf114fSBxXOdUp3rykFbopoDe+epH6Qfabt8sc9ef32jPY4+rqv7MhxJFqAmy3GEws+qV5Eepm9kp0Dv5mr1AJqxRAjn7oKdON9hF6/fsU8/X2LPfXXL3np1sz37zAb7d38aJvPKSgek6zBuNhG2duVyt33yYa/tIzPwIbIrJ4l+UX1cjY+MG25VOxFJi0YDI0PEoOPU5D4TIc5UDrsTwWv8wnUGB2UadtkrPZDxjCZTDHbRiuop9ScDJg8kPADSxqG+iqbjj/cWvSadgMuPUZ3smuV9EmdYUsZziljYCWdqgwMocxhGvKpelVUh4zk7PZMHTOXXq/jZrR1Famis3GRwnz2Ha0qWyt1KHDU5Aj1jScWrLIovFyzYKR+ZvHxu3Lht+/Ydsn//1+/Yc08/Yh9/dM65WQQwrYSc4g7Rit1oEolv3gYhlSIBQUz6uYwtXbLEfvTTNdayejVKena+nXX24ku77NY/t8P2U9YwJq98BaYLgLwAdW/h+wtk/GLWJ3FrYWpMyGIXjhPtkFQWGA/AJCZLPyj3FN8oImuw+qS4Wk/ngsGEQO0A6bFOnbplu59fb089vZmwMuovkFFGlk/pPIU9LgOKc+0AcrivCvzIb9Ft1vwzhOHhNIVvL9/oAMRu2tOPt9offm+bvfLOBnt8PammjnXY//NfT9rZ80bEw4B1UtgmjOk8IDBysqeyTktE1CLSRX0QUSSAKqq18WSKx1wPdSiWMxluFEGnQFzojBewO4dpXQZY6sX45gGCxsmNFSZxlSws4IKiTaa0qW6Eq/fq9hZ0tzyfl/24/JoVPhN364mfwvzZskOKI+5154ddpbHKzc/qTYpNDhDnXNlwM+FsbQjaMF0b/8xu7jqRg5/wG426BBjaVPnsNq7F1yYHOz2QcwkgRAu5UbL8nAClnDCVGZsJlHP+eFo3uSV26Rwcx8mb9sbbS+3SxQwA2IQ4O4IoBsciFxDmUNBPFz3hSnf/hcZ8mJqZdYjT4UTUVqxL8X4VYEM9WTiutesabc9raTt3casd+voy/dbO6AGdp6vxAa/YF5AgmUT/gliGCy3525YAALL0YWWWEQZP31os0F2ZTnuyZsie34Bz7pJeWwH3FQ2MYJuEuyX/XzdhdUfuNNnhjjV2oT9IUZlhZzy5cu227d9/wV5+Za1t2LzUvj54gVheamUwsV1+OxZdCP8pZfJ1QCuLnwNmr3k+hdJjwb3dHLTrHYfsWq7DmjbU2GbS9/z8l3n7f3+uhU+MMjMoQEpulxBBlnK9irnMXJiTxp9F5aka5JOomGL0m5kbOBKvg2vwOKbJRsnbNORUXD6Rxs4Yx+U5zsx39/DijVUD1fVjkqY6E4EAKpJCO31rcXq80qb4WIGbUx/wnHJ0FiM0syY6+yLy5Mut/FreduhxwvrNSzFVCpbl3Jt+K/+u/Kqln7W+eAg3Nrrb+GdWZnBtrHKU7yEOVpv6EuafmvYzh4Ol+DjDdT1Vj+71b5NSX5bQAfQkQ+x2cjhsxo8LfmX2/ZnDKe4mENIPsQ/DxR05fM1Wk/75e+89Zf/xP30NsYnAIDA+UUdt1NHixrPv3kzPiOKRKF1hDUHpDTXLSAF+zuqbqfFANpa+QdLdDGLppGiQrId5gAtjrdfYJLx16hFCizaEtWLVshW2pAX3DmJcWy8DmpGEx4wgmgt3hoYH7Nmlvfanjw3aj3fkrCWSxN+Qa6gaUVA7N3oxgvuvEG1y/vZl+88XV9k3XVG7wboqpEJsDtfg7FrsxdfXk0XkotPrSLJ02APg5eiXS4Mv/lkAOLp4+b4EGVQ8Op9rsFvfDNnQtQHLb1+BuN5BcoE6RF+BuvRR6NNGxfPxHIIjAvfy/fRk/fTCr9QRiWcemfRvZUOTRHkvJXm5Yl4uJn769rGrlL7TBq0p7qU/EkPrtTFQUHHpQJFrknN0RcBQyjGFjDlucTaAomOLVuxJ1sGkoFk8viCg5P6hYBPPUlmMHXtizQvds8IYjB1U4d3E42UY0mYnH9ChIULFuKymhSpxarqIyZDvqa+WWYC5Oic858SnLB6iqlZ9WPA6KOPWke4nmkGT+v434haYYwW7fAmr4LFW27QFLuq5pZbGmhiL1btF5nu438veubA2PMmXNtTbrSuDdvVKj6GHJ76z2/Z+csV+/ctjdvHCDRT+ArrK/lQCFS3oBGqq51+rt7/+X7eTmr3FpTzSTunrlxpiBdu2vNv+/Y4++x8eHSBemMSScnISyAkdVOVJySQxfGxaRVD9k/32H3bdtn+37Q5xi0RgZNJ2pXUAR95O27axwdWrlWipItDazbUcNEklujogGcf2eNyQdDY6xrnbcO7NwRvWj65PbgcBFl4isYTIhwbAZhKAqDgYRaAoRhYYXKqXDlwHTwQRORy7hTsb/7Si+OqlMPKsmE4PV7Hp2gJs0bMEJCYcr2M89HH6w1mLo7q5z5VNuuQm9pB+qNSjq5EBzR2Xq31J4+b+jr28kyd7zomXdt8oGmSUo9e52hg8/kcg5zYf6NPVofA9b8OY5EqL4utJOTu3+HgEVZGHyYfJLW41s3isUWah7JyZXWn82alkyI4dbbU1LSjK33qGKl1H7Qp+YqpuHxrHT8+ig7M4VLqxXLEWxtVzrfbzT27a2k191nptmKiAtLVeP28p8q65sCkWaGWpy1tQEnE3bF5pW7avsYOf3wBsUgBIDTspHl9snRsBrFc399q/fpwU9GQ0MZz7c5FhFxQvM+oAMzES7AHzllHiroFZGbYnt/TaUupaRCN5+5v0arveHbKvv75qz+9ssHff2WXXru21QVJoSexWphs1LVoZeSZv9FcLiwkfApcU2K8cCJGwOAwBlcBijHMa4yi8RVeJa5FuTADrgZu/OCdfpF4iSrm8eGeo705sLZtEPtcmQFdxowB6rtEi0x68T/KY/7IrzQAAIABJREFUAjKxvBqzyYBbG4A2MEUy+Bm1K+eVq3yTWQBc8QLOsMVIyRKtfokjvrettI9Uc8N4JRrLp/IOYJdKKmQNtYczPHneCYqkmQMs3NvHmOLqk4KdJkBTIU7RFmCOB1Rx4Slb2XwtnYz+e7dR09x+XYplleYCaCHAkFhYj4f+EJmB+wll2v95m/3oR+vtj360x/7mbz9wxY9jZK6910QPQYcMwbp5fOky6Nt+8fOTWKhIbQOn5Uo9ImLgTsZfOu38oSo1iVXEA1BO7RTA3dcXt0P7hwA7BbzrXMXemm1s6LT/afstrKcsvlStZZfVWnh4DJSIHGYD3kAQqsyiK1FRPWqBK1/Y6pXD9q8KfdbVV2v/JbmcOqod9sWXZ+1HP36HmhbbbN+X56y2gRhIwEbWUJe9uDIql3TeG5wR9KODKapJcfN4bHJwGjtRQFlyGX+8HddUfOHs7DgqB5iTX9PnqkquNs1bATQcqePyAHfp2abwldDcVrB+LLKlRFwdu4V3f0CRSeu5gjAuM9uxx/XTWdF5zfR5lKxT9THUZl6CcRrSTPZzkVb+OMhx2/OJxCkHf0mnnikRj0eBTnQoXcuTXX8BfF8JZly39EOcgjg1iIo1/E2UKlem6bgPbvpbDnqlv011GX8RSqkuy2SEqlJ5rE3XWkPUZjhvK1saifPcCGcjZ9BpgHiqG83wN3EYpFRzEzVRkxgH1gLuUSDnAcdEg/EX93y/mDzo9j7fe80++OeTdu1KBl0cNU5Z9NJJralN2vMrBmxNHQtK1k0wIIzLiyfuSSdTfLkapyyEAmmRrBeDBZ8zw7aOAkbPr+yzBiWbRPF66EirXbrca++994ytXIEvHhZcOWRPOvAT6OGBkDgLnSWpNV/0ufJEQO9Kk3n2j79cUSnuvhTAcW5R7Jxw2xl+IY6udI450a4omjkLKm28mD7+wvL180OyxEVNCrqj/fT1YjPs4OhhpSLjzM5VWicZN1TOURbhqdvMR9S7TnFzKT6XN35j19D68628qu4XQgUjSd5/jfbFBzr9XeCgNymFxEfEebIYIKfiGnfT/L180mtUIJJyramimIwPqkgurieDxlQubBcu9No3B07bric32M6dy+FQ5HM36dXn7QeZ6RUbG5GxYs73E8m1yONwqlQqQ29VQ1WtDM8ax2VgQ33S9qwkWSlhUcwwWFtoj/+aY3PlJuC/kji49lJ5p+uaGQYKko0BdiARer1Hl/bYxgSiHHUsLlwdIjTsrK0if9wPfrCbO1O4iMLkPkA748QUzRs7KdkFHOJu6BbZZyTSeYHtAotK1ygHsvKpxvP5ursp7j+Xn3zdpzYmT79Wfu/xV/WL7GRdzjiB2cTmufx4ST49VmDiMZW+8Tft6TnoiWfn4NIF3OPSuU88rMI3k3PJ5Qf74x/AvWdMJyiJCpUH9JMRSFwxK8/z8/SHutKQ6+ILGPQmnQXlz1L+uZxo5Z9HObiSH/whKN2Jy88r/SywE9BJ6Z8c9nzXghQzlv/d119eY6332XtvPmNxCk6XWtpmxmVMdeeJv7n8/wC/Jr2RBdArkDNGvukms4uLLIpB8m2TTimT6gY+Bp2a4P9n772eJL+uPL+Tlaa89+0t0BbohreEIQGaMSRn1q92Q7HaCD0o9kV/gSL0qFc9SLHa2JjQSrvS7IhLDrmzS4MBAQIkLOGB9r67urx3mVmlz/fc3y8rKyszK6sN0CTnAtlZ+TPXnnvu8UfuOWmQdiehkHa0KKk1M66JkquDy6EieZLbUEHprfLMPMhucgiEdxbo5JrH5EHO1zhhu9oV+BIwJZ/se+9+bm++/S62dwft0JFtuBaFyBh+em/Kxoa5WEEdJ4UGIknmO0ZkknMFz441hFdto3HP8z1oLMLfooK3Clkb16b4SuxlUqy53YxtDHJBRUmZ5yOZXJmC1l1FBr6VKPcyb3FJ8xHgJCDfGsfLXOdxHxTcJRO9hTrKtxFfpR0XE2yhFCg7DstYvMBfMTyrzwpoUfOe0vBqHOIWenlHHq2I7FR73O+73nedBsVrFDcIZTOLZ8LkJEarUFMyNcnnmjDLwPZnLmWffYI8ryll/+JfDrhgPgtlk8YPtHjR7sgsaS4gHTvayReL4HZslEQYqGwU3ilDmPQsGusEOUerAZpYqTVnbcAftiSZbGPzkD0Kv1ptTuXkaErNE2oSjcQSLKrH7hNy0wRFS+VzxWT5CcpEwZYapibBNoBnqKObqDAL0ihoUgF+UXGvvzZE6sar9t3vPoGSB/MPly3yrXrWag8/yv1LvRJQK1hzfRQafuNj6zeas5T0W594gQM1KJaMcXlehTtVZErDLPGJkZs2bPEh5HLRdR8dOqJREYNAZeY99Lnmu8y20Fyx8RXTbrODrXhEQuZr2tswPz4vFT5SwPgBwnwLrmQkXIi6coc3YjgQQPKMWW2ucSth/MHSYRWPoYx73jgTIHiJp0e/48+dWsa7WE+ZVb0zrZXbRHFjFVlATWS0+dQLyerkgrSWmo2Nw+QKZITwPvp0FPu7YQTzu+3PvncSAIHqI2x7MqlNdGeHJqqsrQ3bMvw9xyan6RNp5dj0g9ub7aFHt3t7IdBi9flzDajLP0L//LSXSQqIZAkefV6sOiYdwShOgnCNBUQqNyxZczqBp53C+5oI/S0jKF0XZYcHRX4ZpQ0AXCcWyE/ulJ0/T2h24sn1daTsW9+6z1oJsCnndyVQ2WymvDnqyuFypgCIsUau+kgr3JUZyarCNFHWmZ5UeP4WLrtJDXMqkbo3UxHg4so1A+ETqLxyjQaZ2daoOtUjeVftmlshGMGE27nBVuuw0qG46Sqtk32uP3TKjSZcWzOpKTWnSQGf6ofkdlNEuJGs10uMcOPv4sqBJflaAybx2Va56a/gzmZwfke6FIPSrVSmCfeAGUVbUghPfpIL83mSRQ/ZFx9P2DPPdKKwOMyGXAZB6nTW504WqC4QRJr8CHLSV5rDJBrKnbvJWv/1XWiM8VAI3NmmjYrKy8GeC4CUklGnuOSAQoDTmK+MY2bjkQEEWbJv0ie4k/A3jYj6ENsqJCc5nSNAfXh+kTR3EASN+HAK4Xl0GHIxZLPkn337Y4IW3LSTJ07YfQfaMF8h1p2oxBpKyIYma3t1ocaBlqk3yMdisKut7c13jg/eEUMoITlPZcRV2jEph+LdW95AIYSCCrH0VrYQxFNGW7FyQXKvalRhzOZKTqYQ8HnW0N+XMfEWfGpLR1f99xoKUNzA4rkWApSp0hLJr5eXNUfcLofk1ACIThIRPbvE/qs2zur9uXt37wqyK1B1ohqKKDX9XXxvs2HJPUsktJtzrCtE70BxsZqcx8yCPKMfXbeh61ftT/9kPxrHJkwjugB9UUS1bqbNekK/kdfJK6IOL4YlTEfEMsvAtKNzBTlYh/UPVoKC8nXXEYlEvq5tbW3W1d2Fe5g8NBIEuMzZ+WH6LlMf2XYJyJ2K0xyAZJzC0xHKR8iNCCwEm+PDPSE+wsKTx8jqQZCSDarIZKCetHcTkxP2i9d+Y3MLkwRWOMBchSCkHlBgkxIjY3VD0V9uqTgy4uO2fbLbElLfvO3yba1/rxhEJHcT4kiBzIO8swYwRxZaMCspQ+s6Re4HkMxahBRqK3UYgAfPB/V383mLkW42N+6+uqlkR02UYbGiaT2iqTx2KR5Ce+X7pnp0X4fz/Gww4fFRl25HXYvAXwEzRBCsHR61zdOX8VTlmdhq6zH5Fn2LAtBJoI9AxOmU6Lfz/iXPb2iO+V9CbtVM5ufe/vB4zEJIWJoh8zgSJPb2kn12ashe/3kduRty9uf/YDek9ISr6+/khId4bPSDQQg5aEPJfzeXBYmMNdr1a0J+jHFTlimMNI2M8eChDNFTeuwf/fMukuM8Ym2dHXZtqcfen+qzxXEExqNoXEky5NAlJOfsqhBdhOTQtga+nmsYDBNgz01QziPrOT25YEtgAHkhuJdD3awbA8u3+OyZMQ+IeugQc4gWN60kzBsWYP0Fj7rCRyyKqNLbLwKAzVrdYisRKyfD37BRpdSKTFyqVqV5lLKFOIIVqba4r1vfMmvRhqt2wm/GiGoFRKci5YRThps498fsr8uGo0OuemvxBgxPrSmK1tZFf4mNlW5M/sNebzlEFzUkyYxk2JkMf2x9mqp39w7cvatdEk4r96ml3676xsJWUW0zMsMoKq75Azgl19DcY+8Nwrtqv3ntgh3cv5eQ6IfdREQbVFRhzZqkKh1TXQqTpOIpFZE3SSvZQOgblZDYukoFJbe0CVPIYhKrXba00AGyvIFJyAIWc0k7M0vO3EV5RjA62AJuBKpNiE8Eq4vxADwpMGSLA4thBPy0mSVb5PvmTIPdXGyE8CMKCgCqBDSiSuTdsYzt3Zuvn7Mb1yftxRcP2fbtUMGwS+tBf+M4nFKC1ZY5X+5WKTuqXZN5UdEtU3Xr+7eOknGkUExBbQ7imhvZ26lvwUVt4/hdoXMLpdyBGytJiqvTc05FuXYbeR3RTjQ/qbou+rS5zK+4na2ykDrIPdBpBVZZh6Uf5Do44g1dbS70zD1YNoeEr6jTopoUaUKx3RoaiJSxrh+a+RigldkrYyMTS/bbt4fs0w8+sm98437rbI+MMO/QhlLwwgWcYQVUnZ0gKSimHAH3Rkfn7Mzp61ChisqrTtY2pfMLy+5f+waI5yc/+oygl1eCDA+A+mJSEU8wN5CwUjwp+TptnjHDPhN0LiBAITnyxrqls/7OwfbyNbGQti9mOu3yYqflYOMaFbGG/3wjgTzrG5vsMkFCX8f2rqu3x17+9mHr64UCivayni1XgjwyuMEl5Zt7K8Upr8i7QTOlQ2tDWb/S4fbGPpXb0DF1IrlgMEHBPtMp7XJ1ljYc2tDhWL5fuh8+pcL80prW/V6nONAd9aV8f+IxBWPiGShphf5XvL+QqKdqO+pdhBRXZJa0aRHbLhOkYlvEjfOsahRLUL7ZzpGp3Bre37RHd/uB8qO7k61qYoo/W6hb1JmQXdpjmpcCiJBduLYC/ZxuSNvZi4Z29hpE35BrSF3j6eyJSKFbL9o4Yt1CjDmzlhZ8pjgFJ8aX7JOPLtorP38fxBcgoZq1ftwDP72Jwzc1uWzXry7a5YvkrJiedfs3UVkXxnL21k1MaIhq4qYl84xV1JvCWaHQKHyLstM1yeq0Eal3OJu0c0tNNp/qJTQXwQKKjGQl1xFbMou7269/M2QfvD1ujzyy104+2VmwUyydZfVZ/Y3lehJC16J1Lj/b9FGHD2HdQ38jeWT5h6OrGtsWiiMXkJ1yhkQRgiXwr1x0EOgjqkWIWO2Vm4WApIrNhyrXWXpH9daGIXTo5LCvC/I6QorJJzaW25ZWW/Rb9St8lhCxp3yssayCGIPRspKRlxs3rDT7sK0VxFiMLeJH471d3F5tQ62xh3fusbuP7Er52Ep9L4ZHJqtG2PDadHgvE5Ejn5q0i9fm7b1fp+2bf9xlg4NZW5jDdKUmOZqczfnQj9KP1k4BL0XJaTM4Ww1lqYjEIzfNLpwV+7E1OZYE/inPpI7WlCgnYjFlsJxENje+3GbvQTEuct3yAPsCkEU4dZsBSeD94OFWGBfxz82mMLcZheWZJakPIdPPQtWdm91h8y5MRzOGEa8Mh2O/RrFpabIbj44N209/+rZdPr9qX3/+BTt8uJd5QmmiQJURBRMomYDsQiBOIcvwu9Iyll4vx7LF9nUhRlugEkV5xmHag9ihaOMV7PHkW7wGKMUIxE2S+IDikOMqZg8/QGABRRFSnZ/rP8GMKZgyCdkF5YNSdhaX+J0V1lveJz43bP6N9a2vP67Dw1A5MJdHJGttRVsRhLO4dNMPvWRi0OV1Gqfaq1ZWGLybuBQQdvx0+XYlR3RzIoW7JxlTOePuOHzWKnMzQ8qBwp70eeZ3tQ7dg/fuPrK7xUFLXBUoICkDyi1Y6Hq8mYIQnrhyyKy+OHXZrl5esOdfeAZtqTKBbR4xQsCiIsrMN7Q6EBWP7EvxhMqsuHtRAPjaoDr13IVMylNFTq6hlJPjeHBUmpRJSyqVt/em99hHM2hm1DSI3IUmImZlViPkJ0qPvBOkfgJBch1j509znfbubL/dzIbIgwlObeky3O5MG4YxgbIdlSkJz9WRafvPP3kbpD1p3/3TJ32ulueD4/naMMI8K5GQO4er2dqGWWYm1NG1tQxa9nJrW/pqLc/QTyc95HEjbawUKvgwK3zTBlYyrj8G/7X8Dp49jFJKDSpQgCImO6sYeVOU9rLcb4WaqpWq0/s6NFdWMVIHthS2PrCmm48/sKTRGjvi3qxgSiKKV3aPIPL8SuxBUeE9B7I1BLdEUAzJb/XtWK8YGd+jWOUe7db6Ca+FNdTGyYDUZBZy4fywB/s8/kCf7d6LoF6IYtOyNhVRFBtn+YpLzMqlg3DOATIFiy2qrODYvqGd2qc4BDIKz388U2+/urwPjgzZHQFDjZPVeyN2S8oJbAxdUyskjcJEYPjefJu9Ptlpo8vyjMC1rUQrp0eD1i5shgUowc9OX7Y33jiN/K7Fdu7owrwPdggBXXGvHakTCVqsnkSEOWebb60ENlBUsEZTy7rUygLKqJsBRmxySEakdZHJxCZUtyPDMGKNtZxGPSvfYz0lGaiiuNZYYrY4ILxie76NFfjhDguay087kgsBQwN7vfHp9VeEuNTHFSwRagqMwTxpz6RTrQGpegireNU3znkDMRpd7hvRAPPA3yKRsufgNOJrzvnUsqSbDeYu3a+8E++hTgePg+KjY/1sKO6XNLdarCQmJ4sghpHhRbtx86IdPU6Y7VSkrKgyiTH12NhGQpndRIZVjguQmhBtrKkLp6eCAcj7gFV3JYoCA2Ssp1fs2Np0xn6fNZ3qJbISIarxqXr76cXd9vNhDFmzREVB9V83LdcwkbyMVdQlZjeK55fFrumt4az94lo9LCxJdWBHSatTcbRCeFI4yFBWgeHf+vWU/dUP/8pmF2bAn7DIBcIgAEFAdpJ94q9JtZ757VZLUcBIhcWqDeHV0JgQFh8XJxQpr5xir8EtLXi0VEbAMXwEZFgZFsv1NKbkHfEVrXXMlehbB528XbJ5khGxBskUronAcjhEy9W6/ppC3QsJJ7DLUxazWorgoKG+l7N0X8TGl0cHPoVixyHrY2RWj5tmGksEZcCjGjdPWVzE3ElKs3sIdxTPQyAmSjvHiIRAlNX9q+LMI+KJhQ+dq4Q0nMOU2YBOcP1gURL48d0go/3FSxMY/D5QU6JpRVdJpSZsz/4Fe+SpvO3at4ppCdnBsiSXRuAtGyxFuXJTFrq0uLSXaMmt7Ktle2L/ov0PL7bZiQ7c2/CAaGTRXVBMf8T26u+qGjyA3OWFxR9Y4k/GL9u/JXfrm5lBqDcoC3JVAFEYMwHMsmXCpilRz3PTPfYfR/bar2aP2kyiwxahwmRM4EiKb33EIusTb2dxOgkmWb9Hx0fsrdeX0CovuG+xDm+EBxGchO+pqSlEBISTKr8fatlbPCNkFCPKcDgVHxChklJgVIM1NBohkaCMittQXXq3tM6S7rpBsZ5Rn5RrIlDRsZwsICXl5Ijgi90fI6qSmgo/Y5meMEEC10KVOBBn+XfCyixnR1xelyEwqxQO6kuMLMu/F66Kqq1P7yDt6IMcvjocqxfJ4wRvDfUHQXbbQa7AsgZFcbhlqNr9+sjAK4sNpwJzxOvf0pTkXbPmBgDJ94U+NaxT9W7d1btljwBN+1IElIpQrIM+nGXh37vao7hyzRsay0pIrlwfip+dnl4kevCI7d9HUMYGThvk99VKa1uKRMDNJM/ptKee328HDuaxR/vUTn+wZCPjkmPh0gUFJUpOCaabe24SIr7R9rUt2jMH07a/85pdmyLjVyvJAvMdAB4HBvK0ItFfteY33Esit1tarrP3RrbZX55ptoF9w7YnNWN1IGBALCzIaot9Mt9p//pSv/3tfAcJeBqsIwErg7aTKHlVt3jYQGtIYO0vQCJiVYo7NUuy5MUFDKkBBrGI2gq3VGL5mWsYazNhCRCo1mLEV4y8YmQWIzY9F1O1NSA6H0SkhY2oQ5fxlVDbqtPltRLsa1F9DjZBol63lCrKuwGt7SGkcAGTHLFMETLM5QkCQUklQXZQvs4ien/KvFB0SbLJ+tQunFOklVUmsjKLWPy8KDWvVK5pAdHGB1GsBIrtU7WvYjty1/UJsYUvh29JD7Q0MhGL/67e26/mbllkJ0y+GNOr8C0hHLgW98stmuQcphUK86S/lQWpVuS3tNBkZ0+h0Zz7mCglAv7K/deBJiBWEIEJst7PkEDniRdwOyM/bG6OyL+/kcCY3BHYqMknd35mjnSKeTKKDdr9e0mYnblp50dXrHlbwrqvL9jOo0128zIsJgghh1N+0HTVsjHW5jeBK1UWyJpCBvn6tW6byh2173eM27GGSevsSdj5C1N2Mbvdfnyj3n45MWiTBABdXgHg0zO2LNkKm7VYCR27E9Ui/wy2V4LggEAUyTebnXUZpsSTKQ/LHiz8twYR1CcWs0CFRbukFGn45o6RaeCptXoaj9YqUFzFyE29KPpN/TLMXUN61XsZIpmExEMShwTBfek70foh0Ne61l6k/BA7GqjawMqWfzuPrC4XJbhKJpRfJQM1uYm8saiqpJICeamO6OJXtM5CaCG72FpFMSWpOXdvIYkt+NR7FIhQfUz1+q6KmnNZ9yZIea2VL/+vssiO9KU2h8yqWesbz5uOGNGqX2JRFnt5LXi6xC2WZGqa0FBzduXKNTKC7XCKJCxs+TGs4BUgZ+cvPprC5WXVtu3qgIKbtJGRcSKDdKDVnGSjKwUhyA7TjwmsPb74+JT1g2QexGzj1xNXLLNnn53cv2zXzo9ABSrwqFhJTeDWEJ2G6nlcRUXh+3ptOmdXV3fCru61l48M2jdhm385NmT/99srdmWaaCwgnxVY99UUMhPeSedIfl1CmciGT/aKm4slZH6DhtfnOxwQITx4WANnV/z4rq0Us4J6w9l5UXUuVxOVqjaqz4/eWWN/K7WrOvRR/SAWd7qvZl+5hhzFNjrFRSRsN8mAXFk/T0K+8fgVsCHeFJv3PfS2kq9o/D5zTvtZqDr1O5Pupy9CXLXWX2lOKl8PbCwtiM3W4ViCH9fkjMwENxsaWbMADl7pBsI3bqp4aio3/5XcWTOpKmpekTIGVzLWxMmSlhZOAHS3+XHtn/gT9UURda9fz9v1K9WAtsK8EX/MVroJZRQQXRo5lwvlpXiARfT4c7AmS+RVSAkxkRtTQt658Yyd/6DB3nt9CHO2Jbs5jnUVrEFza7v19PTwLrH0JqYtO75qMze22UPE13thFOR2rsmuvDNq5z5J2ci1RpuaCO2t9a76hi4dhVNlbNoFAGwZQFuBDfrgxlV7fwn2fOfL9ttEt03CsiaRmWTbtTWRt2G3VwciKUV0qltAXZ0qFiQHaC6mCON+NSKIFudG4jKo7a2NxeuId4fMNojh54jJjYuFRGqrr3L/QSbMlcBnlWgwSgyUUCAEficdcSO11Fld4bOKBlQRRqSZlA+o+hqYvKA0cERLdj1JOGUaFMtfY0Tu46taIiTM+yHYQAlm4V3PpZvDaJOSzgyw9Ky55oyDpfZ2KnciZkmLn4gpZSHvWOmm50TNKajOwuS8LU0P2YkjiFEGO9de1UTH4FLuu3I3vtI7ZSk7DSQItqO+hT3wlXb09honWQwxuRK43iRgyYS8ZYuVxw6to7PJOiBhew/0s5FJHzkxQQKdyzZ8scN2HUjarv68fTwMK9/a7MbEktvJXzfR1GJ7O/P20LYWggWftZuzg3ZzdAI9wpI1udGdAFtkEAC7EbZrHo42uDxE5oju0tO3w3bs7sPyZNIGeveCJyaIbowRMCHTleRZsenWHb9FrfjpXaMAsVQgrnE0YP4iExvZM89vsMWreTg8uGbTtjm1VlJvgbUtHmdMoQlIpVhDqcScad6CmUtApKUIIybOfH7dNAW2H+NaxPwbB6O1dCpU5hqi7MrL3Da+GK5Imx/ekSKkPJeiuQj2dcAXaRNVqlOmlVorf73YGNuVZrK5BCaUV1dgQUxwYBWTbDgcpWJQ1ObHHu62Z546ZE89Nmi9CqnnneKzGWF/j+KL8siu/Hx9BVfXZi2Q2reGNWQul0QjlufEnydLl1yomnAv27ut3o7s67FvPL9s23vzNjNO8MyZZvxLh+3qpUbLjmStoy2DRb4yojdBBcrEpY5kP50AxLwda122PSgizi0kcb7H77SZROIgutXbMc0omWVpxtT/5u55e+aF+6y9P0nuilk7cnSn/fjHb9oCNm8rHt5dPpR3rwjRSZ61jNJFh0IlpFq1B6KYxMYWyIIK4FeRR6paOzeF2CLkVkgRGZBgpTeDDhxjYd7LACPpstmedXCJCtXBFbmWVaqwzPXAuktmJyVH7I+6/kHJDfMeSUeadCU3CtRoKZIuU31Nl4r3j7OuUmSIWxPLD/KTXF5r3DeYssP3ddiRg0320Ik+O3mkhwRTsseLmtkM0dXUm6/moQrQ9tV0plyrMZXhi1XugQrXiuVzhbDW+Jo2pFftwL5Oe/KxOXv4aJ3t2zFqB7YnDUINL3o0jpNCHmZDWHuMzt6wjsU+m7/ebB9eUSAA+RGuWl9fp53Y3WonyQIGL2vLTTttAgQkU4E8YZgCQ3V7x1sdmy6Pn2sSdjsD233s0X47fOyw/ej/+a/2zPHH7YknG2zbYIvNnkdDiAFqLrL8rzAdt31ZccqkhdXJn5OxnaJk3FIJyCggvPjv4ooqz9uaLVzlhgsmPr6Jw8700FRlvXAC9ZSDihF8xblZ3U0q2tRyr3O2zuV6ooagTEFEtbLeTg0yV26r6cExqdoR/nolR05RTng2KapOIZ3kklZ5mFu+EyjHYIIkWbDmUuY2C5gyacYP7u+xxx/rs0dPdtn+/c12aF+Lm5YE2S0P1EJ17YlYAAAgAElEQVTRbblXX+4L9zSyS7LhJVR3spsPK1TT7AT5hJYwuH4JkIkfgVlJ0sAXduzAgr30XMaRXKaeOoUoVH9LszVwioG9bF//ou0babX7eufta3vm7MNzU9Sx25I3uqxxoI1gnSt2cpciyM6g8b0KwHSBdGBvkO2oxFu23HauZRDaIDINFit26Fi7PfVMm3364SkCD1yz/vpPCL7ZZc88v99Onf+APmCmINOIWiq+xWfmCTOlTZ8Wi35HiuSwxYiv0tYuRn61jFCmHrIBG0TcoAy7IGhI44I2WuscFVE4eTchCZF1g69uUHCEzR3aW6NGRZWJpZXnreahlv4AtsjdpNHOeY4LIcyNY3VfWBKlZ1L9PCtWWv2qrf7CgMr84U25SMUtUUHoINI8sekIfKso2T1wLi88t8eefmqXPXAM2RycQ0sz+yLeahu7WqaV341L9zSykw9qGjeVrZYgnwjGvLncvKWBna6uefveH2+3b70AomqbsY4mtF4I3V36GytfSEOIWThEC0CWB5E1tVnHQN7aepfs8ACJfgi9lKsbtjPIkQ+05KxVXhupZrwOkHiwdyXwLQXPW0V68sOVDKW5jbZP7KHuXvvVqz9DdtbmwUrPnbtkjz123H726pBduYQZSGWCaKvTV/b5hQWE1URgEW4I7nFlH6t+USYlPkNhlmoJMqmDKg6vXv151Un93obOLlFO5eVjhU66PFVZ03RQQI/LiNdZu+gJ1RVt+mAyUrq6hZo2/UMIbxXrAoUtE3zG4tOYTU1hRIycAPu6fn+mCCdvWne1Bxy8JWcUsgNAhewkc21oytnXntpmLz63zZ59qsd2D5Ifmu2gWVPbHu+1QNbF88F3bfRGtS59ZffuaWQncluURADcrXVVTvmrKwAPGcAGBtL2j79l9md/lLJ9ewBY7OmMk9TqoMLkTM/GEJuTik55VyogmzMF5mwmrDZO0BmM0tPEn5udGrMuAmN+bSdGyCBShRPKYns1hxwrDiZwJ1bTtXawPQ+ePGy79my3//AXb9nM2DLW7o2Et6uzX/ztF3b/4fvtW9982P71v/lrxiAN590pQuKyoJdRsYjrpiaiQNeFMEIuZqj59Bci0sPVkUY4rALS0ojqCEIatmGsuV27VzriSkoPyT03BOB0VnfZNaEJtVHFyDkfRUNRtGeVSuGQSvsjBByoQCEdELeMectgMlF0KWvnaUUE1hxprJXHubGdylecmoRTUOzZBInUv/Zon33j5b1Qc+22d5c8hPCM8TwnSr9JPVpSsbrF67oZkovOmsq9+OrvbA2DfMn99ZMcv8akR1yovQioJMNKrDR4IpwD93XZP/zulO3cxYLi3mXzfDeyejq+fEETbOR5a0Hj6htRoc+Xcc/SAqcF3CBFNsby0pi1kuPhEO5brV0IkOcwtG1uJ9NZHr98sZwAVRn4dOAWUqjCmnhkZke2oQhZp4G2Kxeu2dB/GLJLZ4asPtlHDVPEAkjY518s25tvfmZPvXDUHvrtfnv/vaGid2vXvBZeKvnDN6ZvOuRVkAcy7l5SIFFKIyHxE242UntRTWv7JR5nWFdnJ92IvXh3hbpjxKe7osDWC+xLdxj1FpQb2tnlKLv174h9VLDMYDpYbTvwnpQTW7AxLMxO1CdXDLisTFzH+rkTsq3j0BSLK/lgGHft81vuSQ/8wJTmsCOpIwvToye22QvP7id/cKsdO9prLdiTBvlyi1OdhQUq+tOvaVn4SO9WQX9Trvl77lq11f3qOlvYGciIklnr7uu20RkAskqPmnHTOnK4315/9QrBNTEhSKE9hVzfvWPV/rs/X7Ht3bCnGPkqBBDuEgGh+c4Jq9mCJlUsjf/UB2vxLG5h6alxW2ysh6JK4vSMNvfSuNXjwTCwvdNWhkgxN4oLULLLrggPRA7nYQuvdVbDkV+hwqOnYXtTIFBtMlnLKzSVAnmm0mq0tNTZtash5FIT4wFL8wmC60QqZ6+8cs4Gdtxn3/+zRwl88BoG1FMeij5QBlFdzqpFM1dNyxnhGWe3ZFTLbwV2lFmGTCIscYn5eMxP/hnsT8LGLe5zKeLZOJZwRdrMUv4o3ClWKsVv65o0mD5uN8+QFjHcdaVV1O/4+SSuWeFQCVRgmAuxcGGdo5acXVVdHihTKSUjLwfdX4dQmbs1u0OZkISoweub1fyWrnrcI30HpKv2dID7HJfI7WJqrjqrXlxn/PfawVE8r4rmn0Xs0ILD/vH7sTh4rh8Tkh60rN3W0aHYjEQsmcXMBAyQ4Z8CEtcw4mUtWl5tDSnfZI1QsRSDQGEPV3z6S79xbyK7wmQTTBJWMoVt22Zl2/Z6++4/3IUd2Lid+kQ5BVaJRNJhL7+csBNH2ZwuV4/kOIoyoGOvHPqUMAVgXBQlh/dCenLFGsYQ0g3sgsoLhp6LCOgacYROtHXY0uSUDRONRPKeWBATI4y4z0JAkn9kMQJeyo3B9q4QCn27Pf7UbgCvzc6fXbR3fnNu/RCdxeIS3Qzu+oXa/A+5E10dGrE33vpb+/v/6HF7+pkH7K/+8lU2EYLw0oQ41ZDc+laDLZ4jOaXymw1hg6TAAcHVsykUbEURmzc6fW++RmtNbeVZvRXvomoIJdSe8FBFKmpjDREEvWL8frjuNnkexw2FA+8Fllz31qOy2K3KbeXig6PQp6i5Cl+OkGMB3YZn4v7oe61vWyMew3synnaqEBBfAj6TyHuPHGp37epTT2+zJx7rt9ZGFDdoHgT5WaLnSC6cpX9JDNH9+ClGUAVEFy4qLYGi3WRWmJ/S5eO3ziNFPGlo3LqMfcO03KUL9yayiwar5NiK6OsJbjbxxZQ5hLRLzc2SeSzYylza+vob7bGjCSJBQJkoSUwq3jRUJ+qilCwowPiKXRif4cRvsgHcd3qg8Dx7F7Z5SaWJU5av5BKGxk22kMra9SmoThZ8BUGHTujVEjMHDxPFc0eObrcnntpr9x0asG07kNB01Nnnn42RbOdKxeVdj+jWHlvOjTh78t7bl23H9gP27NcO2W/fPW2XLk9iFM1AYj5Jm7MKsgtKlfDMKppkDx4JxZkjNppSRcYGt/IEl/xUsq88rmcxFeEIwqFf3/GGrTic6EbYLeVkVxt3kpZJC6O6a91I2rqV+iKQV/u6717g1C9taYTsKnTdjYGhBoNsr/qcrlWhNkQN6rNGJjnbXqGdW7us3K54ACF/bG/BdvRgpx093OHGwA/wPTiInzd4WnaiojFlM5diLdUnGcrHEYa8bU11EdKTLDpPQIqmBoJglO6Xks5mkSUj4bhnyz2E7GJMswYUmjVFjl23GBWm8vLFOfv3f3HKRm+S+Hl1ltBHIJPGUetqGcQMgbDTciPyjR9tBMlz1guAQs1CDCCn4Xwr4eKwv8s1WOMcUU4WoACgMj0ku5BZjjBOjcg6iOA7QSRhWaTn5FKkgAKwpu6HWnSibxvcZg+e2IkHRIpYde/Zm2/AEuNtMTGetovnquQMqICsZBOmcS3C2f76V5fsyLFO+973vm7/9i/+GtkiFEspgqOewKoEM4Q18wcUOchrxLJm8zPk3ya8fRGSK7DEAHqWcSsq/KpIj9L6CwikwgJFl8Omr4SINr4bFA4RapBPrZfi9/V3QJ66k/f8C7JnExVWjBw3tulscX4SNlW2cMrfUH47rCFb2qmixPCuVSr0XQeHB4Qty8WvjSFUsb6/8cHgeIj5jw+pVSnYqLOlKWM7+pvtkRPd9vTjPXb8SCf2oI3AK5SbqD7+k6ukO/ewfPpWfpciMbGDdayMdtad91JohrNaa/qclNZC3SxCht5X7yqBMuB2CmeetnG8pePv0iGW3/Je5d0o5Vf3brRUqU4NWAKBAu3OhaJTUGFjRMFsVvKEIj/zhdgrIRySQret2gMP5Ky78zo6CQJaiv+SQkKrUVisaKP4wkTApdMLFvfJRhCmhPDkcEiTG1b+MqLYVvfgH3tuwlaGR7kGq9mZtd6dC/Zw2w67iVvZzRtzuKaJuotXMvR8dnYReeINe+1vYR+gjMbGx9YPSTKcAotUMtqi62vIQlSGgi+CmIeG7Y1fnrMXX261Rx4+aD//+Yf4Wa7fLLFMBhoDfK9Q95IZyh9YlNycR5bx1JQuHwsIcV0voK6npkfJ6jjn5i8JUkkqNFBsuLseAW22Wlu7H2tYi6mjjTWEnSQNtmR8sllT1JCwO5krp3b5Gc2lqCsZnLhyAru2eo/nthELqS7Nk5QdSbmTbclVLJKfgujgL2jrolPO5Uu8XusxgoMFdKCuSma2ikwyQb7gdD0cDxm/OttWbM+eBtu/d5edPN5lh/F8GOjPWHsriIx3FaW5DmWXLAXiCMtOTkQ0RcwEiP2dnsbUqQUbO4l8IvCVTE/uY/q9GjDgxu5zW/30nCp6L6q7gOz0uxgc55lPgZn2vKJwuwr47pd7AtlBEwU1twPb2mJLLjRHohlZ7W+liKrpbGq2fduYS15M+QkPSeJIlFn3L1ZFkx0jucJ88wcrl1G6QMxMrBkWev9ON0VJLASgU2CAPGYYWViHuu4+2/7IDnsRxcPZ03n75asfESJKKfxa1yG8aZLjzJAwR2MR5aTNJlleLcU3oSOhkuLUVej4px9fsvuPbLOjx3bYp59eIZbfjSCW9Fe06QISQ/KCDTX9YJNnoU5zfFYRAcQUXEWEAqU6PjaJRnYOWWgjgL1MorPggxoS5axHrqVd3fy3b+fNHyv7RHRo+Y6q0g9HdPF9jLb5U2vB4rIeIWOcRFKFTRq1FVzFBD6YIbEW+qzvaZU2qSMBskhh35ZK9gZkuYGrqA4H8thwqgs2vgnTo7aWRmS9WTv5AIEojncSs5FAFS0Ntn2wzZqL2EiJpRPAscBeoCaEVERHrJ9JgZge0MBcvq0SbYqoe0Hat3Y5fio8qr3EXxGS1FSLcSqMTFtb07SIqc+pS7a6kLXk3p2WB2nrAP4yyleK7ARmWeQMeTZiPUZ1gNLamHWS8JlHVjYxUZoEpvrUqJZEdsLqZAc3hQeziLoMiEmCi3i1nRWjAT+N+I7xqf7WgukUm4UlUpjpDAhPv8dQdIDIVgTsIGJ3wgedZpHtff7psl29Qiy5RXwbi3mDqKtCJtLGFpBKOSm0kFcRFadx+DbiugCtwFIWz1NU/7WrszY2PGXPPX/QBdGK2iFQc3ZHcjgUDsonKrMG/xs/TM+kRZ/W5G5RZWqyZFeIMpyZghJkPrraSGQj4F1HpFTf8Gs1392/SqmzMA5tJl/UqHHFuxNlKy8OIQJRydrhsVnIei1vCAIQz0kRjNY0lLCm6VS3tSC8r4PC8z6pO4Wyce5izbRc3YSQxa4mkEUPdGfs+WeQ/T5J4Nh9bdaHlUErVgIKNSfQJUi2I0YV8Mi6Ugxy8YzoAeE3/e5oD9Tg+re28EuV8AmQF+osfnuFFJ511/HjPjfCVPPUvl2eEErikYYye2YLLdf06FeK7ITk5jDXmGYT7iOceGnJQbYvQk3J8T3VvJmjezih4zrysGXNTPvUlQn7+JVX7di3jlvXNqzUBWWi6rRZdfQEgscRikOLpLeSq9RDDbZjSTw7rTyNIEOu3cB/cXwRSjFpy0hiM62ttjK6ZKd+ddV++i6+rMi+BGx5yIPStVPSn1ju4jZUIDWxgQL8NSQWeu8sp2Rs/KwTkhT7XDo5Jb/nQMxXGesokVcGCHDw+WnY+VWOeca1ghhAyVjyYluh6PKSX6KtU/2ytAo7LwbR8g2tyujW5U05qAglb45BR+/pc6+U4C6mPq14hJHSvvHb11oyNChcZkCRTuo8GbXeASC4txbQMh6f1iqYnYT3ax+vU4OYJ7nfa8H4u/p8J4GBPLaNc6xVPeZXjZkJe/zhQXvp6wftqUf2YDNK4AnMlRSDcRnNqiwW3GWZIn2eZHICbRkSL5FY3UOb8byi+cdIz7nS4hIhq5KrZX/qVT3uRT/0UYN86pS0nT3rT+i68hvLK+QmSO7GOHuK/dRLyCg6kgKZb41v8xZvqXylyE49VuIaDDeizkffRTMpfz5pAUspjeLROsIAUHOwZ8nVLr6Rsw2MWyMT+cb/9xpmJwv25D9+jskFw7n8j+lFTrM8OmOzhFxvbEIJAbVinRgVE9fOu4PHgP8WdMR+NFkoIkwwEq2czj3Y2aH9nZ/N29D0NBunDcDTagdKoVRmp6aTdTiTw1tIfiPqyhGeAxzXWHgBH4whCEkGxvztChQ5Mq0VIUYRpAIUIU1/ndLd0+1ywKWleevta8Y+sZXMT5NwDbMeBNS1q0qIjNxSbkOrseyKehIFFjlQkFROjSVIgiTgjWi6m5irFAeBJy4Xxam6SvHJWnfv0F9RA862r5X1h0SEPKJxBba9wjZyRQfPI98VeapAmaIIXTbGnMbi1pgCI2mgNxrCM93KYJlPQqwndPBIBlhi9qR2kn4AJsELSmokOEK4AzzJgHzX9hZ79KEe+87X70cOvd16ObMT0iD7dtFhxooxbsndxoiY3dkF1yEmhq6KccmACGcVlmspBQsMOy2Ep1fjbeejoxTtuw334meKH9VUKLUnIprcEEFuYVETROFZRYuVUDJ3rYWe0XgU0n+WPsh4WZTACITDZxetbnGbZfrJrSIf9btcvmJkhywD5rUTIzhtmJDCbm3QAcEF6qfaPDiwKEco7l8pFAoJbKdSDUvY6CVtbGYEOdZe4EirLwwiREdjANYMIdTf+k+/stTEkm1/YI8d/eOjBg8YqD7p0EW9iBdA02Xjc7astHEsZn1DizWSp3WJKCizI/PEsxsmIgrCazb+Rvsz9RyqD2ovyymsWHgylBZyE1ILbBeUGzssoEoeL1B7MSpbG70jOoprEoHI2NJesrR6kJDGPDk5Bgd+EcSHTM7dzlTYyMKsmgMhV/8OiDRQd8WbuMyGpq6uni7r7O4i8Y5Y4fDMrUZi9i7VVHxbVihhDMU3g+GxkFYJD+cPxeMK7yWAFT2vAACh6L5I/tISveceGfpbn61tzkDB64yKQ6GrjtCPPPacOcElmmSPyo2XjxDS/ftbyY7XZ08/ut1OHGvCQL7dGuthBYnek4iE+g1oEETJqTdSwuh6kEW6mDmS0yHTwzDe+wCyEZOS0ftbG0JhUvys1S+IBbuGXHtkylJK1K7DXpptcQAqQurCxELkpFkkOw/cEhS0CIk5WKArw0w3863rWBbc7fKVIjudZo3IvVoBuFVIn0pz73KnKjOhjYe1BYLzVjvx4AE7tL/L9uxfsYN73rV93V+3PXt3WA5EkPV4YbAU0sxiJDk7umDX3zpn+WvTAH3S+h7bZr2DUQYvTh/ZzSVkQsJ/dRKs8m6yESRYz+IAMXlczHSatZD7QeYYOm3LF8IiEeH48Mm0HT/WB6Al7T/+u5vepsIJiWEV5ReQe6hBpiwb2NsY9zmFI00op3qE8JaWJ2xw233Ul7OzZ8/CRVxirNhQRZGm1ZaOblEAfuQXzWhot1LfQ39S7fXkld0Gss7Y2NhIyAsi9jqQpuWHfceu1mpfJ3Y/uLFthoSD1lZmKlIexF4XMfLUXAAnEdwFDapmuvbUhqVDL52nkHhd3iCONlgn4A280E0qz/sIt3Tk/n406124dfVYX1cTOEJmIoqwvREZq7cumWE3d3QCS/qtk5M/xCGIJVaMZV1fQm4mGVkdsetS8iRSEVxVX/7wXPSvgw/WBXZ+yOzCDafsHNGpEih/7GBolMNGbhxQdGiydDoHRHf/zlCLNLKye23kecWS+hLKV4rsNL8ZkIo2YCDJ14+4FECqzUcGffnE5KSdPvMerGW9tbbstZ3fRkYyuIuJ78CGDCFvUicPSEmHDciumUYH6rvsWv2CjRHWvEWnjquiYFuAnmAMyjc/p2eXrLGFhMJaGHiERWzrVtGsNqO8GOjshkSHjWDNlb+jHGo+/mi3PfZsg+3cnrG3/nYE+BJLq7YCsC8vL2JG0EFg0H6MjTvsvXffBki1yQOajyk6IXYFJnBWXJQJ9wlTQDKgVUSMDR4yfmSYDFWYHEgTt0riHh20OvV1iAZEpz5urXR2tllvbzfs0KoNDU+C7EgGU6DuNsodt1Z7laeFnGuybeM5+c7CqsemKhtqdVldmG8FAJC7nmBMBsVe/CAQVEaiAkcAsSZbt2QcrP5o22hz30pR++HUEpWnOhsJu9/bWQ9iw+PhAQJn3tdkg30Z2FVpXiOq0/vCAmrp9bc+/D03Tzh5DnKd3xlkcjrTFuYQ/fjO1gkamnP5HH8nZFsXC/f0SFy8/uolxomrKKkS1zG9ugSyE6wJy2reBGAxVdfBXlI701ybxkZVwkORmu0gwu1ovkUkCx5JtA2bVL3hO3T3y2mlQmc1Vi8VJtrlQVB9ckGZ940VALVcdXpOdkiXL6/Y+BBswMqH9s9e2mFdBLhcwVF/gYxgXZyOy5DTOQBWp3X7wAAI8agd63vM6olRl5GrSyFnXESp6USi2dyubZZu2cZ9npGsikVuHJuxdiIW72pqJF4ASIeIxX6ClRTEXaz1kJ3/4oB9RELqC1+Q15G9otEEqkpyL9iUfQ327e/22rnTWRJXo0EFGWfSzcCPTF6kNZXhMlpl+i7jWQVImJkhjDzGwA8/Mmh79223Tz4540qKDNq/aE85xemI7jZKDzLBFJh8bhbD4tkWWHKlBQxRdyut32bNxSz42nOV13ezuuL7kqvFNoVlTWIc4bFWUMB5ZfLisFVidcmO9bfURuv7IzZXkXd0+Em2yn2vo9Yexc9pd7PsrLsiqKiulnq8G3ak0aAP2APHW+zEwX7rJcBEBsuBBhmvS9YlearsYUSF0ebMDBYBiH0agWXhXQVQcIY93A4ma1CAccDadf3k/YzqkUAvRpp6t8ax6BUHIynbpknrKapNh38PFg/YvMiNskEicSn0SFRFAhjugdjk7snz2GQhVAQ5Ek4KyU4o+O5+WeUOtqQZq4C1bmU0zGw94Zna2to80c3lYTQ5FUqQh0DxSPYHsC+gZPji84S99anZt3uyduWzz9BOjttjDx22LAv02ZlP7NjDD1jvrl22/0/2W0sbpyfsGW4XAVk5O8pH5GYkUG0g1NMqEYMlXJ4nGVF7K1TjIpQBizgKe1yHS01w7do4B0JU5z7M2bXTV9CPIJeRTeWyrNm1gZC9gcSUkHvX/lXbdTRjp05zaq6KihRMQKm4coHNKFxKOJ4F3CakWU1jVJrLTjtF+uSTT7Jpk/b2W+9h1DwPYoooAkYihcTtro1ioMkndgH7qEW5bahGneY1bpQKS1flcnS4lbDcVV5whBRTrkEWWgZ5RpSdSAs9v8Y9FMv49B6fyB4uPBPi0IkiRPcZ7lfrTPE9uAStsXxR5a3RxuG4b1+Xezo88/geZHNN1t/PAV0wcIP68SWTQbOM0DFo5sRMuXwucAMyPZXxbxNsoJQa2azgCWTMtLUhYy5z5oYeqd54zTTFKhtBNrqx/qtwXsIb10Hpm6wbtFe29RIwsgUCA8Q8DFL78AwsLI1ITodZFrkKQHx9mIGB7C5DDcoYcCfv1CqdKNubrV+8bWQnWcEaC+ortPVelHkjDnnUyunQ3s5JUAXZ6XVtPIUOl7PyKqzB9EzSfvqLa/bC44cBgjM29PYV+83HE9YgO7NmHKWPI+TL5KwFgbvDrgx+FChUcgYtoBKkivxyEwt8A3GKx3CPR+qh5ljADhbs+pzNJ+bt3NiwZee3R9rUMoORKQMUYVZUJfZSbofn/G44XqWcaO1IwsqQvvFGwoYuD7sWLlG3CBfeTuDRHjtz6hyucMOO8HJ5fH9lDItRb1tniz399EN29MiD9stfvm4XL17hmTKbvEy3tnJpZOSmzc2B1JEDqtweoot3Wbl+RkiuqHNi+SuX9XXESXaCr2vl3RT8YWVOE6JBl5OFBXYVGVd+2LXnMh3Ki0+ki4BYmAM6VkncEtvKJWRewXJpWfaThP25Z7bZy8/vwYe1wXq64j4mcf0TtQl8RHg3SaQd4YsFRBwtETurCCWu/VY3uCfwlM+r2hI1J9DyMyhGaJUnzp/JU4l7Pmxh24oVtj2DEhCG/dIuq4VkiNyjfSP29sJ1nehQechFd4DY9m+Xi4bZTSg7+RyKxC2rDKrS4du8dfvIjklaJK5bE9haiyBE44REOTjeUmcDnST5VH1DrMGqXEGg7gRQ8k2VALbZvjhXZ29+PGsvHm+Cqjti5985Y/V97bbvsT3WMHgQdhaFA+YqCWlnBYkyS4k7L3ZW0CT2WQLseqCVlIvOOyCCuDhFXLkL5KWdXIWyg/lRQFBKEIxLhqXFjAtjoS4FNPA19qM1QGO8UabGErh8DdnHHw+DsDBvSSmO37Ld90STHf/GfbbtB332g7/6S9ewphDI5NkFinnX00t49mefsmvXrxHy6RWoriVO/Cbv9p0s84xXlElbG0FLZYoDAnJ2UWtey84q6szWntdAAgsYy9vKj0sdiYEuKBMKsjg/VCh+PxgO5xTXkJKChfXiFGRMu6g9rQ9YRyILZ1/lhiiMEOqQn3UcDBSiKoBNqKnwrxREmqAlDtDWhmX79kt77YWv99qJw122b3ucrgtFF0quZRDOEHkzF4C7DHDZQrTsdt6XOCuBS1WB7hRecgo/IDU11tiUBqfkEI0tutZV/rCldp4xMnOrhwixCdF5mHkp4kr6rp9C0HrWFb/F+zmKQrTaSxDXUpwla4ZDOxCzMmdS5kl+gpxupR1E3AWC7IO4gNJbBTm6HLpcw2X6cicu3TayE3s1DoV0dUXyq3rrYNOTowmyPbYDuvVuyid2bn4Cn8zrbN48dl51tm17j126eM0F5AJCtzXzzba2u2VKsLg8Y+cvN9tPfjJvLzz0jPW+dNaaH9ltTZ096OtgPbPIFIbrrZfIJY0psWWcTvKFdVimTrRW+VlCMi3mMWNpYkwdmJ2gN+0AiYKM/uf/ZcgGWLT6xv12IZKjKNjA2uLF/RF7q9XMgZsAACAASURBVDrR/8G/xkC4Tl5F/yVDPHUKORh2X1moiGXkcLsP9tjXnj9sA7DiH+TOQHyOQmUwv7imyRsCLt+ef+Ex60fp8b/9r68YxBcHA6HFZcsXazQK0x+Q6y2vBhvv2rVrOJSwcaG261D2rNKXePMXz3+1NsIhEM9NjFz0hq5thHxPJwg7GRCO1ltKgtLDpKhFR1o6u2TXVpmyW8EbQW1KXudwxKZPOHKShpT6+csNjkFqmdRO0mMe4Bb3Xasdiu75ftU5yemSwGwkyY8csJpkcaQ8kpzzQXI7vPz8IXv6sX12nIMXm2zuUbeqobvJDKwoWdsU0jDTDDtKE40I851jou4Mtp6FmYmWMUZYqkL3JMKAdfBfBfOkjdPpffVO6xtuRgqX4rpUX1wUtzDLM30ovsoVr754CfW7ngvs0UQXBvmqWHsJ2746OdlyQOdlt8phfReYj3JdXHfttpGdQEvIpoGFT0q+FZU11nbTPlR8QCzpAoleZtDmrORaSVQ9TXikJkj3bvviM5mL0J6EygWEp6q0iliWA3Az83X2UzSff3EwZf/0XxDyOjNjI0MXbRw5WxM+rw1QQNNsJtnoZeoRuiJnkBGzViLBWFIT+O8ho1LMr+HTq3bm+rIdefIBTO522F++9jPMWhoMv2mbmtHxJkpBSCsezuZTG4I5KmuVnNcxT0H256nN+F2XmEXL1g63uwL7Om3nz5PFDDs9WfG7cH1umpBRx+zRR0/Yb9581z54/4rLc1bd5uAuFBZ6Ek3vwsIsYbQE/NNsHEfjX0IRlNFWEaLZ2KjmOwQB0L1St7G15x1ieUAHC5rMJJp0EGOAm/ipeFyh3fr0Ngi8EPPOI74UNLEBG9VJdMK1PIhNFAu+iaTgbMYMqpkMdg2EWWonPSGRgTHLEFzJiF7+K0JqqWijNEGNSVkpv3intkBCMV5yZLS2tUIn498RQkvzfjP5g9U1TZO/EyO76H1RdfML5F5BXKO8LOJG/aH4uXj40bcUgwmJd2op6o8eFfLDTMk/4dzxy67oVgQWZEbe9fj5Wuq+Q89sviNraKgFik4GEA0sUNpPR4Z3m4MRIhOrtrSoUEgAQWOwh+rtb7CjD+y1i+dPucBcJZz0axtP7EU9mi6B1eJKi/3NzxN28gllFSPc0+p1G+gC6EBwMv6ub2y2eZBIHuosBU3uZzWKB5vjJhnRE3MpuzI0bX/56rxNQbXueWinZbFdy8432A2CDSSWJlFI4U0hH9MNEFlp8pSajymS4FqmEkQgXsGPV5FI4iTKGdj3MfwIf/aTt3hmzj5+/wzPiFJBjsO8dA72QdU97sqKV37+NpMggbsg7S4hICiqeWQt8hJxKku7ianSOsm6TbZcW2NP18+NU1dhW7j86VYOS+9TueLa06J5wZZIc655rCcCtFJgMqJyb/o1UT/S1Gru/TBTfcx3Hi2tez4sIrqBu7GmvLUMrtrJB3vtu0/ss8cPt9lOZHKSq8m6RU4M02izxTTqSJIHZDPXA2XIYcd5ucL+SUqe6xihhqLnfB0C4hybzrkiox0uuRQSJJVR5J6yyLNMU41Qi9It1FxK+1w0pQVGg2sbmI6aG7i9B28b2WlCG93QUS4vgcraapccfja8FMwaJDpTUMDc6g0bHemw06eu2Te+s98OHDhgH3/0EexU2OArHFvySFCRsaSAcBUkPIvx4jufzdv//m/P2v/43z9oB3YjLIVtXZlbsbmRWbuM+ciCe0bM2P7dqP77kSuA/ObhCaeuZ21qNGE/eeuq/ejdw9Y92GArLS02P3QK75ab2CtJ7tfhxsb5HME8K20271W0QWB1xaoq6sgq5iPBfEMCZlEHQhs6miUDBMleGLHRMeztGGMWZYRkUHnslRrR5j3w4P12330H7b/+1/9s58/dhNWB2opO0g1TeQcuJDyAqkxosh4k9asppdt3Yy9WCbEu1ldhm+JEN/5UAeFJZhfMeBSySXEBFSRWstQYCa3VGiisxKq8DzS9QhTBmFvIJYHCKoc9Y6oxZ5nDDZZGmZTrx/2zZ9Lmts1Y42C7U28x4iJPEc8q0Gboju4JB5PWhINO2l7n+iibj9MPS/VByIPH9Z6QahoPGgX5UbNeVJ/ggmfEOtYTDEOGBwVkunHjRS+Gd9Z+3IG/4raqtXkHmqlUxW0ju3qfbZlsSJoZkF6lxrZy3T0dUByIRc1ggzGHXddKrtluXs/Yx79dsSefy9knH0eO2V6xjG0BZB1fFKcyAOAU9kqApL3+ayGQ8/b3/3Q37jd7Ic9v4PqUsuZOkFQaY9lJkAj4YmZ8yrJzjZa7lLQfv99hP3pn2U6N7LMZkNTu3dtBbjLaJNl2XTdeZ3kMxlH7YwZC1KdAl2g6IqQXyxJjdnWFjeix0dCmemgh3ziSs6i/IDv6HtuI6d0U87o0I0iVWY0SsvAn1ERrc7O99NILNjW5ZL9+4xJ5Prs89FI16sQbuY2yijiht7cXzXg7yE5IWraBAbsG+WPpsV6uMT0vSI83c8xy6/ftY2odFGLzpaRax8Y6DxXXr28904vZRiesYw8yUnkniNoqJwKAEovWE3UW40bZBIWfh99sakImtwuK9H5kbvVoa7vJW4Ld5WVYxX/z0UX7An/Rbx+4z05iVyalq1IKy1ykcC4xZZo1zaVCmrei6fctJMqPrkjLKs29FA4uawu3nAKcw92qEQWAG5lzL1Mf5IeIxwJ76rASXvHhqyXGWMe+WiaSUFoRt3X/TiEe1VMNBO5UO9E03MrXbSO7QqNhlW6lD2XfcbYmkgkpT2kaecQqiWmuXJqxH/zlaXv0sftgVZvZ5LLml9eJhsJsg/ACGxQDd9hIY1Pt9su30nbj2qK98caMPfhAN9F9sf2pG4FamrGujnZbzNfbKOYk505N2V//tMk+uJixm3C0K+6xMEXkCcJbi+1wFVTYsqpdemOZF4T11LOS3cXUmvxI+UQx5JyCixDcug3ubBbIzrstKi+UGMZ1WYCdxFRednMff3TKLly4RFinYeQvLfQhfjJ68U5/sR6yeVQ478lJuboFobyaCci9GqSv70xFdtMf00gLdEnJKKqNMWhN08SMk8wrqZwgRcV7F204hVavTw/43YRh1iRtLw9USo8IwwpMSTkSlAor+F2nd8K6EyhzdRc5P3DRWoLyXpYcUKHtgdPzGLFPwiGcnvvEvjc1aN8inNG2lrX+F9ZVIMvctqDhdiWnhk8/hdzUZ5cRlkyHkJSizoTtwcpH1KOuy9auPChwXWPks4wyxJ+NKbxoXnxCbqfcqXpupw9V3r1zyO42joiyc8Rip1hFbQxt8BXZHxFeaGFhxc6f5mSb+RwkhecChrlp6PKYitJYg7/h2uYLMrw07EK9fXAGg2P8+X70s0UbGKxD6ZG1WSKFtLZj4zaFCe+8WJe0e2LMKRsZml2xm8o+JtORLGzk5BRqzyJKRH0UjGbYEE6nycMBbZ+HVHJZnAJ2xtngVWeMiNdWRnAuNrZc0diCmj7IyhagHH756jsYpGO35C5hsMZx+KFyFdyJa8gpW1vQsIGUFcpqhY/3S7tmy6Ww1bf05kaPi+LXw9wp/6q08R6M00s8p+sRpYd1EiJxE6FoDIxF1gXrCppt91Hg2SWipDR2oZ082G7JPSs2SZTqyTQmKTyTEdUEbOj1LG58inAzAzv9ztiYjc6P2Rcoxf4eHi4n8ShIQ3nixec4SV2Qs0Q8i56WE1OUZqi2cLAFpx7hs4L9HT9apNItnvpalkGIVfsqdqep5Z31s/E7/esOIrs7Pw8xcIulXYWyW8AcYwWqSolwbtwQW9voYcmXEXoE16AKfUCIIXMMaXbrUHlNs1Gnp1N2YxbNJnyp7IibsQ9aydYjgyEkUv0kG7rHZX5JXHZENUlrpoCPCeopmI8APO7XKwhn08gNaFVmI9QhROcubI7kAiUYviM7RO9qeeRWYRSOWIRgJGNU/DqFsmqAJwqIvtJbd+g6Y/OwTpSQAKlIOXSHmihfjaOE8rfKXE0mFRwT7aqrJMs8EF2SUXGweWQVPJoJJcJzovDEssp8R4oX1yaB5zv3knNkF+6IHYRyx552GThK4gmjIB55RC4N7tKFpzIAIlZaBthJ4PYMLOfZc6fszMSYfXfndntp9y7bji9sXNRNNa0DLcHBrhBaWtOQ/lHsrMI+YQCPNkNBOrcwHYU2wvBCIAHFsXBpj8DvDnjXrGvkHv5x7yI7FkPGmBmASJRVA/GuVuZlD4UMQ0bA+JrkU+T8XMbJBoAUgREc06WVVFYswV2gDAW6YWETsLywiEvIdNg/ysWQ4JRrINS1LCgl3E6S6T4DlZRpmkcTTG4G2XVhX7WE5k7AJyPnBmSI6fQY1I2SR8vpuh4zl5vYJCsCMJgTK8yEqDmXAdFGBAD+7YqIUIqpomoIy6nbGIgimaRYnyR8SLX34lfu1HdOiJ85+DLb1NjXU49SMGw8JNzDL8ICCQ4pt3vjWkXNn29yVieqyikeWHTl8BXciYrqxO1q27YWe/yRBnvogU7bRVa488QH/PG5C/bGtRu0QQ4Q3mmloWVgbpl+geZoV7Z2UpjJEBlfV4l4gK93RsbszOyM/XLshn374AF7bmCb9WsH0k+q8m85IGQwX4nOT+TBvEofk9iJrI3aUaP3v5ZSgD/ndwX3xZxx7fXU0ta9/My9iew0/6ynZG9N9Xnbuw0ENwz0dcg3UOnaYD8Jtikha0YnISdqyCVAZGMQ1PLyEoavBAAAcCXYzxM1Q3k0Z7FNm8ekZJww75IDSohdJxaYb/mTzsxC/c1jVrKwapPjID1/hmsoR5rJnKTw5joJM2gyplDxN7WB6DLLsMFj4DDZ2Qmt4hIGQguM7cZNeavAEFN1t/r+bb8HteIyQymBSli90LfaW4jfX4/Eqrzv8swAD2tPOVlS5aXNb4myk1mcEEkWbXoWEyexjgPdCXvwSD8JbJrsoQd32sH9HRh2h+YOIOPb1ddm+86226+v3rTT49NYKSmiTkAkvuLR/MScieBM6EmKslHCgr1yddE+wFH+jW399v29B+0RKsevP+CvCPZ1TMpVTFVJ+SAbPPnvewGzqx0hc5U/HHQVxnur/96byE6jYZGb0AY8enInsrV9RBUBKWG1X4e6XwJ6bRRnE/zk12lMNjDcp5bQ68sVSHHX0ngaZJB9pIEUiclkYL6I2UQOYfLU1JyHbRLyQ5ZsVwhpfvXGol27AjIcI5w72dLTWF5K/reAp8AqeWtlZqCkJP3biP3f32Y3R65bEq+IpuYQTy8tgBf1B4Q6y7oJFJYijUqLWDNSqFTBnbjOPHg2e8ZUGoW59urXqDKn2FweoE/JoeDqw8D6BxqE9WM+RYyJUgtUXPVWw5ytr1fX4rBU0nIqAbsi5SyT0lKH4Z4duOaRoetJ8q2ePN5mA70YB+P3GYxvQ3tyLnuQawMPHbVD3d32s3NX7K2rV+0KcOBZVPQw1PeaF4YMVhwsgEEOV80j2cEIKGw/OnvNPsVg/I/27rVnsZs80dcRcknwrFy0ZEoiJCeqM8brQppEJ/O5KO5X9dn4u7uagXsX2UWLrBDjPSjOtMhISPzjp1pkpiF8ojOVzJkuWpEPqtLHNbkjfzgdtUFjNnA5j+8slYl9qSMnQI7np5GpJOsGbXh0zoauT/MNO5rb5Yl+pP4nIDFazzk7fKAH/39YWOzx/pt/8qT9/BfvE9tt1MYxV1mGLEgQacTliy4Muj2qQ333TeKjkImNZiAgALE8jizoe60I06u5zaK2Ymri1quSWEJjqb3cCrIvVWZICy5vAM8HIdkaZX5uzg/LQezhHnm4x15+dq+deKDFervz1sY6F+ZWAKOBR0sq5Ty2w/bSzgHb1UaO1r4++3effmxDHJ6LnKhylNe7jpzBcnJC0O/gn8P4wWSSCWa59tH0lF377bv2i5t99ke7dtu3duy2vW2RoZzvARrTwekx9JAPwlwsYthdL7csITzV7XcqlOKprvhQhXd/zy7fu8gunmgd8lrM4hX1v6NVjp7zw08P+pEIsESL7MFFit7FZCkgTuRd/jy1NxI0QIilC7Pzg3twWga2pmaWsWVqAahanBJsBLiShHgSK6Hs6P/qX71s3//+E/bDH71pf/Nf3sYcAwPgyWUS7kheiB8vcbpi+yzlFHCZTI1FGkFtcE+SAhuuxEOiKH0oIArPUcE9UTjFJidfJuKrcSiFxzxBOb0VhbySOM/4lGkLA26KxBWVd+taS0q5Wb7EB4tWcWNR3D8dFivMYw5zEJNbFaH7u4gYc+xIl33v24fs4QdStjNKRZgvBHXwCaaExZPc1n/xJWRKUi87jmhld/Nu2096yR8Scebnl8dsAkpRmcAS2EQlUqSdlJAMSlJrGIJ/CgZBvpBseFczI2n7jNBIw3Pn7L2RaXsR9vbPdu4wXLJpTBtA8ybRCDAo8OYfrf3EFAoqjITj+J6lI5exssLIyVODWAF/8OXeR3alSxQhsdLLxb9FWIWNr7BP4U6seROnKTw5OUnOBnT+8pH1SWAPBBcuHoDsQ/1hzR0YD4PY8npZShBJrXk4ieyum7RzA52Ddv+BP7fv/+kz9va7n9r771+0Tz+/bFeuXocNxvSEzSU5n7NdbPZaKRQ9196Vs8efOknQ0Zy9+cYX1CW2HQE65EIqrUgtYufpDHH0NNY4J0S1efnq76mvMvzVolRCXNwqY5qzse8xgosWb+MDfiX4pYAcnEwmOgjKrmaiyRxDJvfy13eTlrDHHjzaASKRVn+RMEsp1px5La4+qlsUu5QFEldI2btE5jvZ37Vwor7Q22dH2rpQOkzZD8+csfdGofiBAZmjoKFwRBUO4HBoqUrlg1Dx4K4cYtcIPDFBerovxm/aO0SxeXnfXnt+Wx+HsdBteN+NkpFVu4RYSrCcYjgGmI66ufbFoasAA4bR9N+Ve5mNLbc6NSA6vSYZx1qm+lBRoOL4mzqE1JpwZpd7W6HoxNR7gJU2owyWJdeZU6x9MGE9Cgr8w7iLuw2mDQJUWb23k6P1oeM9yHhetGvfXraPPztvb7z5kb3ytx8QhHPY84qYB+lUzbWXZ545bv/on7yEPd379qvXP0ELjI2fxy3LWj/5QvfDUt+4Mm9jQws2OzNTMyKtvQd3+smY6hLCEzup2ShPiZVvWYeF1mvzd0Jst7C2adqRRlOHRWMmb4eh5J55tN++/twuO06opfbWeF2wlZNNRlwEa9GCiet2RkLafck/nA2lgPQUBEDClQxUXxPk+wmM04+deMj+r3Nf2A/PX7aLs7O4FupeEDmIyosPPSFiUerqqZ+HfBaAq0twFWMz1+wUplLvEXzhW4ODKDEUlYcHHGnrfwUB5TDW4R3vixjAor7Xc9IrFGRp/lh1/Q+x/H6ifC16hMcK4iGuFbaKgAXZmoS/KjprHQD5XwhPsvEWrN3FzirCdAsJRFSP5D2aMEnOXO6D0ZMoAkDe69k9kLG+gYP26MM77aUXjtsPfvC6/ZefvW2Xr40T8WHNrsof3qTsO7DH4/idv3DWY5Wl68mexma9//4j9vf+6fO4Oi3Y//l//Ayt8AhmORn3Wb2rpcjc45bYZbnGMYmSp8rmUTmDN4ah2jiCNTOTYiQX/x3t/LWV9QqC0SzmHyijVhAh9HSkbXB7vT316A6iA2+z+/bVEyoMo10HCNYxrqa4+SLEoYMy5hZcVspvUVMi9BVg0z0f+N2Js2sSkYe44H955Jgdbe2yf//ZKXuL3Ch4FNOvjIfad8pVbL2QKL/rJJqIuiKErr8nkcuduj5j01NX7OLNGTuB8uS5gR12jBBjwvkpYiimFGNR/RSRLIwnHjdCdD4UnpM/7t+VMAO/e8guBsLiFYxPtvia4Knob/EeHqoGjwgCiBDoEpso7PNQplljq+Q5aOaID0DOHZISAy/MivQbOhE7OnD+51Y8UfrbT3WKWJiQJSr8FleSpa3OlmZ75pH9tmuw07729BH7wY/fsDfe/dBGCDygOHyKtpEhdr+UkS5LglrwfRchTf399uuj9sE7b9nHn+CvRp90r7en2V78kwZ74Zsp+y8/XLZz2Hu57MvZwruM7Njt2uja5MqJseXibLzek/lKG8J7+XUGcx2vy8knLaSCSXD4uIyPUfseDvaNy9kp1kQJvoMCQM8GKkmrLdu0AAjLIH4dRm1dKTt5P6kIH2uz55/ebzu3KYENz4aqXe7vBKY+LKworbyHNMIrB7crt8HjI/wUVQ2i4XDTdGutmfIl5qINea4vAaWZOvMYX/cAP3sO77AntnfZDy5dtB+cPmvXEUnkYSsW1TClCWpd4QqW+K22k0K8ggkaW8USYJ62LhB2//LwlH1Gqs5fXh+xYyQ9eqS/1x7s7LQ+IntKDScu1Z0VNXx1/+9K2Rn43UN2ZYdR+aJbJHEKLuHhdflXpLr8gp+zgaqb4NRLtnNCQup3YiHv+bMR5ipXTZrvdkVs53sFiiqHjCxB1BFtAo9iRRGxo02gfalwUZPT5GfIpo3cPTjrZ+zAvgEb7O/0kFSffv6UvffBBXvt1c/t01OXYG+JKNzQBnxqA0iTi0KDX6J6BPMffvghQQwymMhMEjwUkwZckPoGtyFU77N3f3PJ3nz1nNsDpqEsshgz3/XCzhYykbLEZZgRYt5Ku0ISaf7LoSBQ8IQ47WG1OiSnFHLLpHpcWePYp6iIJQ4hmMIuz+cWYO/qbM/OBvuj7xy0FwmBvncnPs2sWWQKF94WUimqRwfVEiGHlRBL/qhaT40XNBaQqHtVCNEFn1T1QvMgU5JF3vWIeMJVaC2QWjjiEU7dA1fw3x49Ys/sOmB/w+H0yvmL7knRgNZgHteLJZC8jI7jsPAxwvboNzQioi1Hxy8iD7kxN29fkFz6tQtXbQ/a4sfJ/fDM7p12H9SeDgUfkL5V/g7pRROx9nXvILt4kTZ0cYsX4gX3xebEBCHMXKyzkV+bDX0MYlmAKuA4FyGxiqYqQR4fKRAWQHw65RWBXQhOeZPH+UZRSzhpYsj1A7qtCoOewkeU5yRrEWKiFQ8QS2km+Jf+nie6cWtzOOpTuLMd2Ntl3V319vjDD9o//P637bPTF8mP8Rsilpy3kTGUDVAC7nnBhlKIeNnp5ZAHymZQHU3CJy0ReXn45qi99vN5Ql3N2nmiGku7mKB+UYa1Kj+2OJvrHpcHRVYaRieHbqWI/mgCcW3HRkwRR0ha5DMotBCKEzdFsJBCVKAAm+FDBFyovmJbOR02SxieSaOey07arm0r9kff3Gff+cY+O7Cn2ddKRVXideWugUpxip2ux5ITda17oxxUM/CfLfC2UgjI2cApWe4pWq/kda6Jjw861rkJJBVZOIVGon8FTw6GAjIoTDzL7KHWjHUevN8OEEzhlTOn7TfDN/HOISIPrO+yYGmdUkYuiNSh1/ljBaNlySEXOF3ncVkcRdt7ibBSnyBPfvXmGP627fYYmfIOd3VaL0K8qqujAVV9YN1Qfq9+3DvIbivTuv5wX3szXkR9C7BnV23iQt6G3lm0iXfAXlls9ABYsR/YdTo7ChoDKlM2Nx2UCOk5AI1Mh5LHKDOiaBhiEFiyN2E9J7B3S8N6CTkRXlpGn6ojA2siR3Bp3ZqbQE4RMlBKzNlJ7PLYPN3tKDWgHgd6Vu3QoU779h89Yh99etP+5q9ft7/+8et2c2gCqjBIANV5AXeKjddAgNAs3hn12CGMw878Cru+PAFNdT2J25qzWjyv0EO3joRqmHwEnPL9Vcb6EI1GM0PjvkkrLcj6epXDQsHWUnU7QOoRdajNVyjrEV9w1AfJgBjl2K9k1qu8VwfyUXpDGYgnFWYLj5rupkV78cU99sffPmCH709aJ8hFDlauxWZpVDPxEzyfswedgUiU94SQnjSsy/wzrwUn94NMi9yzQnCkS/RRSFWmbcJ+ys1wgyCc7Y0oNUoxR4Sk9FxYzcAOj2Ks2QcgfG/3oD3a329/de5z+9WFy3Z6YsZmUe3m6KRkv0mx8PF8OjxrrPyhDnhBpsfPWcY+Q5+vzGbtPdJ6vnbtpj3S22FPQ/2f6O23HuaktGv+erxHotr+kL6S/xPlnhhwfOJEiMrlKYJQ/Y4WSCemtogK29tPvsIGV6ReZEIwIv7QymSd3Xy/zibeT9nEZ2AbWNkMLEYGFlV5P5K4eVkLSAWslsAlrQmFhNhYISq8zTwxkqwGVqWMRc5XN8xv2TVxlMtP11pg68hoLn/IlHsCYLoA5ZOHylCilSnMCNIAtyK1NMJWaeNo0+mkVpy+ZliT7eS0fejEUfvmc0/a3r3bcDtbgnobx61NuQtEBSHPgVWSxbxixykK9DKaOuU3UGAC12j6Jog2RDQ3d+NLioWjh7bb3l177dyVVuSeRHRhcsSKKqz8piVeR/XZDwOds2GMMbLUeJ2i0R3GJ8SqrR8CbCqaMBGxJVMTVcWB0wymuu9Ao/0J+YH/2T/fa3/vT/f771ZIM6fYxAKLRBNC4zUhO8Ud1TooVBfSARf2Sztfx5zKzKiJtZVNmpRXuiclhnrqdshQYIvY6d0kMU4jF5oIYujXtfyOoPyP8OV/aqwhYIAOrjoodAUr6aWNh7v77D5y8ba3EWyC+HKzdG6etZSsMcskSDTiASY0A9ThLDIfWQhoblyRpg0CzAtGxuazJIFasNNjU3ZuYtKm6GcKuV8jUYuFo10cGhf1+Q+w3DuUnRYgXgRWJ6FomF6ii1pXPm43588WrZgoqCnMMhaxQ5vCtGEU/HQRo8vLnOTI6mamlgjSmbb+oygi9nFS98gPktwSJHuevw4wTuXwd0zaBXLNzpF3QlC1IrKNLgiEfbMAgE3YNM2coa0byPig8npPhLwB2pIXb9xEATFiM5MzGHG2IKvrh7qAKoNVyYKtUgquSH3KLRBrb4F764Xa63ogYzsOPWbPv3wU1vYz+/Erv7YPPjpjs+PKRwtLUHvasAAAIABJREFUSyeWl4P/ZT0mM0LwxXZ1d5Wi0/h9Dgh2gInLMmn9mpvJ58GcSAYmVi1kqNrqDvKZLVu0mXU35HsgiY0LSTmMQLgyEm9tbiIWYYt97ckddvKhLhBwA77Q8poJ4JylT2mFB+Ot2L9Uf4NXQFABFylKcCzD03cLbTYL0fKgG6ILWQVc40Agjb2z2NwcANvibY2GXRgnGoIM7zhktcZFuNzrqAeB1Ue8rTJ6KZIKaYjt6f4uO9jVbJ/37bTXrg7ZD0+ftyskkq6jXkXnUfMqQS4pOlGoPwJ/vmN2X8mtctQ/AiYfhU//gvysv4JT2N3RZPd3N9vh7k470IFPb1OHdWzNKCDqwe/H172F7LS6IhL4VkQJKetEYSmptP6WfMRPXP5eJJTbzHDWxm8SN2yCEzaH3Rx2aAk0rvk5QIJ6XD4D9dG+O2Ed2wkesJf6UDbMXuHdK+SgABFKQSgr9iFY15kxkpFgHkBKCXcpk/xNLK9YRYEZwYCd2lNMu+Up7O2433kMoGvQhifpUEOzNfQ2eDTffqL6asMK8JtAdBLfeBFpGkGs4B9dq43Tx6HVWbvZtGDLjzZjXvK09Y2etLPvnbWzvzllw1/cJOl6l0enlVB8GXuYdMErPKr3bn9hvKyEzWI/66BWg81b3GiMGe5MJ6SxlHeBon+onVWw/dLCDCYkILn7B0gsvdtefnkAJcSaDVlBKx7BEHoiR8icEXi1hMT1ouYifLiuo/G56kblwlbOv1JiRMa3qE6ds57zN82DIrPi+3qWdc0Cl0tQ92kwqZJpqSuFM9m1WdH7ep5qZKvZB/XVjlnMA90daFn77f89f8F+fuUSChIUZxyUjmljeR7kWYzgIhCK2lDvAnUvre4MADtH4pZLC9P2/kid9dRftp1g+gN4CAU2dxA2l7qL+68+/Z6XewfZsabKbjh6YcHGbsCqLSKPmiLJy9QiMiruLcmbsAFg5YQDsCS7X4KSq1NEE6BwFkBz63zZM8EmNKBUSMJqdrQsue+jRETDZ0EslxEqkyBFIcwE3OgBnGVwmzsS2ghASaDlGlcn7qJ9rKxQy8hpgtVACmpx1c6hBd2P+UDnkTrb2YPwvJc2xTbx3gKYdnYazSBZplQceaLiqwODynMjAbCd5iT+4bVP7P2rl+wKFMPywqKzW6tkOssR8jv9TIcdOPGsHb8Aq/jreYyUT5Pha4LxEhbcNaJrRYhVXdXmiA2q7yjFp8miuKuSsp+x6+5E/UL4oehA4NBgYdIi36GUFlhkyeY6oGbv21tvLz+/x555etDu20/idCLOiCXNoVQIDvGBEpJVzDyZbdLINHV9GWWRkgTJFlEjKN7fhb+jg0jrHdxd4j6Fb8FAeJYH1eGCOp51pT21KRxI7h7itsrZf+19R3j6qYsRWyoSUY4NQ3AcKwS32ENgAbpnz/a322D9fjva1WSvXR6xs2PTNgXgrDiSowHaXYlkpHET+i78LcxKG6KL6+inzJ3HgfMFTtoLhJaaWUrZftIQFDBmoXPrx/v7+uueQXZCIqIcGjsxzG0lObBce0htuMQCZXCwH0dmZmMgJyiwLHkZWurJGYHDdD2IrV72crsEUBgHSGuGLgJOB9YGTRcn53myhK38osnGMDshEIprWMGbQQg9K40tFAJUxDwpEZdmFUIKWRkwIU2nTEE8fJ5ACu2bi4D4KCUp7tjEsUMOiNC7HrkcTxYAPY0WMS92E2CTfEUnchP2DzmQ3PmlOfvx+U/s3clhOz+PfAX2rA65zbKAGn8gyf3k5L/E9bkmkPeDuDAdaLLDE0/Y5ddO2aevvGcZDgIJ7JWhPseGkaJF9mmiTEQxyAukGjLasmGwWEPGlAKDKCBpYPBjFCs0ux75Vt8wAS3rmZCfIxgYi11dgZITklOcuDbWbhce9994dqd954932Y6dLdaOdlV9X4R6n5fpDfLWNtY5RjDSbCYbZAjCc3RP1KGc5oWMhAsg/qHWMfcA8sVeelnrTmBZeQ8c69S4vC8KkUcipOgnYlyoIstBsAq/rKgmUmzptt5VezEi8r+EKKN3hffasbWUH7R8WEUJtqBUONHYbnvRrr6wfbu9hWjkzSvX7JOxURuBPM0Ci/UAn8xxXNQSV05jMlVZUqgprqXB2g10ZAF2qBGKfBblyApq5McIGvr8zv2KlPYHWe6NYUcAkG4H6LHKbAY7pD2DDSu3AlZibQlE4SlVyYAHpSfbJLCN4u1rwfkTG9XAMqguwRSyiYWbsLnXcmQKa7CZcyAdDId3PkBS8vthe0lGLCCbAoHOEwpb8rPRcyuwtyAtkB/pBEC2UDFsBFH8wKUrLmTqhYbfWk6uWNdD+ChCYWTFcgBgTjlAbUhrR8YMFwpJMCygHAcQT4PY3h2/bh+ND9lZkn9PwKMrqZ+KbLPEJq1ArmjvCcmm2Pyxge0s1vIX+pas/Xv77akntln2vSn74M23LXt13joyrR6FWVE0FINPgnC9vx6hBcps/c72pmsrdE7xAz0AgVMoW0FuxU3EmCV8y+QisHoytwFpw7pJy7lj26q99OyAvYRb14F9fdbUusQcQ/Fr3XlB2vQscyq2TUEaYhMQUbU5lBjiRCWXExLxwm9RYUQ8h0UU/c9vrknrGvdIoCShf8JdIlgL2EFElJaHbVeuVcVN9EUWJlMD/O9yP+BVl+BgLQdspnlO5isb3LSKkKonxAaWvKqi62q3HWB8qLfV5WzP79ppn46Pobm9aK/fGLbrpA8Va59E4aYD1A2hPfQWMA1FrEMyzxiysDKSYUp73Qix0MJBe6yzy7aL+gwg52P8Qyr3BrIT3NATUQ3KBgbI8GFFWEB5DgjoVli0JBrTBBbwaYJyehGgRSXQGJyuWkhO2fkhtLHvpm3kKohoV511HTHb9SzU3g42CJupDnukZoAiDUurisQetB9P2xzKh6lLIMALga1WvoX2joR1kZvnBvckC0yTLi/TLvs3ejlDH0GK2BxbQrk6BcD8pyCXKsOQBmcIGvrzq2fss9kxMk+RaBrhjhCg+gxD6885O1cEhXGWMZdZiUQBsnMplCqkj0oqw1dXnT30+Les7sKo3XjtfWu52kdeDoyaIVPrAHpRX0q9GEowTYl2anQttBv92PwLBCMXO8msSv2OA7qohPw0DzGiVTPx38rLEZC68GYSCrWlMYuygdBJ39hvL3ztqO1j3VpR4AQgJdOa5Lesr6LDS2TZiF2jEK8sWpTTQUWU2Bw8YiMTLETmp5iK4IL2xAWK2p6CtZ1lTI0gNnJXe35UnxGRgFHRGpK1kjZggWlHlJVXF1OE0XO4qAYcyO9lyfNEXbq8rXJxqg+EWdYqTv2kv9i7Q7VC3TZvs+e3b7PPRibs3RtD9jY2ep+OT9gkHIAo+ySToWg+Shkwx2mbpt8v7CZcFaYo8/NTNk+g2SwPHGqVRjsg+RL8Wrmjv0d3qq/IlznQeO/591q3tChKkahMEK4oYOOvwlfKoVpxxYQf3ETA3wPSUbkvXsKn9Jdsyisgt+2c+geWrW9Pxtr28jA8CedgxPZICM5r2ggAeR6E1tpF4uT95Iv9HArpKptnQsxpHgMLohlDCuYmCNGOTG/iGhvhbZAe1NeseCMoj/odddY2AAveg7Ztu9nVFTKZTVyxV6au24eTQyTwQfYWCd9lq+Zav6JSB3UoV6EcQqDY1krUi5CXSMxVNvECGpMlWPdlEPZqS94eOnzI/vybj1rPpYz9px++Yb957xTsHRQJngTMhCsymKYyJb5aK9hz7LAO6xUTZaote0mUT0CGOgNk3qMMXKsgfclZe7obbPf2Bvv6N46R5nIAI+xmqDUdfgGNyq5Nf2vtpQ1Okh1M5jdyctdMicJRvRqRcJXYU1FcgotCAT50LTY3SROQVbK8FdZUZkyKICPkA2eMXJS1hLNo4WDJULGWSfJW2ex5jgiXv3FRMBetocMpH1FXAZ6K2t7qn6ooWh41oSjGDUzCo8R2PNK5175zYId9gDHxO9hdvg+Le44o21nsppROYAGNTAuH0tNtDfYdUn8mEwMu9hlC8L2DDGYqruRwqiDedFvt4O/m8/cOsqs2fwB5Upud/bKEpbs8CZtYuGTskxgB3Mo8EYjP5+zGu0u2cA0bo5566z2UxL+VkxnvB0Nr6iQkpbDUAFZQ6YOgnDpI2OhMxiZHQKjY6i1fx5NhIQMQ8QZkRQMbTzK+uZmEzQ7xNL+zbJwWhOjZ83U2jFPA9M5xG32AjFKZEftwasgu5uZc8SBZShLSwuO3cfqXIqEVSBT1y++zdaTsqHdhFGOnn7IDkwnD/V1d9o3+x2xffavta+5ww9rOx9L27HP32/u/PWc/+smb5NS9ZBfPDrnZijazGx9jPC3fTl0JFGM0cRr2ZkXKHzaIhxgPlsybveH3RTHHyMjfZRlkbJ0GsQz0Efb8ZLc9/7XddvxIp21HK9ko/g5qOg0lEuRwYs/CptQBIU2nkJLf4+P4TMPgI+QmJCmtq9rU73iEXgO/xdbqgFPusRXWLbosztgLNsUE7kSW5uQiF4W7iqYpGPjyYPHURe+GGvi39Hfhxhb+8IFFhbZSkLOCXFGR3ZCiO/Dwf3qg3y7PwuYSavuXFy/aRdjdNAh8eQ5upKXVegQvGjTkaD9pQp3SpYR5vROdLPTwd+KP3w1k5zS/WB0BKg7S43mbHCXmGzK4ZDvC1wVYHBQXUkBMnUGTCXKq35u27geS1roXQMF4eI4cA3XYIygbutbcl1rEhigA/RI7NIzQ+yyyu89R35+BFcHEYxWPCrFbSZCMUixKq+q2fsCQv67Nw/0UPNYcO+mtplF7L3OG6MXDNoGMaQa2Ig90yQq/DqQdENlG2HDFAh/hpEAdoGiR1pXfzXJLoovPde+0pzsx7G3rtu3ksCUOigeQzEN9KMHLQE+nfevFR9BaPmJv/Pq39uqrn9ovXv/YrhJ1ZRSfygYESdqsy1C/yrWgut1mjzqEHKoqLcBSMmLW81WfKxmaZIc5JtDHxOAykLPb+jP28MlBe+HZQU9kM4ALXpPkZO5VgSwV6iSbJZGSEJ9WxxeLd8VDorSIS4xv9C3EpsccL2o5o4diRFUgZLinRwrvRL91YQbD3KxCQSHfapDGnDolU1OpRwAXgaH/1jpJCyu7OSFj3YuVJOGN6v+qX6q6pnei8cc16p1WDvrWdKP1tzTaYcJKvYxZyRB2VCOwtkPzs3asu0dOIqEwDpkE/qGX3w1kF1CTR5ZQIrC6DlhKqKqb7wBsk5xd8LM5ZRQDCroPEVb7IAANhSWNmmRuS0tQBIkmHOoDoC+i5WyQRksFRcTiNeRxVxM2/Nu8LVxmP2E+IKPRNBaoOYIByEFA4YJkGGzEP2tAs1WnfLVgICIvocU1+wi/zDe6YFe7r9lkM2HeEWpLcKwgUELSTlBFpRhZxBrTjKi+yKSEwERsIgnrE3ZfCxE7ehDSt/TYjv+/vTP9kqM67/CVNEv3bNKMVrSDhATYYAMGH2yMHXyC4/jES+IkH3JOvuUPy2fnODnOB9vBC8bEOOR4wzjYgA1GZpGsbfZVmjzPe6t6qnt6pBFmpBauC6Purrp1l7fq/uq979o/hBxHLfUyGa0UhNMgC87t2QIKioUlwJx2BkeW0pOfeTB96L4701985qPpuf/+VfqfF15Mr5Av12RDcmg54nG2l9OmrYUoa8O8xrfrrxxBXXCUg7vi9hwZ4jHCFD360N70qU8cTI997BB2c4xdYMoYR3++RRAjgGoLc0u4dmVPiMEGWzSOlSQs176AcS2Q0UayNNHxxREmKvbHh+eW5YJ8e/Fgaa40ExFP8Mzgw3Epe43Ye1VEAuVW3E6b3lA/Qmh5hS2kJjmOe7PF0GFztGGPA7wJBXs51hsq3AadedRID+8eJO6zIho0/ld34UVymyztG5rwn1b5NqMIDyZv0T5M3UeP8kfWMR9aE5go0O9HIKMjfxb5+UgDNPibLiBjm5xawD8Vw2M5OeRFF97BdIWUiu++upQu/dptKsex2RrGjKXBIhxDMN6P1lWzjmkEOT6IDX73jePkT+igYbiOSR6034N0L7z2enoGC+Xf9k+mywOmqOJ/tGWxrFgc5WIJMwvvl9wR4y1ldnJWS4DbdoVTIJhSwuPkg/34/qPpC/uOp3uaWL5j9qEyWplMpHfUZUxsiMXHokaIrlZYTqqhL+32RjqIgHr3J4ZIIPOhdOatJ9PzP36RwKIvpd/89ly6QPjvSyQdMvqKCYoiUUyXIjDrrynnG1tgxl0F68yRila5aEohSKvI0HPkKhFd7js9nh544GD63GePpwcJnjkxKjBQP9gb2xVs8/WzaD99qTXYiwb35GJG7ijdBCeVVZqlWEegU7vq5VAuAMo/lRCaB7ltYzSZc7V96cS5wmSQ67K7mlv9nDiOC0Jeyidtou+MMRRDa4GtgST64OKlmN4wRsPpVpYxnQqw1K0suNS14nZ6gY5nMDnS97mBkV5XZUW3hqvHaHY7hvAG8XTMuRRyRl/QvmhuFESv1+dter77E96zk+HOukAUQBdyHO+xBT6n+Ixn2kcwn+ABcKu5g4TYZ16eSsuXCcQJpzeH61cf6LGCfG52ZQHPB1IjHm6kseOYPhxh62hADppYBABH8ZhwYQwTlTg8DengpdnJ9L3zb6bvXzyTXhu4jH2c3AIuSzzc5ohQThYjqHAFZbZ5OSkX8ULWuPBAwkHKBbKIDoLWj+8/lp4cP5zuG9qTdgNCan0FtHiLs8VaXuEY8wqI4dPt1AgOnWWEj+WVMbSyAAZDNUzUFcZ26q696dD+xwkq+kh6851L6dvf+kF6/vlfppdffQuFBvaChBtqNHRFM1PbXACaICPO9dPGKuh/6tS92BfuIxGRaumS8vSvkTHIGyAIt7PCdkof4AkSQT90/4H0d1/+SHrswcG0H0PvRWjU8v4QraCSnJ0yST0dprEJG0QmFeY+cuIFDgo6Fr0KBLqy6AOKhx5cIqDiC4OXX5O9vdt0i9x9VmT5VLilZoiAzAD7uj6Co/rCcRgOPcNa6cyXe4jbxzm15dbxZwR68H9/FKXytXXM2+vOomXPt1Y95jDMJHU/G+QGRzLu91paILfWgK31y2mWhHuvbX+Arus5sPOZ86FaUUBMGVjHcXR5KIqHsLwvUYN/lBW53egDIMZOIIc5QOQRvB765lHV818kIObaBbwwtqmmMzwOC8ztrq6OvhCVdbiFAh/hLMgnyyJ+duqd9PTrL6cX5y+mS0beNa6ZY6a+ICZnZmnLcIVsJ4IyskIEvXgGGZ9hvTVaHiE+2QNDu9OTE0fSE4DdCfbHuqYR7zHMWrQZK2xJg5OZJf/BKp0qWwpuxkkzhnmuMZK87/YrLGYF2o5GjnYAl6GREbY7BNx75CP/nN548930zf/6Ufra158hjeRccHpXUWKYhtLi1myFLdrU9GXAZD/gM0KaSewW6eQq4Jw5JI2Z6Rxa6liwHaF/gxfR4YM70t9/5V7yPBxNBw4gs2SSS9xTQzbFCvRGl+pS5qEhdBMxwSCh0eW0Jid1iYNbZ34RQ5Dqyv3WcC5zYH2ARQOTHHgbrmUAhsAvOBmGGDI3Xwxy0t4b+92BRj4Mw/nd2nh6rijr8KE4F3jEX9xdx+9fWSrXl4fk5lSGtGmFK5copuz3DbaVJT+KW9nDbdN2T4Gdz46JR2Yw0dD/c4BVvcrD3yYLuYFnI4TSFBeICcf6jXASiMEBH3r+VjC6wnItFog7T5tn55plbHzGYuD4JDnsXlq4lL7z1mvpBaILnFvStEPZF6ADeIExWYBv/UqJwJL8VoMcSgBe93HElcb8JhAy3z+6J3144kB6at+d6TC5L0IrzIoT56+yFZzjr58fbvGayHf0GtF9aBU2ZRANcyhYiqJYEZFjbGc9mjmW3J2LOOxliwVwz8n9BLb8Yvri5z6Tvv39n6Z/+4/vpZ//nDDwemUwzh19xNEF+c27MIL7lVvLJQB/bnqerS+uXNyr7c6HDFpAKf2dT6dPbEt/+dm70pNPHE13kamtj/GuIkowfLl+qtLbfK1ychbBaJk3zhX+BgtzE4F5FSPebQCX7oHVYkw65XBuqZ3rHtrdQ1Jr2UNlttsAMsVwclUSYBqayZWFKQv1tc+z63WAVunE+1QhaZxpH0V1RMX34lmrVnRHkUuXBrs0UR/aWgr0FNg51emFuXSZJCUK6EcAuuYN5m5okYunOYxCceOKwvMWD2z53BVPrzKNdaVgHxZBirM4yr48dzE9M3s2vXT+7XSRqAQLKj0K8FIBYdSJMAqmRBrEokE5CY8HvrCCldjpWmSKvZ1oWk7h3P/YxKH0+M6DAXL7dHOysmN0NTKOBmAh9yI4LGFaE2b/bsUA5wUF5Gz9DChZaoi1yca2OVtNcH3ZnEMqKBGjW8HGTTldA27o6NGJ9E//+On06MN3px8894v09Hd/kn5HAufLlwlMYFuMfQcvisW5eYxsBVq2kkRjMGVknxpmxACn7xlOn3/yfpQP+wiCMJr27dbPeC68QPR0CR9S5rQMQPcx7uC2aFvMX2Zyk3gGjEC5MbkujkMOz8ZYLdb1RWiIpUXoH0bXAJeeCuXMtmst7MuluMztvaBtpBnwGRfE7EboFWstR/PtB9adLOpUPxjQIjI5lT1uiVsNduIac5aPLyMRd2mpPnSTKNBlpd+knrt0s4RAdYGH3qgiyrF0fdpUdI9uD2fnMX+39iwdnfNACkwBBsV1c9jU/ZJkNt+98EZ67vyZNIlc6jIGrcrjrkTUAB5iFinrKS4pOag4HmfdpSq7Yxsth8pvhfbDbBGPDoykT+48EFrW09jPjLBYFuCYWmOg7pLj4foGKGaOCa9fwpVOqaHAp0vQ5TkyyzOAQ2PKfYwBnIumhMFF+kc7fqocUQCu9lH50A44p3w8c5AjuBDcd+owoal2pk98/L7029feTi/87/+lH73wUnrl1T9EFOCpqZk0jt/eyso029WDAPHV9KFTI2RB+yhKkDFkcrhzYRCj7WEmZg6CkGkB0K/go6xYvwQ6TgRduGAXLyVdBIOrorRun2PnR2w54fL04tDUx7F3yPypB9Bxzm2+CX0WMRg2qs0ALOMyBt76MsfLomhvPeLlvjfzr9zjZdh5xQvoskKUsK44l8DB4u25rkJ94GZSoHfAjofUt/UQnJwPdD9ayVGi84YmUy4n48v7T5ticZXcgHKoM6hvf4gQ/jvn3kgvTp5LU8j5huAyV+Fu8KEImzuf7eLS1mfn4AQX7euuwpG4xg4QB+6TO+9In951KH14bC+xxTCt4Lxbw34GoIzJebrdOwcnsp0Fewcucq4Vt+SDAbL2io0hAEn+bpQiKFZk5+hjBUQQFIzEu4hXh1xQ5G8wWAJ/LtDzxP3TJ3gP3uCkzA0uKORaNDEMsA6hmdlHkL1TJw5hC3dP+tTjD6YfPvczsqT9GNAmii+KkH440JXVd9JXvnAyffUfhtPHTpufAQ4Xh+QQHXSsbQ9pi6YmNZJ9M0+GFnIzS2TY4kcoFfL0MtpJD8/zKeDJDQpkIaNk0KWBr9Xk4iSejGRcQ3tDyAOIFxHy1yGEsdImStFurlgcu8EPx7DHqNQOaKNS9rfR+fr4TaVAPBoRJaPrq+kmjoVnRterHciGhnhy9R7wYfZB3zKgc3o+kMVDOQ1w/Gryj+kZtKzP4rB/ZmE6tkHaaJkHYBUahWGIC5IS29T8dd2/4RLFQmCzR8wyIpYMYC93x13pURJraxA87BrhepUeF9m6W8YNte56p1FNKlaJIb+EskTZVB7j2sJSlIU9qRqcRBxSroFWXKdMKmSP9O/W07bMZibYudgH2LYaFSaUCcW8WyBAc9ZXMbFndxMurpmO3bk73f+Rw+nRR4+lk3fflc5dxF0NznsbKk7TOd6x1/xYSiTxaLEh25QoJWH4DI0qx8dxbEf8GOZCc7PIZOXc2Ya6vRX44hHsQlCvFRd9Tq8wz5CT0mhp1qbZ0Bw7gkFekGNMTM43KyeQd0aAFrxj8Km2fYG9qjBwOx/yQoV6N1Lo45pAdyNt1XVvCgUC7Motzp/aow9SWcqFdKNtxhbLlSjI+fAXC/JG2+lavxxfZ5v09QZyp2fg5L5z9nfpJbavs0zG7afbaI18jSgiEgg3gpylc12WhrTK5xSiD8Cindy1Jz2x92j60vjxdGyYPAo0UCbocQWraRzfPhwAVeyOARtMI1iZOp6rMR6UsBKUD2MgCA4u3ODK+G04+EUq6hC+k4PalxkK3uWr8/yS3vMQ0ikEYWEzW6Y5eSpt8ymZFQGmAQd57Mh+NLiPoSjalZ5+xigx5lwdDIWFpiDLsE5yVuY/NY6agGsxZFdpUuHtVG4nR7doblU+HafaSqGsIG++3Z33R6JTdHQPud8S9HVwHHcbqRP/IAjepsvgnEocA43q9yr4lUqRaMwBSTvyEC4YDLUQl8a5smSytR2qf9y+FFjbxnrzq6V4wDY3Nd64PIXzsGHLPFUDPPAN5Ez5zdf55G6uxS3h5kp0Ejw0uIITwBss/WzpUvrmH15Jz198K53FSFgt64CAxQpclotwyIJLcX3ZTOdM1AZaZxttHx8aS0/uvzM9NXE43U2MsuFwd0Cri9nGPLLJseEmIcJtVI52Ddut08fxEbwzpkCEbHC7RkMYGMZ1FQv5fINcxOarMI7b5Rlc4oC4CbiYuIIphrG0CGFH1gXJBgBTZXz+FmTktubnFO4TDggOpz9yAeY+g7tmXkMYNst1zs6cJUrIQLp4Hq8BNNs64y8S1ugKQsZh7NsK87Zo9wrcsMoblRS2OM/Wep7O5DStVzKCziTkco55bar+imFHsQG+azOn4bhAHxwpv/2MahLD8fJf/Ob4SOFJEDPy3ni8OGebg6inG4goFF+07Uj5PQVXGPko1lZJeXX9eRtS4P25jTzZeKiSl4Y4GwCecqqGT+/dH+H8AAASOUlEQVS15Bk3k1jl2i0Xjo88C/A3hPr+/tnX0zfeeTWdJ9DhtDHgXaWsJH0ey4Xhp2YqNlOWMgRT+VtT1CGuOExo9kfGD6SH9xxKj6GEIGEgq4VrAR4X5Qh7ryasj/KnaimBNHeKVlItLPTToLhc8C5It9NuF4O7c/EDGqMAl/6cq3BZEfCUMEMN9r4BJjH4ghNkHOEM7kEmY14LY7+pulBGqqO+IFKBhPg9KPtEUegfMe2Uu23HS8NsarS5wkCy6U1Uy0AH/UpPC6dqO03a0fBGcxKbNN5bSyER/VaK9OavDH4adOG38+1a4vo1onY2V5ohxbWVG1lunfO811o23aJbYE333p9F0nXU9cGbSIG4j++H7CFizkVED4NZIrDW/L1Xik8+4FCuhQtwaz949430zbdfSb+Yv5TeJvxNA0GOZiQmLNabQUBouXd1mUfkBKVorEpw+LQTVFLp8Pl9dwFypLKDW4h1Sd9WDTkaq1d5WOhWA4U2Lgr0xzpWmeA2WiQuLbfSZQtWnYDkC2yLG4WaUrBQCaGSohNMpUUANi5m+taHrI9GDaNU8EWRMtA/TRMFmR3QZniE7WLfDPVy0mwwgdnoxkWEYb0wAHPDqsf2lUblUsu3hjK2AcYWu3IHLgkL4AkwkiQVsqihnsQVZAC5pMlySq6xVae4tqRBfHKsuH2t9sqm2+p1/ui4HXJzE+YN7ngpdV5W/759KLC2nLypAsJ7KL7BNSltyr3AfuxQINNDWOeU9MjQ7OI1gtE9/cffp28AdBdYsFdYZWOsZs081JjOspUTGPy9ESCVXJ1yvAbVjg6NpM/vP0HYpWPpVP9oyNPkwjBHi3Xp4ltAeOaWcAhPjWKT2U7pjsXWuaBbC7aotw4rqaBSNuRlVuYvOL+yl872OS4oWV/zlNAY8xK4ilCw5J7k/CJCCiA4wLjVxpLIPlJPqtE1ttzicoOtHgbDSjZDJUqPKpeYc8sftASlYgxGX24ZILZToe2XQQQMybVcKCbip89oOZfys5hvXMz3OQzAF3kFGepJDrKUhV6jq3WnxGrp+V7XxLoG6wO3nAI5lrjDKIAuvAHUtrGa9GJ4g3DQF4iT9cSnn9hwsKr5+5H+jmC/oLFsL5TgHnhgXQeuiTliqn+XIJrfuvBm+hkRg6eXMHgtTsolXQ0VHouD2nG4WEi6QnleYIv6fF7RIZ1jBzDBeHzPkfQ3B+4Orm5nsT20w+ib+uGOBocitySgeKxsuxxj0Mu2K8XbUbqhq6iYQy5mzlRzMPhearVT3DcvDcmB5/hs27a1tVz5UXAtAoj3XRtCtbp66q2ZhRjHDm6NupJkJz7DuwmEYLLrakQQzUYi+GiLcBt16nEHmM9HxBOP+LuDi9JrbU/BcXo+Lumoky/m3wr9rqLFvqQRMfPYxUtXjW/XYoNxT7PyxNBSBihVBBClbBP6qGxxBMFddhtDvqL+t4cpwP4mj061vuB2nsin586dw6l8FDuloXTixIl0z733XncKmq5oltErpZTBaHV/CXncf77zWvr3s6+lN5ZnIu+DDFC5FSyBoXjuYwpVv9YyN6qKC5/03cTqPjGC98Po/vTU3uPp5NDO1szFzCrQSFfLKlvAJr6q5biUCS0ikGpCtVhAkq5Cvpzkx/SFK7jPEeMNDaZyNQLmBrcW2emr5OZ73EoWZok3/txU4UI1l3341CmrFOiCs4G1CRs4gaxo6Mh+AoYeu5KeTWeyyUbBOg4GQJB5owI6ASIBpHlMnfI2QXVuVtsQNgIoEkwk3TKBon+bss404Z4GoV3/uqQOXWbHdcS1JEuX2+4sc+tSKw4JtL5w5IDNaTGPZ4fcXGtTIn05L9BNzcLxA+a71uykN2q2Pt6jFGhtY3/y05+S9m8sHT1yhDf37oiMGrZuIcG9DYsrhaELFr/AQPhr776S3iLxa7bfY8vaem0Xc6su0o7p9rn6WbQqFx7edUd6YuxA+jD+rIfwCdU2TnAR0wJ/OtqJDPZI7+0v8iSIshSyJqaLZMjaByNsxrON3hP61mr+od+oY7g8mx3vD+wsUEaMsU/+QglSBUG5vk3ePsHN6tqcybFpEqKhsVvuNWUKkUzwRTt6xLDpJvsezNcwF18cJiWK6Rf9atw8jc5nkXswhqyx6fESNR0aY93BRUsIBgPEmcBQuH/YSFYQqYwZHc5x7Ty6YSnn6X2gXZNhW1qcY6XffMJ7sBgcrdFexGoCP29QkBvGfGmP9jdJ0g3aqg/fKgoE2Ml9PPDA/ShPebtrIuFDWZbye+fDsgUjdqHYnZ8OjOc/SvmQlVxRcfiaHy4+H0oXyyCrah4uKjLM8yen1hLYF610YFSrbc1PjBL84Cjhw4kt9wSmJHf24xQfAh1KATTF2mqtBPv2lDjZRxttoMEJ5Ukj2IuFWUO3zgt6y1OhaA17uwVAYTsyxUYgX6XQmRzUDOYjVwyBBKCqx/A91RLqF91kmReVq5a1NsUY5tHkEt4OJYKmIXDqttEm8MqD2jsBABGlRVRynopovXOKAuIetSZPDdpohKbXOpVCfx7LaRHQItNI5qAzraImoOv4fYHE9SWdOtvKlXPjVrReUUcXRMugxngddM4aaDOm5Uu7/suUNZ0ZKV5SXevUB28LCsRtVs4yENEUi3ITgG0ddVxsGJG9felCOjd1OZ2dmcIxfHvau2si7UVQdMceYrCzqEK0Rt2QT1Ue3o2AUE7uIUxB/vbO+9K//uFX4cjfJ7dEqKFtRPw1L8QwLmoXp6fSKggUoYB4408JUoD/Cbaonx45mL568O7I92B+WUusp8qiWjcfDjg+OT7t70LmxV/I6byWP0ztYjFHM+teKkXjXkeNbe5rqdQEONSwris0OMBWcApnDMiHXd/VND4mWHCiAg7mf5ha0Ee38MCwIc/TnZ4RZiTLdnbreigqIkfjVozv0gZQu74GW1C9InInTsM5Kt/0u++E4OCcDsVtKd53wanKxBWH84sWeq+B4tq4nYL1giKtL7m9tX8rk6x8DZCzxMWVa/huPou6/PlQIL/TbgW4ddDYt/oiyZHN5j47NU1odJQkANIqn8scD2DTrAUWZhnuJkAD5FOhEGnrOliHmJJ1AJoRtK1P7b0znSEu27Pnfp8BjZOjzSY5Ogex9yLOG4DnNlfh/g5klUdQtDxM8MwvHTqdHhndG9ylHIwclN/XcSobPDMLCOfmibk0ylaV0HcxD98rgkC4O/FbbW0p61oD0PaV2Y+XQs5s1Uk4B8OYaLhpmHjajVBJ0qbjvtq2HhXnZsh5S2io4TJhkahE3dFRtot8DVc3j3UARP6JnBFw20fW+m3b0QLgBp8DfRL7ji2wW3O52QkyE5kaM6Qg0b4TxSMEoJN7lJvKxrrKIjXfKWhanTbHqqU8pReGbXr9Ri+5tgs75tHRbP3zz4QCGex6YLJyl7tGx9JOcqKePnESUGPbCbIMIoAxlpvFyL5TRK+Y4y/MXQi6OYyD9xB1NI/Isp7KZDhULpB7B8fSv9z1YPrk3iOAFRm6hicwAt6e9jRHMCZeSd/64+vp62d+nS4Rp+0hAlX+9R0nQz43UWyLXPwhw3LhbFQ6FyrIYbYs3ZiMBDKLkqHJj7ZdKOfk/gRRd4zBa5R9VNvje0uRUe2/VSd/0Y57l5zfBi+wnbpF0YmRhLcZuI+KcrPOK+JIlu05kI65ZkUD+XWHiVIyRvySQp7rvRN0BK1dTUJHIeQT6Mrr863JDWN+SEjzPNd8HqAr+gyA9Xvn2DkeVTzOmC6RH9cXz/ioiXrKAVthg7JRlY2Ob9BMffj2pkDPgJ0P8jbe/GKLruWDRrTtGN0yW7kZNKuThuth5Q2zQjXR7cOgbaBTBtV5X2j3dGMs/qKwWARM/S2bGAR/ee+J1IQbmiEy72f3HktHB1HpuRgKriAE/51lE4uloTuS4iLaMURRG0fo4qYswhFplB1RPzr7aQEOXwrgjYvKvqvA2AZOhU1Hq8F8vfMYC1czG8joEsPgZwto+a4fq7Z0mr8YbSXmH7Qw3DqqCbjC7SQxspTclS3q3N8SLxRjDOyyE+9xTLEYaHW8zK0rjaMD/7Fo8kPfbE2xwAlXrrrUFNgsBXoH7BxxdQEX32N98Vess1hIsSPimGsg/qqLZrMzt01WaXnpGOzOXx08Gc7zLell2Xm1zXKMm+2nWKheFuYi1VKcc9FeBehD69nZfvyuDKSceHm429y9BtVvgHnI+jzQreE8oLZhUc3AAedntqUL7FLH0ELuQ0tJ+o0C1AzkCUdl5rVVo7WYrGOtBPB166pyrGVU3VmvraXqDwIHxIswu7ONcpNa+LfhNfWJmgLtFOgtsCvHtsEiUEbXRICuW5qc3SDb2AFUj2EacqOF1dK2YOhTc+gWd1O21w3wbrSv69TXvMet9cal/RzJwILD6lQ+tK4vAGdpPrNTA8jy2rim680JxNqBRqHJuMLFq80oFzMYjo2Nci8GdRRbz4xuPI/3eAZZ7RXCnMygBNGkpDmQt9/rUfU9tl9f9mdBgd4Euwrpy2XuZ2Q3R0ZnztdYr4WCIjiF9+FV3yLGtXDnFj8WyqomUXo0Afwdup4VwNZiUYuxq8CZjgxAyLYApxaIl/WvMQ8VzruJYLKLfK0GSd9m9MviOgUH0mkchm50tBm70xt+1XjzCg5V31uhy7iBlkHNn2yweg9QQM2g3LlIFrFt+Oc1C414XFCXmgKbpEDPg13Mw3XAw29uqSZcXAOOTq3p+4RxmyTVFlZjftnToODWrgHcmt40WOwD0CHElAEKIIeoV9DJn9rMBScMu5rtyAp2jjp6b7jdNLdFNFABn3KW6hcI85l/2q51rM2F+tPuJTz7+LgxTNyCl1vc8urrfBZAZk6OBbTtc+aKhfXEUxk5nF4K7QSw61EUG3J1/YBhzdddh7716a4UuD3Arnz2WSSBccVi6Tqj2/CgATkvwbWsoCzZg3ws7HgLHGp9VualtX/LEDbqSZDsdzs1Z+hzXguoNo0wYry2KL4d+F/N7xxpygwwOjZagFkBZLkeVTOTtbb1DUTjuDLAguU6foQAnih2ZMjU7OY7k7vyXwFwEpmfBtEqZ/RVVWa5S9tCnzqOOWxNhwYDQHNY9ooSNxqL+01dDbvXhKlxKoN78TU+2jGyeqb+XlOgU99ZU+RWUMCAlOPDOuGbnAckEGwqAF8dU8BTOM4WCNTSQhuwAA8IgmOaz2E3bFAoPEocyngYALMDu0JTEbY4waIvAYoo5aGJDWU4x60f5jZ+L52J+UmE9dAuW38OxFO21wCw7MZik87LoKBjI33pAEmB4ngohfjOp/+pWTVMfPTD+Vwrf2/9iCvbi25gs8aj5xGOpNg10HWSqP7dQYHbg7P7oN82FmqOKcgXcay66su5lyjC55LB8Vjsrdh41Ak8AkD2jYE6GUuinYKhy63w28TbOT9FgS4V2sq5KUPTaDfn2yhAp+y7ABQBd2JClShJiOhrFdZUJUt4gVinmMPokLkiiDUR8+nszxHnhuN8UeJriXhrh9d9czt/Fc5Vh7W4vga7dTSqD7RTgHiSPq51uaUUiDuQF79bSDkrS2FLXWJCfApG52ZZ27BNByKAgGkay1vYMurIDVQ5xAJbvH5ugSRCBBcITyrarD4APg2R7IfjOtSX5jIqRvTPzVtPgIZ2xBjDJ3lN7KS7AY7A2eV4Bd/yWK/7b+djeuMtXLeLusIHmgI12PXK7S1Awdh3M4Q0MtBAE+O2VhKZAqzkmkyTmJMzw5h3AZJrTol2yijLEXtOzKjghn7zC4vkiaCfAEQZOM6r1DDQgCzlKJFKQq7I8Xr7eE1q1yd7iAI12PXQzXAo2XNBVywzjAFmAlEJdFs81pJ30llf+Z1ApkhQTJR7k7MzFs0iNm+mQxxt5kxmN2l4Wzz7uvkPOgVqsOulO9y5U6uObSt3bW53LZvkEpX7GYE98lIUCt1eImM9lpoC3ShQg103qtyKY9cCOsezlWB3rfleZ1xh73gLh3etodfnagpUKVBrY3vlebhVYHa9+V9nXNc5fb3W6/M1BW4aBTa5cblp46k7qilQU6CmwJZQoAa7LSFr3WhNgZoCvUaBGux67Y7U46kpUFNgSyhQg92WkLVutKZATYFeo0ANdr12R+rx1BSoKbAlFKjBbkvIWjdaU6CmQK9RoAa7Xrsj9XhqCtQU2BIK1GC3JWStG60pUFOg1yhQg12v3ZF6PDUFagpsCQX+H4e/JRboSK2RAAAAAElFTkSuQmCC;" parent="1" vertex="1">
          <mxGeometry x="1170" y="485" width="120.13" height="90" as="geometry" />
        </mxCell>
        <mxCell id="23rFBHKMvT71HNuFYbmp-3" style="edgeStyle=orthogonalEdgeStyle;rounded=0;orthogonalLoop=1;jettySize=auto;html=1;" parent="1" source="23rFBHKMvT71HNuFYbmp-5" edge="1">
          <mxGeometry relative="1" as="geometry">
            <mxPoint x="1170" y="525" as="targetPoint" />
          </mxGeometry>
        </mxCell>
        <mxCell id="23rFBHKMvT71HNuFYbmp-4" value="push image:latest" style="edgeLabel;html=1;align=center;verticalAlign=middle;resizable=0;points=[];" parent="23rFBHKMvT71HNuFYbmp-3" vertex="1" connectable="0">
          <mxGeometry x="-0.2571" y="-2" relative="1" as="geometry">
            <mxPoint x="8" y="-2" as="offset" />
          </mxGeometry>
        </mxCell>
        <mxCell id="23rFBHKMvT71HNuFYbmp-5" value="" style="sketch=0;pointerEvents=1;shadow=0;dashed=0;html=1;strokeColor=none;fillColor=#505050;labelPosition=center;verticalLabelPosition=bottom;verticalAlign=top;outlineConnect=0;align=center;shape=mxgraph.office.concepts.settings_office_365;" parent="1" vertex="1">
          <mxGeometry x="940" y="485" width="90" height="80" as="geometry" />
        </mxCell>
        <mxCell id="23rFBHKMvT71HNuFYbmp-6" value="" style="rounded=1;whiteSpace=wrap;html=1;fillColor=#dae8fc;strokeColor=#6c8ebf;" parent="1" vertex="1">
          <mxGeometry x="1410" y="442.5" width="490" height="185" as="geometry" />
        </mxCell>
        <mxCell id="23rFBHKMvT71HNuFYbmp-9" style="edgeStyle=orthogonalEdgeStyle;rounded=0;orthogonalLoop=1;jettySize=auto;html=1;entryX=1;entryY=0.5;entryDx=0;entryDy=0;entryPerimeter=0;startArrow=classic;startFill=1;endArrow=none;endFill=0;" parent="1" source="23rFBHKMvT71HNuFYbmp-13" edge="1">
          <mxGeometry relative="1" as="geometry">
            <mxPoint x="1258" y="521.5" as="targetPoint" />
          </mxGeometry>
        </mxCell>
        <mxCell id="23rFBHKMvT71HNuFYbmp-10" value="Check image:latest&lt;br&gt;digest" style="edgeLabel;html=1;align=center;verticalAlign=middle;resizable=0;points=[];" parent="23rFBHKMvT71HNuFYbmp-9" vertex="1" connectable="0">
          <mxGeometry x="0.2092" y="-3" relative="1" as="geometry">
            <mxPoint y="3" as="offset" />
          </mxGeometry>
        </mxCell>
        <mxCell id="23rFBHKMvT71HNuFYbmp-11" style="edgeStyle=orthogonalEdgeStyle;rounded=0;orthogonalLoop=1;jettySize=auto;html=1;" parent="1" source="23rFBHKMvT71HNuFYbmp-13" target="23rFBHKMvT71HNuFYbmp-17" edge="1">
          <mxGeometry relative="1" as="geometry" />
        </mxCell>
        <mxCell id="23rFBHKMvT71HNuFYbmp-12" value="Restart on&lt;br&gt;digest change" style="edgeLabel;html=1;align=center;verticalAlign=middle;resizable=0;points=[];" parent="23rFBHKMvT71HNuFYbmp-11" vertex="1" connectable="0">
          <mxGeometry x="-0.302" relative="1" as="geometry">
            <mxPoint x="8" y="1" as="offset" />
          </mxGeometry>
        </mxCell>
        <mxCell id="23rFBHKMvT71HNuFYbmp-13" value="Urunner" style="ellipse;whiteSpace=wrap;html=1;fillColor=#d5e8d4;strokeColor=#82b366;" parent="1" vertex="1">
          <mxGeometry x="1430" y="481.5" width="120" height="80" as="geometry" />
        </mxCell>
        <mxCell id="23rFBHKMvT71HNuFYbmp-14" value="" style="html=1;verticalLabelPosition=bottom;align=center;labelBackgroundColor=#ffffff;verticalAlign=top;strokeWidth=2;strokeColor=#0080F0;shadow=0;dashed=0;shape=mxgraph.ios7.icons.clock;" parent="1" vertex="1">
          <mxGeometry x="1430" y="511.5" width="20" height="20" as="geometry" />
        </mxCell>
        <mxCell id="23rFBHKMvT71HNuFYbmp-15" style="edgeStyle=orthogonalEdgeStyle;rounded=0;orthogonalLoop=1;jettySize=auto;html=1;endArrow=none;endFill=0;startArrow=classic;startFill=1;exitX=0.5;exitY=0;exitDx=0;exitDy=0;" parent="1" source="23rFBHKMvT71HNuFYbmp-17" edge="1">
          <mxGeometry relative="1" as="geometry">
            <Array as="points">
              <mxPoint x="1730" y="392.5" />
              <mxPoint x="1219" y="392.5" />
            </Array>
            <mxPoint x="1219" y="430" as="targetPoint" />
          </mxGeometry>
        </mxCell>
        <mxCell id="23rFBHKMvT71HNuFYbmp-16" value="Pull" style="edgeLabel;html=1;align=center;verticalAlign=middle;resizable=0;points=[];" parent="23rFBHKMvT71HNuFYbmp-15" vertex="1" connectable="0">
          <mxGeometry x="-0.7512" relative="1" as="geometry">
            <mxPoint as="offset" />
          </mxGeometry>
        </mxCell>
        <mxCell id="23rFBHKMvT71HNuFYbmp-17" value="Pods" style="ellipse;whiteSpace=wrap;html=1;fillColor=#d5e8d4;strokeColor=#82b366;" parent="1" vertex="1">
          <mxGeometry x="1670" y="480.5" width="120" height="80" as="geometry" />
        </mxCell>
        <mxCell id="23rFBHKMvT71HNuFYbmp-18" value="" style="shape=image;verticalLabelPosition=bottom;labelBackgroundColor=default;verticalAlign=top;aspect=fixed;imageAspect=0;image=https://upload.wikimedia.org/wikipedia/commons/thumb/3/38/SQLite370.svg/2560px-SQLite370.svg.png;" parent="1" vertex="1">
          <mxGeometry x="1457.3" y="528.5" width="63.41" height="30" as="geometry" />
        </mxCell>
        <mxCell id="23rFBHKMvT71HNuFYbmp-19" value="Kubernetes" style="shape=image;verticalLabelPosition=bottom;labelBackgroundColor=default;verticalAlign=top;aspect=fixed;imageAspect=0;image=https://upload.wikimedia.org/wikipedia/commons/0/00/Kubernetes_%28container_engine%29.png;" parent="1" vertex="1">
          <mxGeometry x="1840" y="450" width="46.34" height="45" as="geometry" />
        </mxCell>
        <mxCell id="KrMKus8RkKXgKPneI6wB-3" style="edgeStyle=orthogonalEdgeStyle;rounded=0;orthogonalLoop=1;jettySize=auto;html=1;" edge="1" parent="1" source="KrMKus8RkKXgKPneI6wB-5">
          <mxGeometry relative="1" as="geometry">
            <mxPoint x="1170" y="842.5" as="targetPoint" />
          </mxGeometry>
        </mxCell>
        <mxCell id="KrMKus8RkKXgKPneI6wB-4" value="push image:latest" style="edgeLabel;html=1;align=center;verticalAlign=middle;resizable=0;points=[];" vertex="1" connectable="0" parent="KrMKus8RkKXgKPneI6wB-3">
          <mxGeometry x="-0.2571" y="-2" relative="1" as="geometry">
            <mxPoint x="8" y="-2" as="offset" />
          </mxGeometry>
        </mxCell>
        <mxCell id="KrMKus8RkKXgKPneI6wB-5" value="" style="sketch=0;pointerEvents=1;shadow=0;dashed=0;html=1;strokeColor=none;fillColor=#505050;labelPosition=center;verticalLabelPosition=bottom;verticalAlign=top;outlineConnect=0;align=center;shape=mxgraph.office.concepts.settings_office_365;" vertex="1" parent="1">
          <mxGeometry x="940" y="802.5" width="90" height="80" as="geometry" />
        </mxCell>
        <mxCell id="KrMKus8RkKXgKPneI6wB-6" value="" style="rounded=1;whiteSpace=wrap;html=1;fillColor=#dae8fc;strokeColor=#6c8ebf;" vertex="1" parent="1">
          <mxGeometry x="1410" y="760" width="490" height="185" as="geometry" />
        </mxCell>
        <mxCell id="KrMKus8RkKXgKPneI6wB-7" style="edgeStyle=orthogonalEdgeStyle;rounded=0;orthogonalLoop=1;jettySize=auto;html=1;entryX=1;entryY=0.5;entryDx=0;entryDy=0;entryPerimeter=0;startArrow=classic;startFill=1;endArrow=none;endFill=0;" edge="1" parent="1" source="KrMKus8RkKXgKPneI6wB-11">
          <mxGeometry relative="1" as="geometry">
            <mxPoint x="1258" y="839" as="targetPoint" />
          </mxGeometry>
        </mxCell>
        <mxCell id="KrMKus8RkKXgKPneI6wB-8" value="Check image:latest&lt;br&gt;digest" style="edgeLabel;html=1;align=center;verticalAlign=middle;resizable=0;points=[];" vertex="1" connectable="0" parent="KrMKus8RkKXgKPneI6wB-7">
          <mxGeometry x="0.2092" y="-3" relative="1" as="geometry">
            <mxPoint y="3" as="offset" />
          </mxGeometry>
        </mxCell>
        <mxCell id="KrMKus8RkKXgKPneI6wB-9" style="edgeStyle=orthogonalEdgeStyle;rounded=0;orthogonalLoop=1;jettySize=auto;html=1;" edge="1" parent="1" source="KrMKus8RkKXgKPneI6wB-11" target="KrMKus8RkKXgKPneI6wB-15">
          <mxGeometry relative="1" as="geometry" />
        </mxCell>
        <mxCell id="KrMKus8RkKXgKPneI6wB-10" value="Restart on&lt;br&gt;digest change" style="edgeLabel;html=1;align=center;verticalAlign=middle;resizable=0;points=[];" vertex="1" connectable="0" parent="KrMKus8RkKXgKPneI6wB-9">
          <mxGeometry x="-0.302" relative="1" as="geometry">
            <mxPoint x="8" y="1" as="offset" />
          </mxGeometry>
        </mxCell>
        <mxCell id="KrMKus8RkKXgKPneI6wB-11" value="Urunner" style="ellipse;whiteSpace=wrap;html=1;fillColor=#d5e8d4;strokeColor=#82b366;" vertex="1" parent="1">
          <mxGeometry x="1430" y="799" width="120" height="80" as="geometry" />
        </mxCell>
        <mxCell id="KrMKus8RkKXgKPneI6wB-12" value="" style="html=1;verticalLabelPosition=bottom;align=center;labelBackgroundColor=#ffffff;verticalAlign=top;strokeWidth=2;strokeColor=#0080F0;shadow=0;dashed=0;shape=mxgraph.ios7.icons.clock;" vertex="1" parent="1">
          <mxGeometry x="1430" y="829" width="20" height="20" as="geometry" />
        </mxCell>
        <mxCell id="KrMKus8RkKXgKPneI6wB-13" style="edgeStyle=orthogonalEdgeStyle;rounded=0;orthogonalLoop=1;jettySize=auto;html=1;endArrow=none;endFill=0;startArrow=classic;startFill=1;exitX=0.5;exitY=0;exitDx=0;exitDy=0;" edge="1" parent="1" source="KrMKus8RkKXgKPneI6wB-15">
          <mxGeometry relative="1" as="geometry">
            <Array as="points">
              <mxPoint x="1730" y="710" />
              <mxPoint x="1219" y="710" />
            </Array>
            <mxPoint x="1219" y="747.5" as="targetPoint" />
          </mxGeometry>
        </mxCell>
        <mxCell id="KrMKus8RkKXgKPneI6wB-14" value="Pull" style="edgeLabel;html=1;align=center;verticalAlign=middle;resizable=0;points=[];" vertex="1" connectable="0" parent="KrMKus8RkKXgKPneI6wB-13">
          <mxGeometry x="-0.7512" relative="1" as="geometry">
            <mxPoint as="offset" />
          </mxGeometry>
        </mxCell>
        <mxCell id="KrMKus8RkKXgKPneI6wB-15" value="Pods" style="ellipse;whiteSpace=wrap;html=1;fillColor=#d5e8d4;strokeColor=#82b366;" vertex="1" parent="1">
          <mxGeometry x="1670" y="798" width="120" height="80" as="geometry" />
        </mxCell>
        <mxCell id="KrMKus8RkKXgKPneI6wB-16" value="" style="shape=image;verticalLabelPosition=bottom;labelBackgroundColor=default;verticalAlign=top;aspect=fixed;imageAspect=0;image=https://upload.wikimedia.org/wikipedia/commons/thumb/3/38/SQLite370.svg/2560px-SQLite370.svg.png;" vertex="1" parent="1">
          <mxGeometry x="1457.3" y="846" width="63.41" height="30" as="geometry" />
        </mxCell>
        <mxCell id="KrMKus8RkKXgKPneI6wB-17" value="Kubernetes" style="shape=image;verticalLabelPosition=bottom;labelBackgroundColor=default;verticalAlign=top;aspect=fixed;imageAspect=0;image=https://upload.wikimedia.org/wikipedia/commons/0/00/Kubernetes_%28container_engine%29.png;" vertex="1" parent="1">
          <mxGeometry x="1840" y="767.5" width="46.34" height="45" as="geometry" />
        </mxCell>
      </root>
    </mxGraphModel>
  </diagram>
</mxfile>
